<mxfile host="app.diagrams.net" agent="Mozilla/5.0 (Windows NT 10.0; Win64; x64) AppleWebKit/537.36 (KHTML, like Gecko) Chrome/135.0.0.0 Safari/537.36" version="26.2.14" pages="5">
  <diagram name="Page-1" id="5u4faI47dpa0iYf8tD6q">
    <mxGraphModel grid="1" page="1" gridSize="10" guides="1" tooltips="1" connect="1" arrows="1" fold="1" pageScale="1" pageWidth="850" pageHeight="1100" math="0" shadow="0">
      <root>
        <mxCell id="0" />
        <mxCell id="1" parent="0" />
        <mxCell id="2iCTo8V3nfRKChW8rZRK-1" value="Edge" style="rounded=0;whiteSpace=wrap;html=1;" vertex="1" parent="1">
          <mxGeometry x="360" y="370" width="120" height="60" as="geometry" />
        </mxCell>
        <mxCell id="2iCTo8V3nfRKChW8rZRK-2" value="Cloud" style="rounded=0;whiteSpace=wrap;html=1;" vertex="1" parent="1">
          <mxGeometry x="240" y="370" width="120" height="60" as="geometry" />
        </mxCell>
        <mxCell id="2iCTo8V3nfRKChW8rZRK-3" value="Cloud" style="rounded=0;whiteSpace=wrap;html=1;" vertex="1" parent="1">
          <mxGeometry x="120" y="370" width="120" height="60" as="geometry" />
        </mxCell>
        <mxCell id="2iCTo8V3nfRKChW8rZRK-4" value="Kubernetes" style="rounded=0;whiteSpace=wrap;html=1;" vertex="1" parent="1">
          <mxGeometry x="120" y="310" width="120" height="60" as="geometry" />
        </mxCell>
        <mxCell id="2iCTo8V3nfRKChW8rZRK-5" value="Kubernetes" style="rounded=0;whiteSpace=wrap;html=1;" vertex="1" parent="1">
          <mxGeometry x="240" y="310" width="120" height="60" as="geometry" />
        </mxCell>
        <mxCell id="2iCTo8V3nfRKChW8rZRK-6" value="Kubernetes" style="rounded=0;whiteSpace=wrap;html=1;" vertex="1" parent="1">
          <mxGeometry x="360" y="310" width="120" height="60" as="geometry" />
        </mxCell>
        <mxCell id="2iCTo8V3nfRKChW8rZRK-7" value="Service Mesh" style="rounded=0;whiteSpace=wrap;html=1;" vertex="1" parent="1">
          <mxGeometry x="120" y="250" width="360" height="60" as="geometry" />
        </mxCell>
        <mxCell id="2iCTo8V3nfRKChW8rZRK-9" value="Distributed ML Application" style="rounded=0;whiteSpace=wrap;html=1;" vertex="1" parent="1">
          <mxGeometry x="120" y="190" width="360" height="60" as="geometry" />
        </mxCell>
        <mxCell id="2iCTo8V3nfRKChW8rZRK-10" value="MLKOPS&lt;div&gt;Orchestration&lt;/div&gt;" style="rounded=0;whiteSpace=wrap;html=1;" vertex="1" parent="1">
          <mxGeometry x="120" y="140" width="360" height="60" as="geometry" />
        </mxCell>
      </root>
    </mxGraphModel>
  </diagram>
  <diagram id="ps-PlwvAH0WBukMXUqDZ" name="Page-2">
    <mxGraphModel dx="1278" dy="1949" grid="1" gridSize="10" guides="1" tooltips="1" connect="1" arrows="1" fold="1" page="1" pageScale="1" pageWidth="850" pageHeight="1100" math="0" shadow="0">
      <root>
        <mxCell id="0" />
        <mxCell id="1" parent="0" />
        <mxCell id="x01qkzPRPjTBjPTjkm45-1" value="" style="rounded=1;whiteSpace=wrap;html=1;" parent="1" vertex="1">
          <mxGeometry x="277" y="334" width="493" height="355" as="geometry" />
        </mxCell>
        <mxCell id="x01qkzPRPjTBjPTjkm45-3" value="" style="rounded=0;whiteSpace=wrap;html=1;" parent="1" vertex="1">
          <mxGeometry x="457" y="479" width="293" height="172.8" as="geometry" />
        </mxCell>
        <mxCell id="x01qkzPRPjTBjPTjkm45-4" value="" style="shape=cylinder3;whiteSpace=wrap;html=1;boundedLbl=1;backgroundOutline=1;size=15;" parent="1" vertex="1">
          <mxGeometry x="340" y="571.4" width="60" height="110" as="geometry" />
        </mxCell>
        <mxCell id="x01qkzPRPjTBjPTjkm45-5" value="ETCD" style="text;html=1;align=center;verticalAlign=middle;whiteSpace=wrap;rounded=0;" parent="1" vertex="1">
          <mxGeometry x="341" y="594.4" width="60" height="30" as="geometry" />
        </mxCell>
        <mxCell id="x01qkzPRPjTBjPTjkm45-6" value="" style="aspect=fixed;sketch=0;html=1;dashed=0;whitespace=wrap;verticalLabelPosition=bottom;verticalAlign=top;fillColor=#2875E2;strokeColor=#ffffff;points=[[0.005,0.63,0],[0.1,0.2,0],[0.9,0.2,0],[0.5,0,0],[0.995,0.63,0],[0.72,0.99,0],[0.5,1,0],[0.28,0.99,0]];shape=mxgraph.kubernetes.icon2;prIcon=etcd" parent="1" vertex="1">
          <mxGeometry x="349" y="631.4" width="40" height="38.4" as="geometry" />
        </mxCell>
        <mxCell id="x01qkzPRPjTBjPTjkm45-15" value="" style="rounded=0;whiteSpace=wrap;html=1;" parent="1" vertex="1">
          <mxGeometry x="310" y="354" width="120" height="80" as="geometry" />
        </mxCell>
        <mxCell id="x01qkzPRPjTBjPTjkm45-18" value="" style="rounded=0;whiteSpace=wrap;html=1;" parent="1" vertex="1">
          <mxGeometry x="310" y="462" width="120" height="80" as="geometry" />
        </mxCell>
        <mxCell id="x01qkzPRPjTBjPTjkm45-19" value="" style="aspect=fixed;sketch=0;html=1;dashed=0;whitespace=wrap;verticalLabelPosition=bottom;verticalAlign=top;fillColor=#2875E2;strokeColor=#ffffff;points=[[0.005,0.63,0],[0.1,0.2,0],[0.9,0.2,0],[0.5,0,0],[0.995,0.63,0],[0.72,0.99,0],[0.5,1,0],[0.28,0.99,0]];shape=mxgraph.kubernetes.icon2;prIcon=c_m" parent="1" vertex="1">
          <mxGeometry x="342" y="491.5" width="50" height="48" as="geometry" />
        </mxCell>
        <mxCell id="x01qkzPRPjTBjPTjkm45-20" value="Kubernetes&lt;div&gt;Controller&lt;/div&gt;" style="text;html=1;align=center;verticalAlign=middle;whiteSpace=wrap;rounded=0;" parent="1" vertex="1">
          <mxGeometry x="337" y="465" width="60" height="30" as="geometry" />
        </mxCell>
        <mxCell id="x01qkzPRPjTBjPTjkm45-27" value="" style="endArrow=classic;startArrow=classic;html=1;rounded=0;exitX=0.5;exitY=0;exitDx=0;exitDy=0;exitPerimeter=0;entryX=0.5;entryY=1;entryDx=0;entryDy=0;" parent="1" source="x01qkzPRPjTBjPTjkm45-4" target="x01qkzPRPjTBjPTjkm45-18" edge="1">
          <mxGeometry width="50" height="50" relative="1" as="geometry">
            <mxPoint x="427" y="639" as="sourcePoint" />
            <mxPoint x="467" y="589" as="targetPoint" />
          </mxGeometry>
        </mxCell>
        <mxCell id="x01qkzPRPjTBjPTjkm45-35" value="&lt;b&gt;Edge 1&lt;/b&gt;" style="text;html=1;align=center;verticalAlign=middle;whiteSpace=wrap;rounded=0;" parent="1" vertex="1">
          <mxGeometry x="489.5" y="659" width="60" height="30" as="geometry" />
        </mxCell>
        <mxCell id="x01qkzPRPjTBjPTjkm45-61" value="MLKOPS Application" style="text;html=1;align=center;verticalAlign=middle;whiteSpace=wrap;rounded=0;" parent="1" vertex="1">
          <mxGeometry x="522" y="484" width="178" height="30" as="geometry" />
        </mxCell>
        <mxCell id="f_RbgCcwXJrIR1202kHq-1" value="" style="rounded=0;whiteSpace=wrap;html=1;" parent="1" vertex="1">
          <mxGeometry x="460" y="522" width="119" height="117" as="geometry" />
        </mxCell>
        <mxCell id="f_RbgCcwXJrIR1202kHq-2" value="" style="rounded=0;whiteSpace=wrap;html=1;" parent="1" vertex="1">
          <mxGeometry x="627" y="522" width="120" height="117" as="geometry" />
        </mxCell>
        <mxCell id="x01qkzPRPjTBjPTjkm45-29" value="" style="aspect=fixed;sketch=0;html=1;dashed=0;whitespace=wrap;verticalLabelPosition=bottom;verticalAlign=top;fillColor=#2875E2;strokeColor=#ffffff;points=[[0.005,0.63,0],[0.1,0.2,0],[0.9,0.2,0],[0.5,0,0],[0.995,0.63,0],[0.72,0.99,0],[0.5,1,0],[0.28,0.99,0]];shape=mxgraph.kubernetes.icon2;kubernetesLabel=1;prIcon=pod" parent="1" vertex="1">
          <mxGeometry x="697" y="590.4000000000001" width="50" height="48" as="geometry" />
        </mxCell>
        <mxCell id="f_RbgCcwXJrIR1202kHq-3" value="" style="aspect=fixed;sketch=0;html=1;dashed=0;whitespace=wrap;verticalLabelPosition=bottom;verticalAlign=top;fillColor=#2875E2;strokeColor=#ffffff;points=[[0.005,0.63,0],[0.1,0.2,0],[0.9,0.2,0],[0.5,0,0],[0.995,0.63,0],[0.72,0.99,0],[0.5,1,0],[0.28,0.99,0]];shape=mxgraph.kubernetes.icon2;kubernetesLabel=1;prIcon=pod" parent="1" vertex="1">
          <mxGeometry x="530" y="585.4000000000001" width="49" height="48" as="geometry" />
        </mxCell>
        <mxCell id="f_RbgCcwXJrIR1202kHq-4" value="MLKOPS&lt;br&gt;Sidecar&lt;br&gt;Proxy" style="text;html=1;align=center;verticalAlign=middle;whiteSpace=wrap;rounded=0;" parent="1" vertex="1">
          <mxGeometry x="657" y="527" width="60" height="44.5" as="geometry" />
        </mxCell>
        <mxCell id="f_RbgCcwXJrIR1202kHq-8" value="Anomaly Detection Application" style="text;html=1;align=center;verticalAlign=middle;whiteSpace=wrap;rounded=0;" parent="1" vertex="1">
          <mxGeometry x="471" y="529.4" width="87" height="30" as="geometry" />
        </mxCell>
        <mxCell id="f_RbgCcwXJrIR1202kHq-9" value="" style="endArrow=classic;startArrow=classic;html=1;rounded=0;exitX=1;exitY=0.5;exitDx=0;exitDy=0;entryX=0;entryY=0.5;entryDx=0;entryDy=0;" parent="1" source="f_RbgCcwXJrIR1202kHq-1" target="f_RbgCcwXJrIR1202kHq-2" edge="1">
          <mxGeometry width="50" height="50" relative="1" as="geometry">
            <mxPoint x="640" y="609" as="sourcePoint" />
            <mxPoint x="610" y="579" as="targetPoint" />
          </mxGeometry>
        </mxCell>
        <mxCell id="f_RbgCcwXJrIR1202kHq-10" value="" style="rounded=1;whiteSpace=wrap;html=1;" parent="1" vertex="1">
          <mxGeometry x="277" y="-150" width="1113" height="360" as="geometry" />
        </mxCell>
        <mxCell id="f_RbgCcwXJrIR1202kHq-11" value="" style="rounded=0;whiteSpace=wrap;html=1;" parent="1" vertex="1">
          <mxGeometry x="457" y="-30" width="293" height="162.8" as="geometry" />
        </mxCell>
        <mxCell id="f_RbgCcwXJrIR1202kHq-12" value="" style="shape=cylinder3;whiteSpace=wrap;html=1;boundedLbl=1;backgroundOutline=1;size=15;" parent="1" vertex="1">
          <mxGeometry x="337" y="93.39999999999998" width="60" height="110" as="geometry" />
        </mxCell>
        <mxCell id="f_RbgCcwXJrIR1202kHq-13" value="ETCD" style="text;html=1;align=center;verticalAlign=middle;whiteSpace=wrap;rounded=0;" parent="1" vertex="1">
          <mxGeometry x="337" y="118.39999999999998" width="60" height="30" as="geometry" />
        </mxCell>
        <mxCell id="f_RbgCcwXJrIR1202kHq-14" value="" style="aspect=fixed;sketch=0;html=1;dashed=0;whitespace=wrap;verticalLabelPosition=bottom;verticalAlign=top;fillColor=#2875E2;strokeColor=#ffffff;points=[[0.005,0.63,0],[0.1,0.2,0],[0.9,0.2,0],[0.5,0,0],[0.995,0.63,0],[0.72,0.99,0],[0.5,1,0],[0.28,0.99,0]];shape=mxgraph.kubernetes.icon2;prIcon=etcd" parent="1" vertex="1">
          <mxGeometry x="347" y="155.39999999999998" width="40" height="38.4" as="geometry" />
        </mxCell>
        <mxCell id="f_RbgCcwXJrIR1202kHq-16" value="" style="rounded=0;whiteSpace=wrap;html=1;" parent="1" vertex="1">
          <mxGeometry x="307" y="-15" width="120" height="80" as="geometry" />
        </mxCell>
        <mxCell id="f_RbgCcwXJrIR1202kHq-17" value="" style="aspect=fixed;sketch=0;html=1;dashed=0;whitespace=wrap;verticalLabelPosition=bottom;verticalAlign=top;fillColor=#2875E2;strokeColor=#ffffff;points=[[0.005,0.63,0],[0.1,0.2,0],[0.9,0.2,0],[0.5,0,0],[0.995,0.63,0],[0.72,0.99,0],[0.5,1,0],[0.28,0.99,0]];shape=mxgraph.kubernetes.icon2;prIcon=c_m" parent="1" vertex="1">
          <mxGeometry x="337" y="15" width="50" height="48" as="geometry" />
        </mxCell>
        <mxCell id="f_RbgCcwXJrIR1202kHq-18" value="Kubernetes&lt;div&gt;Controller&lt;/div&gt;" style="text;html=1;align=center;verticalAlign=middle;whiteSpace=wrap;rounded=0;" parent="1" vertex="1">
          <mxGeometry x="337" y="-12" width="60" height="30" as="geometry" />
        </mxCell>
        <mxCell id="f_RbgCcwXJrIR1202kHq-19" value="" style="endArrow=classic;startArrow=classic;html=1;rounded=0;exitX=0.5;exitY=0;exitDx=0;exitDy=0;exitPerimeter=0;entryX=0.5;entryY=1;entryDx=0;entryDy=0;" parent="1" source="f_RbgCcwXJrIR1202kHq-12" target="f_RbgCcwXJrIR1202kHq-16" edge="1">
          <mxGeometry width="50" height="50" relative="1" as="geometry">
            <mxPoint x="427" y="163" as="sourcePoint" />
            <mxPoint x="467" y="113" as="targetPoint" />
          </mxGeometry>
        </mxCell>
        <mxCell id="f_RbgCcwXJrIR1202kHq-20" value="&lt;b&gt;&lt;font style=&quot;font-size: 16px;&quot;&gt;Cloud&lt;/font&gt;&lt;/b&gt;" style="text;html=1;align=center;verticalAlign=middle;whiteSpace=wrap;rounded=0;" parent="1" vertex="1">
          <mxGeometry x="850" y="-150" width="60" height="30" as="geometry" />
        </mxCell>
        <mxCell id="f_RbgCcwXJrIR1202kHq-21" value="MLKOPS Application" style="text;html=1;align=center;verticalAlign=middle;whiteSpace=wrap;rounded=0;" parent="1" vertex="1">
          <mxGeometry x="522" y="-33" width="178" height="30" as="geometry" />
        </mxCell>
        <mxCell id="f_RbgCcwXJrIR1202kHq-22" value="" style="rounded=0;whiteSpace=wrap;html=1;" parent="1" vertex="1">
          <mxGeometry x="460" y="3" width="119" height="117" as="geometry" />
        </mxCell>
        <mxCell id="f_RbgCcwXJrIR1202kHq-23" value="" style="rounded=0;whiteSpace=wrap;html=1;" parent="1" vertex="1">
          <mxGeometry x="627" y="3" width="120" height="117" as="geometry" />
        </mxCell>
        <mxCell id="f_RbgCcwXJrIR1202kHq-24" value="" style="aspect=fixed;sketch=0;html=1;dashed=0;whitespace=wrap;verticalLabelPosition=bottom;verticalAlign=top;fillColor=#2875E2;strokeColor=#ffffff;points=[[0.005,0.63,0],[0.1,0.2,0],[0.9,0.2,0],[0.5,0,0],[0.995,0.63,0],[0.72,0.99,0],[0.5,1,0],[0.28,0.99,0]];shape=mxgraph.kubernetes.icon2;kubernetesLabel=1;prIcon=pod" parent="1" vertex="1">
          <mxGeometry x="697" y="71.40000000000003" width="50" height="48" as="geometry" />
        </mxCell>
        <mxCell id="f_RbgCcwXJrIR1202kHq-25" value="" style="aspect=fixed;sketch=0;html=1;dashed=0;whitespace=wrap;verticalLabelPosition=bottom;verticalAlign=top;fillColor=#2875E2;strokeColor=#ffffff;points=[[0.005,0.63,0],[0.1,0.2,0],[0.9,0.2,0],[0.5,0,0],[0.995,0.63,0],[0.72,0.99,0],[0.5,1,0],[0.28,0.99,0]];shape=mxgraph.kubernetes.icon2;kubernetesLabel=1;prIcon=pod" parent="1" vertex="1">
          <mxGeometry x="530" y="66.40000000000003" width="49" height="48" as="geometry" />
        </mxCell>
        <mxCell id="f_RbgCcwXJrIR1202kHq-26" value="MLKOPS&lt;br&gt;Sidecar&lt;br&gt;Proxy" style="text;html=1;align=center;verticalAlign=middle;whiteSpace=wrap;rounded=0;" parent="1" vertex="1">
          <mxGeometry x="657" y="8" width="60" height="42" as="geometry" />
        </mxCell>
        <mxCell id="f_RbgCcwXJrIR1202kHq-27" value="Anomaly Detection Application" style="text;html=1;align=center;verticalAlign=middle;whiteSpace=wrap;rounded=0;" parent="1" vertex="1">
          <mxGeometry x="471" y="10.399999999999977" width="87" height="30" as="geometry" />
        </mxCell>
        <mxCell id="f_RbgCcwXJrIR1202kHq-28" value="" style="endArrow=classic;startArrow=classic;html=1;rounded=0;exitX=1;exitY=0.5;exitDx=0;exitDy=0;entryX=0;entryY=0.5;entryDx=0;entryDy=0;" parent="1" source="f_RbgCcwXJrIR1202kHq-22" target="f_RbgCcwXJrIR1202kHq-23" edge="1">
          <mxGeometry width="50" height="50" relative="1" as="geometry">
            <mxPoint x="640" y="90" as="sourcePoint" />
            <mxPoint x="610" y="60" as="targetPoint" />
          </mxGeometry>
        </mxCell>
        <mxCell id="f_RbgCcwXJrIR1202kHq-29" value="" style="endArrow=classic;html=1;rounded=0;exitX=0.25;exitY=0;exitDx=0;exitDy=0;entryX=1;entryY=0.75;entryDx=0;entryDy=0;" parent="1" source="x01qkzPRPjTBjPTjkm45-3" target="x01qkzPRPjTBjPTjkm45-15" edge="1">
          <mxGeometry width="50" height="50" relative="1" as="geometry">
            <mxPoint x="680" y="484" as="sourcePoint" />
            <mxPoint x="730" y="434" as="targetPoint" />
            <Array as="points">
              <mxPoint x="530" y="414" />
            </Array>
          </mxGeometry>
        </mxCell>
        <mxCell id="f_RbgCcwXJrIR1202kHq-30" value="" style="endArrow=classic;html=1;rounded=0;exitX=1;exitY=0.25;exitDx=0;exitDy=0;entryX=0.5;entryY=0;entryDx=0;entryDy=0;" parent="1" source="x01qkzPRPjTBjPTjkm45-15" target="f_RbgCcwXJrIR1202kHq-2" edge="1">
          <mxGeometry width="50" height="50" relative="1" as="geometry">
            <mxPoint x="680" y="484" as="sourcePoint" />
            <mxPoint x="730" y="434" as="targetPoint" />
            <Array as="points">
              <mxPoint x="687" y="377" />
            </Array>
          </mxGeometry>
        </mxCell>
        <mxCell id="f_RbgCcwXJrIR1202kHq-31" value="" style="aspect=fixed;sketch=0;html=1;dashed=0;whitespace=wrap;verticalLabelPosition=bottom;verticalAlign=top;fillColor=#2875E2;strokeColor=#ffffff;points=[[0.005,0.63,0],[0.1,0.2,0],[0.9,0.2,0],[0.5,0,0],[0.995,0.63,0],[0.72,0.99,0],[0.5,1,0],[0.28,0.99,0]];shape=mxgraph.kubernetes.icon2;prIcon=c_m" parent="1" vertex="1">
          <mxGeometry x="342" y="386" width="50" height="48" as="geometry" />
        </mxCell>
        <mxCell id="f_RbgCcwXJrIR1202kHq-32" value="&lt;span style=&quot;color: rgb(0, 0, 0); font-family: Helvetica; font-size: 12px; font-style: normal; font-variant-ligatures: normal; font-variant-caps: normal; font-weight: 400; letter-spacing: normal; orphans: 2; text-align: center; text-indent: 0px; text-transform: none; widows: 2; word-spacing: 0px; -webkit-text-stroke-width: 0px; white-space: normal; background-color: rgb(251, 251, 251); text-decoration-thickness: initial; text-decoration-style: initial; text-decoration-color: initial; display: inline !important; float: none;&quot;&gt;MLKOPS Controller&lt;/span&gt;" style="text;whiteSpace=wrap;html=1;" parent="1" vertex="1">
          <mxGeometry x="338" y="354" width="58" height="40" as="geometry" />
        </mxCell>
        <mxCell id="f_RbgCcwXJrIR1202kHq-33" value="" style="rounded=0;whiteSpace=wrap;html=1;" parent="1" vertex="1">
          <mxGeometry x="307" y="-124" width="120" height="80" as="geometry" />
        </mxCell>
        <mxCell id="f_RbgCcwXJrIR1202kHq-34" value="" style="aspect=fixed;sketch=0;html=1;dashed=0;whitespace=wrap;verticalLabelPosition=bottom;verticalAlign=top;fillColor=#2875E2;strokeColor=#ffffff;points=[[0.005,0.63,0],[0.1,0.2,0],[0.9,0.2,0],[0.5,0,0],[0.995,0.63,0],[0.72,0.99,0],[0.5,1,0],[0.28,0.99,0]];shape=mxgraph.kubernetes.icon2;prIcon=c_m" parent="1" vertex="1">
          <mxGeometry x="339" y="-92" width="50" height="48" as="geometry" />
        </mxCell>
        <mxCell id="f_RbgCcwXJrIR1202kHq-35" value="&lt;span style=&quot;color: rgb(0, 0, 0); font-family: Helvetica; font-size: 12px; font-style: normal; font-variant-ligatures: normal; font-variant-caps: normal; font-weight: 400; letter-spacing: normal; orphans: 2; text-align: center; text-indent: 0px; text-transform: none; widows: 2; word-spacing: 0px; -webkit-text-stroke-width: 0px; white-space: normal; background-color: rgb(251, 251, 251); text-decoration-thickness: initial; text-decoration-style: initial; text-decoration-color: initial; display: inline !important; float: none;&quot;&gt;MLKOPS Controller&lt;/span&gt;" style="text;whiteSpace=wrap;html=1;" parent="1" vertex="1">
          <mxGeometry x="335" y="-124" width="58" height="40" as="geometry" />
        </mxCell>
        <mxCell id="f_RbgCcwXJrIR1202kHq-36" value="" style="endArrow=classic;startArrow=classic;html=1;rounded=0;entryX=0;entryY=0.5;entryDx=0;entryDy=0;exitX=0;exitY=0.5;exitDx=0;exitDy=0;fillColor=#fff2cc;strokeColor=#d6b656;strokeWidth=3;" parent="1" source="x01qkzPRPjTBjPTjkm45-15" target="f_RbgCcwXJrIR1202kHq-33" edge="1">
          <mxGeometry width="50" height="50" relative="1" as="geometry">
            <mxPoint x="390" y="110" as="sourcePoint" />
            <mxPoint x="440" y="60" as="targetPoint" />
            <Array as="points">
              <mxPoint x="250" y="394" />
              <mxPoint x="250" y="-84" />
            </Array>
          </mxGeometry>
        </mxCell>
        <mxCell id="f_RbgCcwXJrIR1202kHq-58" value="Ingress/Egress Gateway" style="rounded=1;whiteSpace=wrap;html=1;" parent="1" vertex="1">
          <mxGeometry x="668.5" y="180" width="330" height="60" as="geometry" />
        </mxCell>
        <mxCell id="f_RbgCcwXJrIR1202kHq-82" value="Ingress/Egress Gateway" style="rounded=1;whiteSpace=wrap;html=1;" parent="1" vertex="1">
          <mxGeometry x="607" y="304" width="160" height="60" as="geometry" />
        </mxCell>
        <mxCell id="f_RbgCcwXJrIR1202kHq-85" value="" style="endArrow=classic;startArrow=classic;html=1;rounded=0;exitX=0.75;exitY=0;exitDx=0;exitDy=0;entryX=0.25;entryY=1;entryDx=0;entryDy=0;strokeWidth=3;fillColor=#f8cecc;strokeColor=#b85450;" parent="1" source="f_RbgCcwXJrIR1202kHq-82" target="f_RbgCcwXJrIR1202kHq-58" edge="1">
          <mxGeometry width="50" height="50" relative="1" as="geometry">
            <mxPoint x="850" y="460" as="sourcePoint" />
            <mxPoint x="900" y="410" as="targetPoint" />
          </mxGeometry>
        </mxCell>
        <mxCell id="f_RbgCcwXJrIR1202kHq-86" value="" style="endArrow=classic;startArrow=classic;html=1;rounded=0;exitX=0.25;exitY=0;exitDx=0;exitDy=0;entryX=0.75;entryY=1;entryDx=0;entryDy=0;strokeWidth=3;fillColor=#f8cecc;strokeColor=#b85450;" parent="1" target="f_RbgCcwXJrIR1202kHq-58" edge="1">
          <mxGeometry width="50" height="50" relative="1" as="geometry">
            <mxPoint x="951" y="300" as="sourcePoint" />
            <mxPoint x="868" y="250" as="targetPoint" />
          </mxGeometry>
        </mxCell>
        <mxCell id="f_RbgCcwXJrIR1202kHq-87" value="" style="endArrow=classic;startArrow=classic;html=1;rounded=0;exitX=0.85;exitY=-0.024;exitDx=0;exitDy=0;entryX=0.75;entryY=1;entryDx=0;entryDy=0;fillColor=#f8cecc;strokeColor=#b85450;strokeWidth=3;exitPerimeter=0;" parent="1" source="f_RbgCcwXJrIR1202kHq-2" target="f_RbgCcwXJrIR1202kHq-82" edge="1">
          <mxGeometry width="50" height="50" relative="1" as="geometry">
            <mxPoint x="870" y="306.5" as="sourcePoint" />
            <mxPoint x="920" y="256.5" as="targetPoint" />
          </mxGeometry>
        </mxCell>
        <mxCell id="f_RbgCcwXJrIR1202kHq-90" value="" style="endArrow=classic;html=1;rounded=0;entryX=0.5;entryY=1;entryDx=0;entryDy=0;strokeWidth=3;fillColor=#f8cecc;strokeColor=#b85450;" parent="1" target="f_RbgCcwXJrIR1202kHq-23" edge="1">
          <mxGeometry width="50" height="50" relative="1" as="geometry">
            <mxPoint x="900" y="160" as="sourcePoint" />
            <mxPoint x="840" y="80" as="targetPoint" />
            <Array as="points">
              <mxPoint x="687" y="160" />
            </Array>
          </mxGeometry>
        </mxCell>
        <mxCell id="EF30EOmgKCJScrPARlns-1" value="" style="endArrow=classic;startArrow=classic;html=1;rounded=0;exitX=0.5;exitY=1;exitDx=0;exitDy=0;entryX=0.5;entryY=0;entryDx=0;entryDy=0;" parent="1" source="x01qkzPRPjTBjPTjkm45-15" target="x01qkzPRPjTBjPTjkm45-18" edge="1">
          <mxGeometry width="50" height="50" relative="1" as="geometry">
            <mxPoint x="620" y="506.5" as="sourcePoint" />
            <mxPoint x="670" y="456.5" as="targetPoint" />
          </mxGeometry>
        </mxCell>
        <mxCell id="EF30EOmgKCJScrPARlns-2" value="" style="endArrow=classic;startArrow=classic;html=1;rounded=0;entryX=0;entryY=0.75;entryDx=0;entryDy=0;exitX=0;exitY=0.5;exitDx=0;exitDy=0;exitPerimeter=0;" parent="1" source="x01qkzPRPjTBjPTjkm45-4" target="x01qkzPRPjTBjPTjkm45-15" edge="1">
          <mxGeometry width="50" height="50" relative="1" as="geometry">
            <mxPoint x="620" y="506.5" as="sourcePoint" />
            <mxPoint x="670" y="456.5" as="targetPoint" />
            <Array as="points">
              <mxPoint x="290" y="626.5" />
              <mxPoint x="290" y="416.5" />
            </Array>
          </mxGeometry>
        </mxCell>
        <mxCell id="EF30EOmgKCJScrPARlns-7" value="" style="rounded=0;whiteSpace=wrap;html=1;" parent="1" vertex="1">
          <mxGeometry x="770" y="-30" width="293" height="162.8" as="geometry" />
        </mxCell>
        <mxCell id="EF30EOmgKCJScrPARlns-8" value="MLKOPS Application" style="text;html=1;align=center;verticalAlign=middle;whiteSpace=wrap;rounded=0;" parent="1" vertex="1">
          <mxGeometry x="835" y="-33" width="178" height="30" as="geometry" />
        </mxCell>
        <mxCell id="EF30EOmgKCJScrPARlns-9" value="" style="rounded=0;whiteSpace=wrap;html=1;" parent="1" vertex="1">
          <mxGeometry x="773" y="3" width="119" height="117" as="geometry" />
        </mxCell>
        <mxCell id="EF30EOmgKCJScrPARlns-10" value="" style="rounded=0;whiteSpace=wrap;html=1;" parent="1" vertex="1">
          <mxGeometry x="940" y="3" width="120" height="117" as="geometry" />
        </mxCell>
        <mxCell id="EF30EOmgKCJScrPARlns-11" value="" style="aspect=fixed;sketch=0;html=1;dashed=0;whitespace=wrap;verticalLabelPosition=bottom;verticalAlign=top;fillColor=#2875E2;strokeColor=#ffffff;points=[[0.005,0.63,0],[0.1,0.2,0],[0.9,0.2,0],[0.5,0,0],[0.995,0.63,0],[0.72,0.99,0],[0.5,1,0],[0.28,0.99,0]];shape=mxgraph.kubernetes.icon2;kubernetesLabel=1;prIcon=pod" parent="1" vertex="1">
          <mxGeometry x="1010" y="71.40000000000003" width="50" height="48" as="geometry" />
        </mxCell>
        <mxCell id="EF30EOmgKCJScrPARlns-12" value="" style="aspect=fixed;sketch=0;html=1;dashed=0;whitespace=wrap;verticalLabelPosition=bottom;verticalAlign=top;fillColor=#2875E2;strokeColor=#ffffff;points=[[0.005,0.63,0],[0.1,0.2,0],[0.9,0.2,0],[0.5,0,0],[0.995,0.63,0],[0.72,0.99,0],[0.5,1,0],[0.28,0.99,0]];shape=mxgraph.kubernetes.icon2;kubernetesLabel=1;prIcon=pod" parent="1" vertex="1">
          <mxGeometry x="843" y="66.40000000000003" width="49" height="48" as="geometry" />
        </mxCell>
        <mxCell id="EF30EOmgKCJScrPARlns-13" value="MLKOPS&lt;br&gt;Sidecar&lt;br&gt;Proxy" style="text;html=1;align=center;verticalAlign=middle;whiteSpace=wrap;rounded=0;" parent="1" vertex="1">
          <mxGeometry x="970" y="8" width="60" height="42" as="geometry" />
        </mxCell>
        <mxCell id="EF30EOmgKCJScrPARlns-14" value="Anomaly Detection Application" style="text;html=1;align=center;verticalAlign=middle;whiteSpace=wrap;rounded=0;" parent="1" vertex="1">
          <mxGeometry x="784" y="10.399999999999977" width="87" height="30" as="geometry" />
        </mxCell>
        <mxCell id="EF30EOmgKCJScrPARlns-15" value="" style="endArrow=classic;startArrow=classic;html=1;rounded=0;exitX=1;exitY=0.5;exitDx=0;exitDy=0;entryX=0;entryY=0.5;entryDx=0;entryDy=0;" parent="1" source="EF30EOmgKCJScrPARlns-9" target="EF30EOmgKCJScrPARlns-10" edge="1">
          <mxGeometry width="50" height="50" relative="1" as="geometry">
            <mxPoint x="953" y="90" as="sourcePoint" />
            <mxPoint x="923" y="60" as="targetPoint" />
          </mxGeometry>
        </mxCell>
        <mxCell id="EF30EOmgKCJScrPARlns-17" value="" style="endArrow=classic;html=1;rounded=0;entryX=0.5;entryY=1;entryDx=0;entryDy=0;strokeWidth=3;fillColor=#f8cecc;strokeColor=#b85450;" parent="1" edge="1">
          <mxGeometry width="50" height="50" relative="1" as="geometry">
            <mxPoint x="1353" y="158" as="sourcePoint" />
            <mxPoint x="1353" y="118.00000000000023" as="targetPoint" />
          </mxGeometry>
        </mxCell>
        <mxCell id="f_RbgCcwXJrIR1202kHq-91" value="" style="endArrow=classic;html=1;rounded=0;entryX=0.5;entryY=1;entryDx=0;entryDy=0;strokeWidth=3;fillColor=#f8cecc;strokeColor=#b85450;" parent="1" edge="1">
          <mxGeometry width="50" height="50" relative="1" as="geometry">
            <mxPoint x="1020" y="160" as="sourcePoint" />
            <mxPoint x="1020" y="120.00000000000023" as="targetPoint" />
          </mxGeometry>
        </mxCell>
        <mxCell id="EF30EOmgKCJScrPARlns-19" value="" style="rounded=0;whiteSpace=wrap;html=1;" parent="1" vertex="1">
          <mxGeometry x="1080" y="-28.5" width="293" height="162.8" as="geometry" />
        </mxCell>
        <mxCell id="EF30EOmgKCJScrPARlns-20" value="MLKOPS Application" style="text;html=1;align=center;verticalAlign=middle;whiteSpace=wrap;rounded=0;" parent="1" vertex="1">
          <mxGeometry x="1145" y="-31.5" width="178" height="30" as="geometry" />
        </mxCell>
        <mxCell id="EF30EOmgKCJScrPARlns-21" value="" style="rounded=0;whiteSpace=wrap;html=1;" parent="1" vertex="1">
          <mxGeometry x="1083" y="4.5" width="119" height="117" as="geometry" />
        </mxCell>
        <mxCell id="EF30EOmgKCJScrPARlns-22" value="" style="rounded=0;whiteSpace=wrap;html=1;" parent="1" vertex="1">
          <mxGeometry x="1250" y="4.5" width="120" height="117" as="geometry" />
        </mxCell>
        <mxCell id="EF30EOmgKCJScrPARlns-23" value="" style="aspect=fixed;sketch=0;html=1;dashed=0;whitespace=wrap;verticalLabelPosition=bottom;verticalAlign=top;fillColor=#2875E2;strokeColor=#ffffff;points=[[0.005,0.63,0],[0.1,0.2,0],[0.9,0.2,0],[0.5,0,0],[0.995,0.63,0],[0.72,0.99,0],[0.5,1,0],[0.28,0.99,0]];shape=mxgraph.kubernetes.icon2;kubernetesLabel=1;prIcon=pod" parent="1" vertex="1">
          <mxGeometry x="1320" y="72.90000000000003" width="50" height="48" as="geometry" />
        </mxCell>
        <mxCell id="EF30EOmgKCJScrPARlns-24" value="" style="aspect=fixed;sketch=0;html=1;dashed=0;whitespace=wrap;verticalLabelPosition=bottom;verticalAlign=top;fillColor=#2875E2;strokeColor=#ffffff;points=[[0.005,0.63,0],[0.1,0.2,0],[0.9,0.2,0],[0.5,0,0],[0.995,0.63,0],[0.72,0.99,0],[0.5,1,0],[0.28,0.99,0]];shape=mxgraph.kubernetes.icon2;kubernetesLabel=1;prIcon=pod" parent="1" vertex="1">
          <mxGeometry x="1153" y="67.90000000000003" width="49" height="48" as="geometry" />
        </mxCell>
        <mxCell id="EF30EOmgKCJScrPARlns-25" value="MLKOPS&lt;br&gt;Sidecar&lt;br&gt;Proxy" style="text;html=1;align=center;verticalAlign=middle;whiteSpace=wrap;rounded=0;" parent="1" vertex="1">
          <mxGeometry x="1280" y="9.5" width="60" height="42" as="geometry" />
        </mxCell>
        <mxCell id="EF30EOmgKCJScrPARlns-26" value="Anomaly Detection Application" style="text;html=1;align=center;verticalAlign=middle;whiteSpace=wrap;rounded=0;" parent="1" vertex="1">
          <mxGeometry x="1094" y="11.899999999999977" width="87" height="30" as="geometry" />
        </mxCell>
        <mxCell id="EF30EOmgKCJScrPARlns-27" value="" style="endArrow=classic;startArrow=classic;html=1;rounded=0;exitX=1;exitY=0.5;exitDx=0;exitDy=0;entryX=0;entryY=0.5;entryDx=0;entryDy=0;" parent="1" source="EF30EOmgKCJScrPARlns-21" target="EF30EOmgKCJScrPARlns-22" edge="1">
          <mxGeometry width="50" height="50" relative="1" as="geometry">
            <mxPoint x="1263" y="91.5" as="sourcePoint" />
            <mxPoint x="1233" y="61.5" as="targetPoint" />
          </mxGeometry>
        </mxCell>
        <mxCell id="f_RbgCcwXJrIR1202kHq-88" value="" style="endArrow=classic;startArrow=classic;html=1;rounded=0;exitX=0.5;exitY=0;exitDx=0;exitDy=0;entryX=0.5;entryY=1;entryDx=0;entryDy=0;fillColor=#f8cecc;strokeColor=#b85450;strokeWidth=3;" parent="1" source="f_RbgCcwXJrIR1202kHq-58" edge="1">
          <mxGeometry width="50" height="50" relative="1" as="geometry">
            <mxPoint x="950" y="100" as="sourcePoint" />
            <mxPoint x="1354" y="120.00000000000023" as="targetPoint" />
            <Array as="points">
              <mxPoint x="834" y="160" />
              <mxPoint x="1354" y="160" />
            </Array>
          </mxGeometry>
        </mxCell>
        <mxCell id="EF30EOmgKCJScrPARlns-28" value="" style="endArrow=classic;startArrow=classic;html=1;rounded=0;exitX=0.5;exitY=1;exitDx=0;exitDy=0;entryX=0.5;entryY=0;entryDx=0;entryDy=0;" parent="1" source="f_RbgCcwXJrIR1202kHq-33" target="f_RbgCcwXJrIR1202kHq-16" edge="1">
          <mxGeometry width="50" height="50" relative="1" as="geometry">
            <mxPoint x="740" y="198" as="sourcePoint" />
            <mxPoint x="790" y="148" as="targetPoint" />
          </mxGeometry>
        </mxCell>
        <mxCell id="EF30EOmgKCJScrPARlns-29" value="" style="endArrow=classic;startArrow=classic;html=1;rounded=0;exitX=1;exitY=0.75;exitDx=0;exitDy=0;entryX=0;entryY=0.25;entryDx=0;entryDy=0;" parent="1" source="x01qkzPRPjTBjPTjkm45-18" target="x01qkzPRPjTBjPTjkm45-3" edge="1">
          <mxGeometry width="50" height="50" relative="1" as="geometry">
            <mxPoint x="850" y="304" as="sourcePoint" />
            <mxPoint x="900" y="254" as="targetPoint" />
          </mxGeometry>
        </mxCell>
        <mxCell id="HCr3pYGeTDL8dEYtXB8U-1" value="" style="endArrow=classic;html=1;rounded=0;exitX=1;exitY=0.25;exitDx=0;exitDy=0;entryX=0.75;entryY=0;entryDx=0;entryDy=0;dashed=1;" parent="1" edge="1">
          <mxGeometry width="50" height="50" relative="1" as="geometry">
            <mxPoint x="427" y="-103" as="sourcePoint" />
            <mxPoint x="1340" y="5.5" as="targetPoint" />
            <Array as="points">
              <mxPoint x="1340" y="-109" />
            </Array>
          </mxGeometry>
        </mxCell>
        <mxCell id="HCr3pYGeTDL8dEYtXB8U-2" value="" style="endArrow=classic;html=1;rounded=0;exitX=0.5;exitY=0;exitDx=0;exitDy=0;" parent="1" source="EF30EOmgKCJScrPARlns-22" target="f_RbgCcwXJrIR1202kHq-33" edge="1">
          <mxGeometry width="50" height="50" relative="1" as="geometry">
            <mxPoint x="870" y="110" as="sourcePoint" />
            <mxPoint x="920" y="60" as="targetPoint" />
            <Array as="points">
              <mxPoint x="1310" y="-84" />
            </Array>
          </mxGeometry>
        </mxCell>
        <mxCell id="HCr3pYGeTDL8dEYtXB8U-3" value="" style="endArrow=classic;html=1;rounded=0;entryX=0.75;entryY=0;entryDx=0;entryDy=0;dashed=1;" parent="1" target="EF30EOmgKCJScrPARlns-10" edge="1">
          <mxGeometry width="50" height="50" relative="1" as="geometry">
            <mxPoint x="1030" y="-100" as="sourcePoint" />
            <mxPoint x="1033" y="-110" as="targetPoint" />
          </mxGeometry>
        </mxCell>
        <mxCell id="HCr3pYGeTDL8dEYtXB8U-4" value="" style="endArrow=classic;html=1;rounded=0;entryX=0.75;entryY=0;entryDx=0;entryDy=0;dashed=1;" parent="1" edge="1">
          <mxGeometry width="50" height="50" relative="1" as="geometry">
            <mxPoint x="716.05" y="-98.5" as="sourcePoint" />
            <mxPoint x="716.05" y="4.5" as="targetPoint" />
          </mxGeometry>
        </mxCell>
        <mxCell id="HCr3pYGeTDL8dEYtXB8U-12" value="" style="endArrow=none;html=1;rounded=0;exitX=0.5;exitY=0;exitDx=0;exitDy=0;" parent="1" source="f_RbgCcwXJrIR1202kHq-23" edge="1">
          <mxGeometry width="50" height="50" relative="1" as="geometry">
            <mxPoint x="870" y="110" as="sourcePoint" />
            <mxPoint x="687" y="-80" as="targetPoint" />
          </mxGeometry>
        </mxCell>
        <mxCell id="HCr3pYGeTDL8dEYtXB8U-13" value="" style="endArrow=none;html=1;rounded=0;exitX=0.5;exitY=0;exitDx=0;exitDy=0;" parent="1" edge="1">
          <mxGeometry width="50" height="50" relative="1" as="geometry">
            <mxPoint x="1001" y="1" as="sourcePoint" />
            <mxPoint x="1001" y="-82" as="targetPoint" />
          </mxGeometry>
        </mxCell>
        <mxCell id="HCr3pYGeTDL8dEYtXB8U-14" value="" style="rounded=1;whiteSpace=wrap;html=1;shadow=0;direction=east;" parent="1" vertex="1">
          <mxGeometry x="892" y="326.4" width="493" height="355" as="geometry" />
        </mxCell>
        <mxCell id="HCr3pYGeTDL8dEYtXB8U-15" value="" style="rounded=0;whiteSpace=wrap;html=1;shadow=0;direction=east;" parent="1" vertex="1">
          <mxGeometry x="903" y="484.79999999999995" width="293" height="172.8" as="geometry" />
        </mxCell>
        <mxCell id="HCr3pYGeTDL8dEYtXB8U-16" value="" style="shape=cylinder3;whiteSpace=wrap;html=1;boundedLbl=1;backgroundOutline=1;size=15;shadow=0;direction=east;" parent="1" vertex="1">
          <mxGeometry x="1261" y="558.5" width="60" height="110" as="geometry" />
        </mxCell>
        <mxCell id="HCr3pYGeTDL8dEYtXB8U-17" value="ETCD" style="text;html=1;align=center;verticalAlign=middle;whiteSpace=wrap;rounded=0;shadow=0;direction=east;" parent="1" vertex="1">
          <mxGeometry x="1262" y="581.5" width="60" height="30" as="geometry" />
        </mxCell>
        <mxCell id="HCr3pYGeTDL8dEYtXB8U-18" value="" style="aspect=fixed;html=1;dashed=0;whitespace=wrap;verticalLabelPosition=bottom;verticalAlign=top;fillColor=#2875E2;strokeColor=#ffffff;points=[[0.005,0.63,0],[0.1,0.2,0],[0.9,0.2,0],[0.5,0,0],[0.995,0.63,0],[0.72,0.99,0],[0.5,1,0],[0.28,0.99,0]];shape=mxgraph.kubernetes.icon2;prIcon=etcd;shadow=0;direction=east;" parent="1" vertex="1">
          <mxGeometry x="1270" y="618.5" width="40" height="38.4" as="geometry" />
        </mxCell>
        <mxCell id="HCr3pYGeTDL8dEYtXB8U-19" value="" style="rounded=0;whiteSpace=wrap;html=1;shadow=0;direction=east;" parent="1" vertex="1">
          <mxGeometry x="1231" y="341.09999999999997" width="120" height="80" as="geometry" />
        </mxCell>
        <mxCell id="HCr3pYGeTDL8dEYtXB8U-20" value="" style="rounded=0;whiteSpace=wrap;html=1;shadow=0;direction=east;" parent="1" vertex="1">
          <mxGeometry x="1231" y="449.09999999999997" width="120" height="80" as="geometry" />
        </mxCell>
        <mxCell id="HCr3pYGeTDL8dEYtXB8U-21" value="" style="aspect=fixed;html=1;dashed=0;whitespace=wrap;verticalLabelPosition=bottom;verticalAlign=top;fillColor=#2875E2;strokeColor=#ffffff;points=[[0.005,0.63,0],[0.1,0.2,0],[0.9,0.2,0],[0.5,0,0],[0.995,0.63,0],[0.72,0.99,0],[0.5,1,0],[0.28,0.99,0]];shape=mxgraph.kubernetes.icon2;prIcon=c_m;shadow=0;direction=east;" parent="1" vertex="1">
          <mxGeometry x="1263" y="478.59999999999997" width="50" height="48" as="geometry" />
        </mxCell>
        <mxCell id="HCr3pYGeTDL8dEYtXB8U-22" value="Kubernetes&lt;div&gt;Controller&lt;/div&gt;" style="text;html=1;align=center;verticalAlign=middle;whiteSpace=wrap;rounded=0;shadow=0;direction=east;" parent="1" vertex="1">
          <mxGeometry x="1258" y="452.09999999999997" width="60" height="30" as="geometry" />
        </mxCell>
        <mxCell id="HCr3pYGeTDL8dEYtXB8U-23" value="" style="endArrow=classic;startArrow=classic;html=1;rounded=0;exitX=0.5;exitY=0;exitDx=0;exitDy=0;entryX=0.5;entryY=1;entryDx=0;entryDy=0;shadow=0;exitPerimeter=0;" parent="1" source="HCr3pYGeTDL8dEYtXB8U-16" target="HCr3pYGeTDL8dEYtXB8U-20" edge="1">
          <mxGeometry width="50" height="50" relative="1" as="geometry">
            <mxPoint x="1348" y="626.1" as="sourcePoint" />
            <mxPoint x="1388" y="576.1" as="targetPoint" />
          </mxGeometry>
        </mxCell>
        <mxCell id="HCr3pYGeTDL8dEYtXB8U-24" value="&lt;b&gt;&lt;font style=&quot;font-size: 16px;&quot;&gt;Edge 2&lt;/font&gt;&lt;/b&gt;" style="text;html=1;align=center;verticalAlign=middle;whiteSpace=wrap;rounded=0;shadow=0;direction=east;" parent="1" vertex="1">
          <mxGeometry x="1133" y="651.4" width="60" height="30" as="geometry" />
        </mxCell>
        <mxCell id="HCr3pYGeTDL8dEYtXB8U-25" value="MLKOPS Application" style="text;html=1;align=center;verticalAlign=middle;whiteSpace=wrap;rounded=0;shadow=0;direction=east;" parent="1" vertex="1">
          <mxGeometry x="968" y="489.79999999999995" width="178" height="30" as="geometry" />
        </mxCell>
        <mxCell id="HCr3pYGeTDL8dEYtXB8U-26" value="" style="rounded=0;whiteSpace=wrap;html=1;shadow=0;direction=east;" parent="1" vertex="1">
          <mxGeometry x="906" y="527.8" width="119" height="117" as="geometry" />
        </mxCell>
        <mxCell id="HCr3pYGeTDL8dEYtXB8U-27" value="" style="rounded=0;whiteSpace=wrap;html=1;shadow=0;direction=east;" parent="1" vertex="1">
          <mxGeometry x="1073" y="527.8" width="120" height="117" as="geometry" />
        </mxCell>
        <mxCell id="HCr3pYGeTDL8dEYtXB8U-28" value="" style="aspect=fixed;html=1;dashed=0;whitespace=wrap;verticalLabelPosition=bottom;verticalAlign=top;fillColor=#2875E2;strokeColor=#ffffff;points=[[0.005,0.63,0],[0.1,0.2,0],[0.9,0.2,0],[0.5,0,0],[0.995,0.63,0],[0.72,0.99,0],[0.5,1,0],[0.28,0.99,0]];shape=mxgraph.kubernetes.icon2;kubernetesLabel=1;prIcon=pod;shadow=0;direction=east;" parent="1" vertex="1">
          <mxGeometry x="1143" y="596.2" width="50" height="48" as="geometry" />
        </mxCell>
        <mxCell id="HCr3pYGeTDL8dEYtXB8U-29" value="" style="aspect=fixed;html=1;dashed=0;whitespace=wrap;verticalLabelPosition=bottom;verticalAlign=top;fillColor=#2875E2;strokeColor=#ffffff;points=[[0.005,0.63,0],[0.1,0.2,0],[0.9,0.2,0],[0.5,0,0],[0.995,0.63,0],[0.72,0.99,0],[0.5,1,0],[0.28,0.99,0]];shape=mxgraph.kubernetes.icon2;kubernetesLabel=1;prIcon=pod;shadow=0;direction=east;" parent="1" vertex="1">
          <mxGeometry x="976" y="591.2" width="49" height="48" as="geometry" />
        </mxCell>
        <mxCell id="HCr3pYGeTDL8dEYtXB8U-30" value="MLKOPS&lt;br&gt;Sidecar&lt;br&gt;Proxy" style="text;html=1;align=center;verticalAlign=middle;whiteSpace=wrap;rounded=0;shadow=0;direction=east;" parent="1" vertex="1">
          <mxGeometry x="1103" y="532.8" width="60" height="44.5" as="geometry" />
        </mxCell>
        <mxCell id="HCr3pYGeTDL8dEYtXB8U-31" value="Anomaly Detection Application" style="text;html=1;align=center;verticalAlign=middle;whiteSpace=wrap;rounded=0;shadow=0;direction=east;" parent="1" vertex="1">
          <mxGeometry x="917" y="535.1999999999999" width="87" height="30" as="geometry" />
        </mxCell>
        <mxCell id="HCr3pYGeTDL8dEYtXB8U-32" value="" style="endArrow=classic;startArrow=classic;html=1;rounded=0;exitX=1;exitY=0.5;exitDx=0;exitDy=0;entryX=0;entryY=0.5;entryDx=0;entryDy=0;shadow=0;" parent="1" source="HCr3pYGeTDL8dEYtXB8U-26" target="HCr3pYGeTDL8dEYtXB8U-27" edge="1">
          <mxGeometry width="50" height="50" relative="1" as="geometry">
            <mxPoint x="1086" y="614.8" as="sourcePoint" />
            <mxPoint x="1056" y="584.8" as="targetPoint" />
          </mxGeometry>
        </mxCell>
        <mxCell id="HCr3pYGeTDL8dEYtXB8U-33" value="" style="endArrow=classic;html=1;rounded=0;exitX=0.25;exitY=0;exitDx=0;exitDy=0;shadow=0;entryX=0;entryY=0.75;entryDx=0;entryDy=0;" parent="1" source="HCr3pYGeTDL8dEYtXB8U-15" target="HCr3pYGeTDL8dEYtXB8U-19" edge="1">
          <mxGeometry width="50" height="50" relative="1" as="geometry">
            <mxPoint x="1126" y="489.79999999999995" as="sourcePoint" />
            <mxPoint x="1261" y="427.4" as="targetPoint" />
            <Array as="points">
              <mxPoint x="976" y="401.4" />
            </Array>
          </mxGeometry>
        </mxCell>
        <mxCell id="HCr3pYGeTDL8dEYtXB8U-34" value="" style="endArrow=classic;html=1;rounded=0;entryX=0.5;entryY=0;entryDx=0;entryDy=0;shadow=0;exitX=0;exitY=0.25;exitDx=0;exitDy=0;" parent="1" source="HCr3pYGeTDL8dEYtXB8U-19" target="HCr3pYGeTDL8dEYtXB8U-27" edge="1">
          <mxGeometry width="50" height="50" relative="1" as="geometry">
            <mxPoint x="1261" y="383.4" as="sourcePoint" />
            <mxPoint x="1176" y="439.79999999999995" as="targetPoint" />
            <Array as="points">
              <mxPoint x="1131" y="363.4" />
            </Array>
          </mxGeometry>
        </mxCell>
        <mxCell id="HCr3pYGeTDL8dEYtXB8U-35" value="" style="aspect=fixed;html=1;dashed=0;whitespace=wrap;verticalLabelPosition=bottom;verticalAlign=top;fillColor=#2875E2;strokeColor=#ffffff;points=[[0.005,0.63,0],[0.1,0.2,0],[0.9,0.2,0],[0.5,0,0],[0.995,0.63,0],[0.72,0.99,0],[0.5,1,0],[0.28,0.99,0]];shape=mxgraph.kubernetes.icon2;prIcon=c_m;shadow=0;direction=east;" parent="1" vertex="1">
          <mxGeometry x="1263" y="373.09999999999997" width="50" height="48" as="geometry" />
        </mxCell>
        <mxCell id="HCr3pYGeTDL8dEYtXB8U-36" value="&lt;span style=&quot;color: rgb(0, 0, 0); font-family: Helvetica; font-size: 12px; font-style: normal; font-variant-ligatures: normal; font-variant-caps: normal; font-weight: 400; letter-spacing: normal; orphans: 2; text-align: center; text-indent: 0px; text-transform: none; widows: 2; word-spacing: 0px; -webkit-text-stroke-width: 0px; white-space: normal; background-color: rgb(251, 251, 251); text-decoration-thickness: initial; text-decoration-style: initial; text-decoration-color: initial; display: inline !important; float: none;&quot;&gt;MLKOPS Controller&lt;/span&gt;" style="text;whiteSpace=wrap;html=1;shadow=0;direction=east;" parent="1" vertex="1">
          <mxGeometry x="1259" y="341.09999999999997" width="58" height="40" as="geometry" />
        </mxCell>
        <mxCell id="HCr3pYGeTDL8dEYtXB8U-37" value="Ingress/Egress Gateway" style="rounded=1;whiteSpace=wrap;html=1;shadow=0;direction=east;" parent="1" vertex="1">
          <mxGeometry x="903" y="299.4" width="160" height="60" as="geometry" />
        </mxCell>
        <mxCell id="HCr3pYGeTDL8dEYtXB8U-38" value="" style="endArrow=classic;startArrow=classic;html=1;rounded=0;exitX=0.85;exitY=-0.024;exitDx=0;exitDy=0;entryX=0.75;entryY=1;entryDx=0;entryDy=0;fillColor=#f8cecc;strokeColor=#b85450;strokeWidth=3;shadow=0;exitPerimeter=0;" parent="1" source="HCr3pYGeTDL8dEYtXB8U-27" target="HCr3pYGeTDL8dEYtXB8U-37" edge="1">
          <mxGeometry width="50" height="50" relative="1" as="geometry">
            <mxPoint x="1316" y="312.29999999999995" as="sourcePoint" />
            <mxPoint x="1173" y="369.79999999999995" as="targetPoint" />
          </mxGeometry>
        </mxCell>
        <mxCell id="HCr3pYGeTDL8dEYtXB8U-39" value="" style="endArrow=classic;startArrow=classic;html=1;rounded=0;exitX=0.5;exitY=1;exitDx=0;exitDy=0;entryX=0.5;entryY=0;entryDx=0;entryDy=0;shadow=0;" parent="1" source="HCr3pYGeTDL8dEYtXB8U-19" target="HCr3pYGeTDL8dEYtXB8U-20" edge="1">
          <mxGeometry width="50" height="50" relative="1" as="geometry">
            <mxPoint x="1541" y="493.6" as="sourcePoint" />
            <mxPoint x="1591" y="443.59999999999997" as="targetPoint" />
          </mxGeometry>
        </mxCell>
        <mxCell id="HCr3pYGeTDL8dEYtXB8U-40" value="" style="endArrow=classic;startArrow=classic;html=1;rounded=0;entryX=1;entryY=0.75;entryDx=0;entryDy=0;exitX=1;exitY=0.5;exitDx=0;exitDy=0;shadow=0;exitPerimeter=0;" parent="1" source="HCr3pYGeTDL8dEYtXB8U-16" target="HCr3pYGeTDL8dEYtXB8U-19" edge="1">
          <mxGeometry width="50" height="50" relative="1" as="geometry">
            <mxPoint x="1552" y="493.6" as="sourcePoint" />
            <mxPoint x="1602" y="443.59999999999997" as="targetPoint" />
            <Array as="points">
              <mxPoint x="1371" y="613.4" />
              <mxPoint x="1371" y="403.4" />
            </Array>
          </mxGeometry>
        </mxCell>
        <mxCell id="HCr3pYGeTDL8dEYtXB8U-41" value="" style="endArrow=classic;startArrow=classic;html=1;rounded=0;exitX=0;exitY=0.75;exitDx=0;exitDy=0;entryX=1;entryY=0.25;entryDx=0;entryDy=0;shadow=0;" parent="1" source="HCr3pYGeTDL8dEYtXB8U-20" target="HCr3pYGeTDL8dEYtXB8U-15" edge="1">
          <mxGeometry width="50" height="50" relative="1" as="geometry">
            <mxPoint x="1296" y="309.79999999999995" as="sourcePoint" />
            <mxPoint x="1346" y="259.79999999999995" as="targetPoint" />
          </mxGeometry>
        </mxCell>
      </root>
    </mxGraphModel>
  </diagram>
  <diagram id="k40uujJeXGSOIWzxmhFG" name="Pagina-3">
    <mxGraphModel dx="1278" dy="2018" grid="1" gridSize="10" guides="1" tooltips="1" connect="1" arrows="1" fold="1" page="1" pageScale="1" pageWidth="827" pageHeight="1169" math="0" shadow="0">
      <root>
        <mxCell id="0" />
        <mxCell id="1" parent="0" />
        <mxCell id="8lUe4tizyEMZ4WDg3sNl-1" value="" style="rounded=1;whiteSpace=wrap;html=1;fontFamily=Computer Modern Serif;fontSource=https%3A%2F%2Fcdn.jsdelivr.net%2Fgh%2Fbitmaks%2Fcm-web-fonts%40latest%2Ffonts.css;" parent="1" vertex="1">
          <mxGeometry x="277" y="334" width="493" height="355" as="geometry" />
        </mxCell>
        <mxCell id="8lUe4tizyEMZ4WDg3sNl-2" value="" style="rounded=0;whiteSpace=wrap;html=1;fontFamily=Computer Modern Serif;fontSource=https%3A%2F%2Fcdn.jsdelivr.net%2Fgh%2Fbitmaks%2Fcm-web-fonts%40latest%2Ffonts.css;" parent="1" vertex="1">
          <mxGeometry x="457" y="479" width="293" height="172.8" as="geometry" />
        </mxCell>
        <mxCell id="8lUe4tizyEMZ4WDg3sNl-3" value="" style="shape=cylinder3;whiteSpace=wrap;html=1;boundedLbl=1;backgroundOutline=1;size=15;fontFamily=Computer Modern Serif;fontSource=https%3A%2F%2Fcdn.jsdelivr.net%2Fgh%2Fbitmaks%2Fcm-web-fonts%40latest%2Ffonts.css;" parent="1" vertex="1">
          <mxGeometry x="340" y="571.4" width="60" height="110" as="geometry" />
        </mxCell>
        <mxCell id="8lUe4tizyEMZ4WDg3sNl-4" value="ETCD" style="text;html=1;align=center;verticalAlign=middle;whiteSpace=wrap;rounded=0;fontFamily=Computer Modern Serif;fontSource=https%3A%2F%2Fcdn.jsdelivr.net%2Fgh%2Fbitmaks%2Fcm-web-fonts%40latest%2Ffonts.css;" parent="1" vertex="1">
          <mxGeometry x="341" y="594.4" width="60" height="30" as="geometry" />
        </mxCell>
        <mxCell id="8lUe4tizyEMZ4WDg3sNl-5" value="" style="aspect=fixed;sketch=0;html=1;dashed=0;whitespace=wrap;verticalLabelPosition=bottom;verticalAlign=top;fillColor=#2875E2;strokeColor=#ffffff;points=[[0.005,0.63,0],[0.1,0.2,0],[0.9,0.2,0],[0.5,0,0],[0.995,0.63,0],[0.72,0.99,0],[0.5,1,0],[0.28,0.99,0]];shape=mxgraph.kubernetes.icon2;prIcon=etcd;fontFamily=Computer Modern Serif;fontSource=https%3A%2F%2Fcdn.jsdelivr.net%2Fgh%2Fbitmaks%2Fcm-web-fonts%40latest%2Ffonts.css;" parent="1" vertex="1">
          <mxGeometry x="349" y="631.4" width="40" height="38.4" as="geometry" />
        </mxCell>
        <mxCell id="8lUe4tizyEMZ4WDg3sNl-6" value="" style="rounded=0;whiteSpace=wrap;html=1;fontFamily=Computer Modern Serif;fontSource=https%3A%2F%2Fcdn.jsdelivr.net%2Fgh%2Fbitmaks%2Fcm-web-fonts%40latest%2Ffonts.css;" parent="1" vertex="1">
          <mxGeometry x="310" y="354" width="120" height="80" as="geometry" />
        </mxCell>
        <mxCell id="8lUe4tizyEMZ4WDg3sNl-7" value="" style="rounded=0;whiteSpace=wrap;html=1;fontFamily=Computer Modern Serif;fontSource=https%3A%2F%2Fcdn.jsdelivr.net%2Fgh%2Fbitmaks%2Fcm-web-fonts%40latest%2Ffonts.css;" parent="1" vertex="1">
          <mxGeometry x="310" y="462" width="120" height="80" as="geometry" />
        </mxCell>
        <mxCell id="8lUe4tizyEMZ4WDg3sNl-8" value="" style="aspect=fixed;sketch=0;html=1;dashed=0;whitespace=wrap;verticalLabelPosition=bottom;verticalAlign=top;fillColor=#2875E2;strokeColor=#ffffff;points=[[0.005,0.63,0],[0.1,0.2,0],[0.9,0.2,0],[0.5,0,0],[0.995,0.63,0],[0.72,0.99,0],[0.5,1,0],[0.28,0.99,0]];shape=mxgraph.kubernetes.icon2;prIcon=c_m;fontFamily=Computer Modern Serif;fontSource=https%3A%2F%2Fcdn.jsdelivr.net%2Fgh%2Fbitmaks%2Fcm-web-fonts%40latest%2Ffonts.css;" parent="1" vertex="1">
          <mxGeometry x="342" y="491.5" width="50" height="48" as="geometry" />
        </mxCell>
        <mxCell id="8lUe4tizyEMZ4WDg3sNl-9" value="Kubernetes&lt;div&gt;Controller&lt;/div&gt;" style="text;html=1;align=center;verticalAlign=middle;whiteSpace=wrap;rounded=0;fontFamily=Computer Modern Serif;fontSource=https%3A%2F%2Fcdn.jsdelivr.net%2Fgh%2Fbitmaks%2Fcm-web-fonts%40latest%2Ffonts.css;" parent="1" vertex="1">
          <mxGeometry x="337" y="465" width="60" height="30" as="geometry" />
        </mxCell>
        <mxCell id="8lUe4tizyEMZ4WDg3sNl-10" value="" style="endArrow=classic;startArrow=classic;html=1;rounded=0;exitX=0.5;exitY=0;exitDx=0;exitDy=0;exitPerimeter=0;entryX=0.5;entryY=1;entryDx=0;entryDy=0;fontFamily=Computer Modern Serif;fontSource=https%3A%2F%2Fcdn.jsdelivr.net%2Fgh%2Fbitmaks%2Fcm-web-fonts%40latest%2Ffonts.css;" parent="1" source="8lUe4tizyEMZ4WDg3sNl-3" target="8lUe4tizyEMZ4WDg3sNl-7" edge="1">
          <mxGeometry width="50" height="50" relative="1" as="geometry">
            <mxPoint x="427" y="639" as="sourcePoint" />
            <mxPoint x="467" y="589" as="targetPoint" />
          </mxGeometry>
        </mxCell>
        <mxCell id="8lUe4tizyEMZ4WDg3sNl-11" value="&lt;b&gt;Edge 1&lt;/b&gt;" style="text;html=1;align=center;verticalAlign=middle;whiteSpace=wrap;rounded=0;fontFamily=Computer Modern Serif;fontSource=https%3A%2F%2Fcdn.jsdelivr.net%2Fgh%2Fbitmaks%2Fcm-web-fonts%40latest%2Ffonts.css;" parent="1" vertex="1">
          <mxGeometry x="489.5" y="659" width="60" height="30" as="geometry" />
        </mxCell>
        <mxCell id="8lUe4tizyEMZ4WDg3sNl-12" value="MLKOPS Application" style="text;html=1;align=center;verticalAlign=middle;whiteSpace=wrap;rounded=0;fontFamily=Computer Modern Serif;fontSource=https%3A%2F%2Fcdn.jsdelivr.net%2Fgh%2Fbitmaks%2Fcm-web-fonts%40latest%2Ffonts.css;" parent="1" vertex="1">
          <mxGeometry x="522" y="484" width="178" height="30" as="geometry" />
        </mxCell>
        <mxCell id="8lUe4tizyEMZ4WDg3sNl-13" value="" style="rounded=0;whiteSpace=wrap;html=1;fontFamily=Computer Modern Serif;fontSource=https%3A%2F%2Fcdn.jsdelivr.net%2Fgh%2Fbitmaks%2Fcm-web-fonts%40latest%2Ffonts.css;" parent="1" vertex="1">
          <mxGeometry x="460" y="522" width="119" height="117" as="geometry" />
        </mxCell>
        <mxCell id="8lUe4tizyEMZ4WDg3sNl-14" value="" style="rounded=0;whiteSpace=wrap;html=1;fontFamily=Computer Modern Serif;fontSource=https%3A%2F%2Fcdn.jsdelivr.net%2Fgh%2Fbitmaks%2Fcm-web-fonts%40latest%2Ffonts.css;" parent="1" vertex="1">
          <mxGeometry x="627" y="522" width="120" height="117" as="geometry" />
        </mxCell>
        <mxCell id="8lUe4tizyEMZ4WDg3sNl-15" value="" style="aspect=fixed;sketch=0;html=1;dashed=0;whitespace=wrap;verticalLabelPosition=bottom;verticalAlign=top;fillColor=#2875E2;strokeColor=#ffffff;points=[[0.005,0.63,0],[0.1,0.2,0],[0.9,0.2,0],[0.5,0,0],[0.995,0.63,0],[0.72,0.99,0],[0.5,1,0],[0.28,0.99,0]];shape=mxgraph.kubernetes.icon2;kubernetesLabel=1;prIcon=pod;fontFamily=Computer Modern Serif;fontSource=https%3A%2F%2Fcdn.jsdelivr.net%2Fgh%2Fbitmaks%2Fcm-web-fonts%40latest%2Ffonts.css;" parent="1" vertex="1">
          <mxGeometry x="697" y="590.4000000000001" width="50" height="48" as="geometry" />
        </mxCell>
        <mxCell id="8lUe4tizyEMZ4WDg3sNl-16" value="" style="aspect=fixed;sketch=0;html=1;dashed=0;whitespace=wrap;verticalLabelPosition=bottom;verticalAlign=top;fillColor=#2875E2;strokeColor=#ffffff;points=[[0.005,0.63,0],[0.1,0.2,0],[0.9,0.2,0],[0.5,0,0],[0.995,0.63,0],[0.72,0.99,0],[0.5,1,0],[0.28,0.99,0]];shape=mxgraph.kubernetes.icon2;kubernetesLabel=1;prIcon=pod;fontFamily=Computer Modern Serif;fontSource=https%3A%2F%2Fcdn.jsdelivr.net%2Fgh%2Fbitmaks%2Fcm-web-fonts%40latest%2Ffonts.css;" parent="1" vertex="1">
          <mxGeometry x="530" y="585.4000000000001" width="49" height="48" as="geometry" />
        </mxCell>
        <mxCell id="8lUe4tizyEMZ4WDg3sNl-17" value="MLKOPS&lt;br&gt;Sidecar&lt;br&gt;Proxy" style="text;html=1;align=center;verticalAlign=middle;whiteSpace=wrap;rounded=0;fontFamily=Computer Modern Serif;fontSource=https%3A%2F%2Fcdn.jsdelivr.net%2Fgh%2Fbitmaks%2Fcm-web-fonts%40latest%2Ffonts.css;" parent="1" vertex="1">
          <mxGeometry x="657" y="527" width="60" height="44.5" as="geometry" />
        </mxCell>
        <mxCell id="8lUe4tizyEMZ4WDg3sNl-18" value="Anomaly Detection Application" style="text;html=1;align=center;verticalAlign=middle;whiteSpace=wrap;rounded=0;fontFamily=Computer Modern Serif;fontSource=https%3A%2F%2Fcdn.jsdelivr.net%2Fgh%2Fbitmaks%2Fcm-web-fonts%40latest%2Ffonts.css;" parent="1" vertex="1">
          <mxGeometry x="471" y="529.4" width="87" height="30" as="geometry" />
        </mxCell>
        <mxCell id="8lUe4tizyEMZ4WDg3sNl-19" value="" style="endArrow=classic;startArrow=classic;html=1;rounded=0;exitX=1;exitY=0.5;exitDx=0;exitDy=0;entryX=0;entryY=0.5;entryDx=0;entryDy=0;fontFamily=Computer Modern Serif;fontSource=https%3A%2F%2Fcdn.jsdelivr.net%2Fgh%2Fbitmaks%2Fcm-web-fonts%40latest%2Ffonts.css;" parent="1" source="8lUe4tizyEMZ4WDg3sNl-13" target="8lUe4tizyEMZ4WDg3sNl-14" edge="1">
          <mxGeometry width="50" height="50" relative="1" as="geometry">
            <mxPoint x="640" y="609" as="sourcePoint" />
            <mxPoint x="610" y="579" as="targetPoint" />
          </mxGeometry>
        </mxCell>
        <mxCell id="8lUe4tizyEMZ4WDg3sNl-20" value="" style="rounded=1;whiteSpace=wrap;html=1;fontFamily=Computer Modern Serif;fontSource=https%3A%2F%2Fcdn.jsdelivr.net%2Fgh%2Fbitmaks%2Fcm-web-fonts%40latest%2Ffonts.css;" parent="1" vertex="1">
          <mxGeometry x="277" y="-150" width="1113" height="360" as="geometry" />
        </mxCell>
        <mxCell id="8lUe4tizyEMZ4WDg3sNl-21" value="" style="rounded=0;whiteSpace=wrap;html=1;fontFamily=Computer Modern Serif;fontSource=https%3A%2F%2Fcdn.jsdelivr.net%2Fgh%2Fbitmaks%2Fcm-web-fonts%40latest%2Ffonts.css;" parent="1" vertex="1">
          <mxGeometry x="457" y="-30" width="293" height="162.8" as="geometry" />
        </mxCell>
        <mxCell id="8lUe4tizyEMZ4WDg3sNl-22" value="" style="shape=cylinder3;whiteSpace=wrap;html=1;boundedLbl=1;backgroundOutline=1;size=15;fontFamily=Computer Modern Serif;fontSource=https%3A%2F%2Fcdn.jsdelivr.net%2Fgh%2Fbitmaks%2Fcm-web-fonts%40latest%2Ffonts.css;" parent="1" vertex="1">
          <mxGeometry x="337" y="93.39999999999998" width="60" height="110" as="geometry" />
        </mxCell>
        <mxCell id="8lUe4tizyEMZ4WDg3sNl-23" value="ETCD" style="text;html=1;align=center;verticalAlign=middle;whiteSpace=wrap;rounded=0;fontFamily=Computer Modern Serif;fontSource=https%3A%2F%2Fcdn.jsdelivr.net%2Fgh%2Fbitmaks%2Fcm-web-fonts%40latest%2Ffonts.css;" parent="1" vertex="1">
          <mxGeometry x="337" y="118.39999999999998" width="60" height="30" as="geometry" />
        </mxCell>
        <mxCell id="8lUe4tizyEMZ4WDg3sNl-24" value="" style="aspect=fixed;sketch=0;html=1;dashed=0;whitespace=wrap;verticalLabelPosition=bottom;verticalAlign=top;fillColor=#2875E2;strokeColor=#ffffff;points=[[0.005,0.63,0],[0.1,0.2,0],[0.9,0.2,0],[0.5,0,0],[0.995,0.63,0],[0.72,0.99,0],[0.5,1,0],[0.28,0.99,0]];shape=mxgraph.kubernetes.icon2;prIcon=etcd;fontFamily=Computer Modern Serif;fontSource=https%3A%2F%2Fcdn.jsdelivr.net%2Fgh%2Fbitmaks%2Fcm-web-fonts%40latest%2Ffonts.css;" parent="1" vertex="1">
          <mxGeometry x="347" y="155.39999999999998" width="40" height="38.4" as="geometry" />
        </mxCell>
        <mxCell id="8lUe4tizyEMZ4WDg3sNl-25" value="" style="rounded=0;whiteSpace=wrap;html=1;fontFamily=Computer Modern Serif;fontSource=https%3A%2F%2Fcdn.jsdelivr.net%2Fgh%2Fbitmaks%2Fcm-web-fonts%40latest%2Ffonts.css;" parent="1" vertex="1">
          <mxGeometry x="307" y="-15" width="120" height="80" as="geometry" />
        </mxCell>
        <mxCell id="8lUe4tizyEMZ4WDg3sNl-26" value="" style="aspect=fixed;sketch=0;html=1;dashed=0;whitespace=wrap;verticalLabelPosition=bottom;verticalAlign=top;fillColor=#2875E2;strokeColor=#ffffff;points=[[0.005,0.63,0],[0.1,0.2,0],[0.9,0.2,0],[0.5,0,0],[0.995,0.63,0],[0.72,0.99,0],[0.5,1,0],[0.28,0.99,0]];shape=mxgraph.kubernetes.icon2;prIcon=c_m;fontFamily=Computer Modern Serif;fontSource=https%3A%2F%2Fcdn.jsdelivr.net%2Fgh%2Fbitmaks%2Fcm-web-fonts%40latest%2Ffonts.css;" parent="1" vertex="1">
          <mxGeometry x="337" y="15" width="50" height="48" as="geometry" />
        </mxCell>
        <mxCell id="8lUe4tizyEMZ4WDg3sNl-27" value="Kubernetes&lt;div&gt;Controller&lt;/div&gt;" style="text;html=1;align=center;verticalAlign=middle;whiteSpace=wrap;rounded=0;fontFamily=Computer Modern Serif;fontSource=https%3A%2F%2Fcdn.jsdelivr.net%2Fgh%2Fbitmaks%2Fcm-web-fonts%40latest%2Ffonts.css;" parent="1" vertex="1">
          <mxGeometry x="337" y="-12" width="60" height="30" as="geometry" />
        </mxCell>
        <mxCell id="8lUe4tizyEMZ4WDg3sNl-28" value="" style="endArrow=classic;startArrow=classic;html=1;rounded=0;exitX=0.5;exitY=0;exitDx=0;exitDy=0;exitPerimeter=0;entryX=0.5;entryY=1;entryDx=0;entryDy=0;fontFamily=Computer Modern Serif;fontSource=https%3A%2F%2Fcdn.jsdelivr.net%2Fgh%2Fbitmaks%2Fcm-web-fonts%40latest%2Ffonts.css;" parent="1" source="8lUe4tizyEMZ4WDg3sNl-22" target="8lUe4tizyEMZ4WDg3sNl-25" edge="1">
          <mxGeometry width="50" height="50" relative="1" as="geometry">
            <mxPoint x="427" y="163" as="sourcePoint" />
            <mxPoint x="467" y="113" as="targetPoint" />
          </mxGeometry>
        </mxCell>
        <mxCell id="8lUe4tizyEMZ4WDg3sNl-29" value="&lt;b&gt;&lt;font style=&quot;font-size: 16px;&quot;&gt;Cloud&lt;/font&gt;&lt;/b&gt;" style="text;html=1;align=center;verticalAlign=middle;whiteSpace=wrap;rounded=0;fontFamily=Computer Modern Serif;fontSource=https%3A%2F%2Fcdn.jsdelivr.net%2Fgh%2Fbitmaks%2Fcm-web-fonts%40latest%2Ffonts.css;" parent="1" vertex="1">
          <mxGeometry x="850" y="-150" width="60" height="30" as="geometry" />
        </mxCell>
        <mxCell id="8lUe4tizyEMZ4WDg3sNl-30" value="MLKOPS Application" style="text;html=1;align=center;verticalAlign=middle;whiteSpace=wrap;rounded=0;fontFamily=Computer Modern Serif;fontSource=https%3A%2F%2Fcdn.jsdelivr.net%2Fgh%2Fbitmaks%2Fcm-web-fonts%40latest%2Ffonts.css;" parent="1" vertex="1">
          <mxGeometry x="522" y="-33" width="178" height="30" as="geometry" />
        </mxCell>
        <mxCell id="8lUe4tizyEMZ4WDg3sNl-31" value="" style="rounded=0;whiteSpace=wrap;html=1;fontFamily=Computer Modern Serif;fontSource=https%3A%2F%2Fcdn.jsdelivr.net%2Fgh%2Fbitmaks%2Fcm-web-fonts%40latest%2Ffonts.css;" parent="1" vertex="1">
          <mxGeometry x="460" y="3" width="119" height="80" as="geometry" />
        </mxCell>
        <mxCell id="8lUe4tizyEMZ4WDg3sNl-32" value="" style="rounded=0;whiteSpace=wrap;html=1;fontFamily=Computer Modern Serif;fontSource=https%3A%2F%2Fcdn.jsdelivr.net%2Fgh%2Fbitmaks%2Fcm-web-fonts%40latest%2Ffonts.css;" parent="1" vertex="1">
          <mxGeometry x="627" y="3" width="120" height="80" as="geometry" />
        </mxCell>
        <mxCell id="8lUe4tizyEMZ4WDg3sNl-33" value="" style="aspect=fixed;sketch=0;html=1;dashed=0;whitespace=wrap;verticalLabelPosition=bottom;verticalAlign=top;fillColor=#2875E2;strokeColor=#ffffff;points=[[0.005,0.63,0],[0.1,0.2,0],[0.9,0.2,0],[0.5,0,0],[0.995,0.63,0],[0.72,0.99,0],[0.5,1,0],[0.28,0.99,0]];shape=mxgraph.kubernetes.icon2;kubernetesLabel=1;prIcon=pod;fontFamily=Computer Modern Serif;fontSource=https%3A%2F%2Fcdn.jsdelivr.net%2Fgh%2Fbitmaks%2Fcm-web-fonts%40latest%2Ffonts.css;" parent="1" vertex="1">
          <mxGeometry x="697" y="35.000000000000036" width="50" height="48" as="geometry" />
        </mxCell>
        <mxCell id="8lUe4tizyEMZ4WDg3sNl-34" value="" style="aspect=fixed;sketch=0;html=1;dashed=0;whitespace=wrap;verticalLabelPosition=bottom;verticalAlign=top;fillColor=#2875E2;strokeColor=#ffffff;points=[[0.005,0.63,0],[0.1,0.2,0],[0.9,0.2,0],[0.5,0,0],[0.995,0.63,0],[0.72,0.99,0],[0.5,1,0],[0.28,0.99,0]];shape=mxgraph.kubernetes.icon2;kubernetesLabel=1;prIcon=pod;fontFamily=Computer Modern Serif;fontSource=https%3A%2F%2Fcdn.jsdelivr.net%2Fgh%2Fbitmaks%2Fcm-web-fonts%40latest%2Ffonts.css;" parent="1" vertex="1">
          <mxGeometry x="530" y="35.000000000000036" width="49" height="48" as="geometry" />
        </mxCell>
        <mxCell id="8lUe4tizyEMZ4WDg3sNl-35" value="MLKOPS&lt;br&gt;Sidecar&lt;br&gt;Proxy" style="text;html=1;align=center;verticalAlign=middle;whiteSpace=wrap;rounded=0;fontFamily=Computer Modern Serif;fontSource=https%3A%2F%2Fcdn.jsdelivr.net%2Fgh%2Fbitmaks%2Fcm-web-fonts%40latest%2Ffonts.css;" parent="1" vertex="1">
          <mxGeometry x="657" y="8" width="60" height="42" as="geometry" />
        </mxCell>
        <mxCell id="8lUe4tizyEMZ4WDg3sNl-36" value="Anomaly Detection Application" style="text;html=1;align=center;verticalAlign=middle;whiteSpace=wrap;rounded=0;fontFamily=Computer Modern Serif;fontSource=https%3A%2F%2Fcdn.jsdelivr.net%2Fgh%2Fbitmaks%2Fcm-web-fonts%40latest%2Ffonts.css;" parent="1" vertex="1">
          <mxGeometry x="457" y="10.399999999999977" width="87" height="30" as="geometry" />
        </mxCell>
        <mxCell id="8lUe4tizyEMZ4WDg3sNl-37" value="" style="endArrow=classic;startArrow=classic;html=1;rounded=0;exitX=1;exitY=0.5;exitDx=0;exitDy=0;entryX=0;entryY=0.5;entryDx=0;entryDy=0;fontFamily=Computer Modern Serif;fontSource=https%3A%2F%2Fcdn.jsdelivr.net%2Fgh%2Fbitmaks%2Fcm-web-fonts%40latest%2Ffonts.css;" parent="1" source="8lUe4tizyEMZ4WDg3sNl-31" target="8lUe4tizyEMZ4WDg3sNl-32" edge="1">
          <mxGeometry width="50" height="50" relative="1" as="geometry">
            <mxPoint x="640" y="90" as="sourcePoint" />
            <mxPoint x="610" y="60" as="targetPoint" />
          </mxGeometry>
        </mxCell>
        <mxCell id="8lUe4tizyEMZ4WDg3sNl-38" value="" style="endArrow=classic;html=1;rounded=0;exitX=0.25;exitY=0;exitDx=0;exitDy=0;entryX=1;entryY=0.75;entryDx=0;entryDy=0;fontFamily=Computer Modern Serif;fontSource=https%3A%2F%2Fcdn.jsdelivr.net%2Fgh%2Fbitmaks%2Fcm-web-fonts%40latest%2Ffonts.css;" parent="1" source="8lUe4tizyEMZ4WDg3sNl-2" target="8lUe4tizyEMZ4WDg3sNl-6" edge="1">
          <mxGeometry width="50" height="50" relative="1" as="geometry">
            <mxPoint x="680" y="484" as="sourcePoint" />
            <mxPoint x="730" y="434" as="targetPoint" />
            <Array as="points">
              <mxPoint x="530" y="414" />
            </Array>
          </mxGeometry>
        </mxCell>
        <mxCell id="8lUe4tizyEMZ4WDg3sNl-39" value="" style="endArrow=classic;html=1;rounded=0;exitX=1;exitY=0.25;exitDx=0;exitDy=0;entryX=0.5;entryY=0;entryDx=0;entryDy=0;fontFamily=Computer Modern Serif;fontSource=https%3A%2F%2Fcdn.jsdelivr.net%2Fgh%2Fbitmaks%2Fcm-web-fonts%40latest%2Ffonts.css;" parent="1" source="8lUe4tizyEMZ4WDg3sNl-6" target="8lUe4tizyEMZ4WDg3sNl-14" edge="1">
          <mxGeometry width="50" height="50" relative="1" as="geometry">
            <mxPoint x="680" y="484" as="sourcePoint" />
            <mxPoint x="730" y="434" as="targetPoint" />
            <Array as="points">
              <mxPoint x="687" y="377" />
            </Array>
          </mxGeometry>
        </mxCell>
        <mxCell id="8lUe4tizyEMZ4WDg3sNl-40" value="" style="aspect=fixed;sketch=0;html=1;dashed=0;whitespace=wrap;verticalLabelPosition=bottom;verticalAlign=top;fillColor=#2875E2;strokeColor=#ffffff;points=[[0.005,0.63,0],[0.1,0.2,0],[0.9,0.2,0],[0.5,0,0],[0.995,0.63,0],[0.72,0.99,0],[0.5,1,0],[0.28,0.99,0]];shape=mxgraph.kubernetes.icon2;prIcon=c_m;fontFamily=Computer Modern Serif;fontSource=https%3A%2F%2Fcdn.jsdelivr.net%2Fgh%2Fbitmaks%2Fcm-web-fonts%40latest%2Ffonts.css;" parent="1" vertex="1">
          <mxGeometry x="342" y="386" width="50" height="48" as="geometry" />
        </mxCell>
        <mxCell id="8lUe4tizyEMZ4WDg3sNl-41" value="&lt;span style=&quot;color: rgb(0, 0, 0); font-size: 12px; font-style: normal; font-variant-ligatures: normal; font-variant-caps: normal; font-weight: 400; letter-spacing: normal; orphans: 2; text-align: center; text-indent: 0px; text-transform: none; widows: 2; word-spacing: 0px; -webkit-text-stroke-width: 0px; white-space: normal; background-color: rgb(251, 251, 251); text-decoration-thickness: initial; text-decoration-style: initial; text-decoration-color: initial; float: none; display: inline !important;&quot;&gt;MLKOPS Controller&lt;/span&gt;" style="text;whiteSpace=wrap;html=1;fontFamily=Computer Modern Serif;fontSource=https%3A%2F%2Fcdn.jsdelivr.net%2Fgh%2Fbitmaks%2Fcm-web-fonts%40latest%2Ffonts.css;" parent="1" vertex="1">
          <mxGeometry x="338" y="354" width="58" height="40" as="geometry" />
        </mxCell>
        <mxCell id="8lUe4tizyEMZ4WDg3sNl-42" value="" style="rounded=0;whiteSpace=wrap;html=1;fontFamily=Computer Modern Serif;fontSource=https%3A%2F%2Fcdn.jsdelivr.net%2Fgh%2Fbitmaks%2Fcm-web-fonts%40latest%2Ffonts.css;" parent="1" vertex="1">
          <mxGeometry x="307" y="-124" width="120" height="80" as="geometry" />
        </mxCell>
        <mxCell id="8lUe4tizyEMZ4WDg3sNl-43" value="" style="aspect=fixed;sketch=0;html=1;dashed=0;whitespace=wrap;verticalLabelPosition=bottom;verticalAlign=top;fillColor=#2875E2;strokeColor=#ffffff;points=[[0.005,0.63,0],[0.1,0.2,0],[0.9,0.2,0],[0.5,0,0],[0.995,0.63,0],[0.72,0.99,0],[0.5,1,0],[0.28,0.99,0]];shape=mxgraph.kubernetes.icon2;prIcon=c_m;fontFamily=Computer Modern Serif;fontSource=https%3A%2F%2Fcdn.jsdelivr.net%2Fgh%2Fbitmaks%2Fcm-web-fonts%40latest%2Ffonts.css;" parent="1" vertex="1">
          <mxGeometry x="339" y="-92" width="50" height="48" as="geometry" />
        </mxCell>
        <mxCell id="8lUe4tizyEMZ4WDg3sNl-44" value="&lt;span style=&quot;color: rgb(0, 0, 0); font-size: 12px; font-style: normal; font-variant-ligatures: normal; font-variant-caps: normal; font-weight: 400; letter-spacing: normal; orphans: 2; text-align: center; text-indent: 0px; text-transform: none; widows: 2; word-spacing: 0px; -webkit-text-stroke-width: 0px; white-space: normal; background-color: rgb(251, 251, 251); text-decoration-thickness: initial; text-decoration-style: initial; text-decoration-color: initial; float: none; display: inline !important;&quot;&gt;MLKOPS Controller&lt;/span&gt;" style="text;whiteSpace=wrap;html=1;fontFamily=Computer Modern Serif;fontSource=https%3A%2F%2Fcdn.jsdelivr.net%2Fgh%2Fbitmaks%2Fcm-web-fonts%40latest%2Ffonts.css;" parent="1" vertex="1">
          <mxGeometry x="335" y="-124" width="58" height="40" as="geometry" />
        </mxCell>
        <mxCell id="8lUe4tizyEMZ4WDg3sNl-45" value="" style="endArrow=classic;startArrow=classic;html=1;rounded=0;entryX=0;entryY=0.5;entryDx=0;entryDy=0;exitX=0;exitY=0.5;exitDx=0;exitDy=0;fillColor=#fff2cc;strokeColor=#d6b656;strokeWidth=3;fontFamily=Computer Modern Serif;fontSource=https%3A%2F%2Fcdn.jsdelivr.net%2Fgh%2Fbitmaks%2Fcm-web-fonts%40latest%2Ffonts.css;" parent="1" source="8lUe4tizyEMZ4WDg3sNl-6" target="8lUe4tizyEMZ4WDg3sNl-42" edge="1">
          <mxGeometry width="50" height="50" relative="1" as="geometry">
            <mxPoint x="390" y="110" as="sourcePoint" />
            <mxPoint x="440" y="60" as="targetPoint" />
            <Array as="points">
              <mxPoint x="250" y="394" />
              <mxPoint x="250" y="-84" />
            </Array>
          </mxGeometry>
        </mxCell>
        <mxCell id="8lUe4tizyEMZ4WDg3sNl-46" value="Ingress/Egress Gateway" style="rounded=1;whiteSpace=wrap;html=1;fontFamily=Computer Modern Serif;fontSource=https%3A%2F%2Fcdn.jsdelivr.net%2Fgh%2Fbitmaks%2Fcm-web-fonts%40latest%2Ffonts.css;" parent="1" vertex="1">
          <mxGeometry x="668.5" y="180" width="330" height="60" as="geometry" />
        </mxCell>
        <mxCell id="8lUe4tizyEMZ4WDg3sNl-47" value="Ingress/Egress Gateway" style="rounded=1;whiteSpace=wrap;html=1;fontFamily=Computer Modern Serif;fontSource=https%3A%2F%2Fcdn.jsdelivr.net%2Fgh%2Fbitmaks%2Fcm-web-fonts%40latest%2Ffonts.css;" parent="1" vertex="1">
          <mxGeometry x="607" y="304" width="160" height="60" as="geometry" />
        </mxCell>
        <mxCell id="8lUe4tizyEMZ4WDg3sNl-48" value="" style="endArrow=classic;startArrow=classic;html=1;rounded=0;exitX=0.75;exitY=0;exitDx=0;exitDy=0;entryX=0.25;entryY=1;entryDx=0;entryDy=0;strokeWidth=3;fillColor=#f8cecc;strokeColor=#b85450;fontFamily=Computer Modern Serif;fontSource=https%3A%2F%2Fcdn.jsdelivr.net%2Fgh%2Fbitmaks%2Fcm-web-fonts%40latest%2Ffonts.css;" parent="1" source="8lUe4tizyEMZ4WDg3sNl-47" target="8lUe4tizyEMZ4WDg3sNl-46" edge="1">
          <mxGeometry width="50" height="50" relative="1" as="geometry">
            <mxPoint x="850" y="460" as="sourcePoint" />
            <mxPoint x="900" y="410" as="targetPoint" />
          </mxGeometry>
        </mxCell>
        <mxCell id="8lUe4tizyEMZ4WDg3sNl-49" value="" style="endArrow=classic;startArrow=classic;html=1;rounded=0;exitX=0.25;exitY=0;exitDx=0;exitDy=0;entryX=0.75;entryY=1;entryDx=0;entryDy=0;strokeWidth=3;fillColor=#f8cecc;strokeColor=#b85450;fontFamily=Computer Modern Serif;fontSource=https%3A%2F%2Fcdn.jsdelivr.net%2Fgh%2Fbitmaks%2Fcm-web-fonts%40latest%2Ffonts.css;" parent="1" target="8lUe4tizyEMZ4WDg3sNl-46" edge="1">
          <mxGeometry width="50" height="50" relative="1" as="geometry">
            <mxPoint x="951" y="300" as="sourcePoint" />
            <mxPoint x="868" y="250" as="targetPoint" />
          </mxGeometry>
        </mxCell>
        <mxCell id="8lUe4tizyEMZ4WDg3sNl-50" value="" style="endArrow=classic;startArrow=classic;html=1;rounded=0;exitX=0.85;exitY=-0.024;exitDx=0;exitDy=0;entryX=0.75;entryY=1;entryDx=0;entryDy=0;fillColor=#f8cecc;strokeColor=#b85450;strokeWidth=3;exitPerimeter=0;fontFamily=Computer Modern Serif;fontSource=https%3A%2F%2Fcdn.jsdelivr.net%2Fgh%2Fbitmaks%2Fcm-web-fonts%40latest%2Ffonts.css;" parent="1" source="8lUe4tizyEMZ4WDg3sNl-14" target="8lUe4tizyEMZ4WDg3sNl-47" edge="1">
          <mxGeometry width="50" height="50" relative="1" as="geometry">
            <mxPoint x="870" y="306.5" as="sourcePoint" />
            <mxPoint x="920" y="256.5" as="targetPoint" />
          </mxGeometry>
        </mxCell>
        <mxCell id="8lUe4tizyEMZ4WDg3sNl-51" value="" style="endArrow=classic;html=1;rounded=0;entryX=0.5;entryY=1;entryDx=0;entryDy=0;strokeWidth=3;fillColor=#f8cecc;strokeColor=#b85450;fontFamily=Computer Modern Serif;fontSource=https%3A%2F%2Fcdn.jsdelivr.net%2Fgh%2Fbitmaks%2Fcm-web-fonts%40latest%2Ffonts.css;" parent="1" target="8lUe4tizyEMZ4WDg3sNl-32" edge="1">
          <mxGeometry width="50" height="50" relative="1" as="geometry">
            <mxPoint x="900" y="160" as="sourcePoint" />
            <mxPoint x="840" y="80" as="targetPoint" />
            <Array as="points">
              <mxPoint x="687" y="160" />
            </Array>
          </mxGeometry>
        </mxCell>
        <mxCell id="8lUe4tizyEMZ4WDg3sNl-52" value="" style="endArrow=classic;startArrow=classic;html=1;rounded=0;exitX=0.5;exitY=1;exitDx=0;exitDy=0;entryX=0.5;entryY=0;entryDx=0;entryDy=0;fontFamily=Computer Modern Serif;fontSource=https%3A%2F%2Fcdn.jsdelivr.net%2Fgh%2Fbitmaks%2Fcm-web-fonts%40latest%2Ffonts.css;" parent="1" source="8lUe4tizyEMZ4WDg3sNl-6" target="8lUe4tizyEMZ4WDg3sNl-7" edge="1">
          <mxGeometry width="50" height="50" relative="1" as="geometry">
            <mxPoint x="620" y="506.5" as="sourcePoint" />
            <mxPoint x="670" y="456.5" as="targetPoint" />
          </mxGeometry>
        </mxCell>
        <mxCell id="8lUe4tizyEMZ4WDg3sNl-53" value="" style="endArrow=classic;startArrow=classic;html=1;rounded=0;entryX=0;entryY=0.75;entryDx=0;entryDy=0;exitX=0;exitY=0.5;exitDx=0;exitDy=0;exitPerimeter=0;fontFamily=Computer Modern Serif;fontSource=https%3A%2F%2Fcdn.jsdelivr.net%2Fgh%2Fbitmaks%2Fcm-web-fonts%40latest%2Ffonts.css;" parent="1" source="8lUe4tizyEMZ4WDg3sNl-3" target="8lUe4tizyEMZ4WDg3sNl-6" edge="1">
          <mxGeometry width="50" height="50" relative="1" as="geometry">
            <mxPoint x="620" y="506.5" as="sourcePoint" />
            <mxPoint x="670" y="456.5" as="targetPoint" />
            <Array as="points">
              <mxPoint x="290" y="626.5" />
              <mxPoint x="290" y="416.5" />
            </Array>
          </mxGeometry>
        </mxCell>
        <mxCell id="8lUe4tizyEMZ4WDg3sNl-54" value="" style="rounded=0;whiteSpace=wrap;html=1;fontFamily=Computer Modern Serif;fontSource=https%3A%2F%2Fcdn.jsdelivr.net%2Fgh%2Fbitmaks%2Fcm-web-fonts%40latest%2Ffonts.css;" parent="1" vertex="1">
          <mxGeometry x="770" y="-30" width="293" height="162.8" as="geometry" />
        </mxCell>
        <mxCell id="8lUe4tizyEMZ4WDg3sNl-55" value="MLKOPS Application" style="text;html=1;align=center;verticalAlign=middle;whiteSpace=wrap;rounded=0;fontFamily=Computer Modern Serif;fontSource=https%3A%2F%2Fcdn.jsdelivr.net%2Fgh%2Fbitmaks%2Fcm-web-fonts%40latest%2Ffonts.css;" parent="1" vertex="1">
          <mxGeometry x="835" y="-33" width="178" height="30" as="geometry" />
        </mxCell>
        <mxCell id="8lUe4tizyEMZ4WDg3sNl-56" value="" style="rounded=0;whiteSpace=wrap;html=1;fontFamily=Computer Modern Serif;fontSource=https%3A%2F%2Fcdn.jsdelivr.net%2Fgh%2Fbitmaks%2Fcm-web-fonts%40latest%2Ffonts.css;" parent="1" vertex="1">
          <mxGeometry x="773" y="3" width="119" height="80" as="geometry" />
        </mxCell>
        <mxCell id="8lUe4tizyEMZ4WDg3sNl-57" value="" style="rounded=0;whiteSpace=wrap;html=1;fontFamily=Computer Modern Serif;fontSource=https%3A%2F%2Fcdn.jsdelivr.net%2Fgh%2Fbitmaks%2Fcm-web-fonts%40latest%2Ffonts.css;" parent="1" vertex="1">
          <mxGeometry x="940" y="3" width="120" height="80" as="geometry" />
        </mxCell>
        <mxCell id="8lUe4tizyEMZ4WDg3sNl-58" value="" style="aspect=fixed;sketch=0;html=1;dashed=0;whitespace=wrap;verticalLabelPosition=bottom;verticalAlign=top;fillColor=#2875E2;strokeColor=#ffffff;points=[[0.005,0.63,0],[0.1,0.2,0],[0.9,0.2,0],[0.5,0,0],[0.995,0.63,0],[0.72,0.99,0],[0.5,1,0],[0.28,0.99,0]];shape=mxgraph.kubernetes.icon2;kubernetesLabel=1;prIcon=pod;fontFamily=Computer Modern Serif;fontSource=https%3A%2F%2Fcdn.jsdelivr.net%2Fgh%2Fbitmaks%2Fcm-web-fonts%40latest%2Ffonts.css;" parent="1" vertex="1">
          <mxGeometry x="1010" y="35.000000000000036" width="50" height="48" as="geometry" />
        </mxCell>
        <mxCell id="8lUe4tizyEMZ4WDg3sNl-59" value="" style="aspect=fixed;sketch=0;html=1;dashed=0;whitespace=wrap;verticalLabelPosition=bottom;verticalAlign=top;fillColor=#2875E2;strokeColor=#ffffff;points=[[0.005,0.63,0],[0.1,0.2,0],[0.9,0.2,0],[0.5,0,0],[0.995,0.63,0],[0.72,0.99,0],[0.5,1,0],[0.28,0.99,0]];shape=mxgraph.kubernetes.icon2;kubernetesLabel=1;prIcon=pod;fontFamily=Computer Modern Serif;fontSource=https%3A%2F%2Fcdn.jsdelivr.net%2Fgh%2Fbitmaks%2Fcm-web-fonts%40latest%2Ffonts.css;" parent="1" vertex="1">
          <mxGeometry x="843" y="35.000000000000036" width="49" height="48" as="geometry" />
        </mxCell>
        <mxCell id="8lUe4tizyEMZ4WDg3sNl-60" value="MLKOPS&lt;br&gt;Sidecar&lt;br&gt;Proxy" style="text;html=1;align=center;verticalAlign=middle;whiteSpace=wrap;rounded=0;fontFamily=Computer Modern Serif;fontSource=https%3A%2F%2Fcdn.jsdelivr.net%2Fgh%2Fbitmaks%2Fcm-web-fonts%40latest%2Ffonts.css;" parent="1" vertex="1">
          <mxGeometry x="970" y="8" width="60" height="42" as="geometry" />
        </mxCell>
        <mxCell id="8lUe4tizyEMZ4WDg3sNl-61" value="Anomaly Detection Application" style="text;html=1;align=center;verticalAlign=middle;whiteSpace=wrap;rounded=0;fontFamily=Computer Modern Serif;fontSource=https%3A%2F%2Fcdn.jsdelivr.net%2Fgh%2Fbitmaks%2Fcm-web-fonts%40latest%2Ffonts.css;" parent="1" vertex="1">
          <mxGeometry x="784" y="10.399999999999977" width="87" height="30" as="geometry" />
        </mxCell>
        <mxCell id="8lUe4tizyEMZ4WDg3sNl-62" value="" style="endArrow=classic;startArrow=classic;html=1;rounded=0;exitX=1;exitY=0.5;exitDx=0;exitDy=0;entryX=0;entryY=0.5;entryDx=0;entryDy=0;fontFamily=Computer Modern Serif;fontSource=https%3A%2F%2Fcdn.jsdelivr.net%2Fgh%2Fbitmaks%2Fcm-web-fonts%40latest%2Ffonts.css;" parent="1" source="8lUe4tizyEMZ4WDg3sNl-56" target="8lUe4tizyEMZ4WDg3sNl-57" edge="1">
          <mxGeometry width="50" height="50" relative="1" as="geometry">
            <mxPoint x="953" y="90" as="sourcePoint" />
            <mxPoint x="923" y="60" as="targetPoint" />
          </mxGeometry>
        </mxCell>
        <mxCell id="8lUe4tizyEMZ4WDg3sNl-63" value="" style="endArrow=classic;html=1;rounded=0;entryX=0.5;entryY=1;entryDx=0;entryDy=0;strokeWidth=3;fillColor=#f8cecc;strokeColor=#b85450;fontFamily=Computer Modern Serif;fontSource=https%3A%2F%2Fcdn.jsdelivr.net%2Fgh%2Fbitmaks%2Fcm-web-fonts%40latest%2Ffonts.css;" parent="1" edge="1">
          <mxGeometry width="50" height="50" relative="1" as="geometry">
            <mxPoint x="1353" y="158" as="sourcePoint" />
            <mxPoint x="1353" y="118.00000000000023" as="targetPoint" />
          </mxGeometry>
        </mxCell>
        <mxCell id="8lUe4tizyEMZ4WDg3sNl-64" value="" style="endArrow=classic;html=1;rounded=0;entryX=0.5;entryY=1;entryDx=0;entryDy=0;strokeWidth=3;fillColor=#f8cecc;strokeColor=#b85450;fontFamily=Computer Modern Serif;fontSource=https%3A%2F%2Fcdn.jsdelivr.net%2Fgh%2Fbitmaks%2Fcm-web-fonts%40latest%2Ffonts.css;" parent="1" edge="1">
          <mxGeometry width="50" height="50" relative="1" as="geometry">
            <mxPoint x="1020" y="160" as="sourcePoint" />
            <mxPoint x="1020" y="120.00000000000023" as="targetPoint" />
          </mxGeometry>
        </mxCell>
        <mxCell id="8lUe4tizyEMZ4WDg3sNl-65" value="" style="rounded=0;whiteSpace=wrap;html=1;fontFamily=Computer Modern Serif;fontSource=https%3A%2F%2Fcdn.jsdelivr.net%2Fgh%2Fbitmaks%2Fcm-web-fonts%40latest%2Ffonts.css;" parent="1" vertex="1">
          <mxGeometry x="1080" y="-28.5" width="293" height="162.8" as="geometry" />
        </mxCell>
        <mxCell id="8lUe4tizyEMZ4WDg3sNl-66" value="MLKOPS Application" style="text;html=1;align=center;verticalAlign=middle;whiteSpace=wrap;rounded=0;fontFamily=Computer Modern Serif;fontSource=https%3A%2F%2Fcdn.jsdelivr.net%2Fgh%2Fbitmaks%2Fcm-web-fonts%40latest%2Ffonts.css;" parent="1" vertex="1">
          <mxGeometry x="1145" y="-31.5" width="178" height="30" as="geometry" />
        </mxCell>
        <mxCell id="8lUe4tizyEMZ4WDg3sNl-67" value="" style="rounded=0;whiteSpace=wrap;html=1;fontFamily=Computer Modern Serif;fontSource=https%3A%2F%2Fcdn.jsdelivr.net%2Fgh%2Fbitmaks%2Fcm-web-fonts%40latest%2Ffonts.css;" parent="1" vertex="1">
          <mxGeometry x="1083" y="4.5" width="119" height="80" as="geometry" />
        </mxCell>
        <mxCell id="8lUe4tizyEMZ4WDg3sNl-68" value="" style="rounded=0;whiteSpace=wrap;html=1;fontFamily=Computer Modern Serif;fontSource=https%3A%2F%2Fcdn.jsdelivr.net%2Fgh%2Fbitmaks%2Fcm-web-fonts%40latest%2Ffonts.css;" parent="1" vertex="1">
          <mxGeometry x="1250" y="4.5" width="120" height="80" as="geometry" />
        </mxCell>
        <mxCell id="8lUe4tizyEMZ4WDg3sNl-69" value="" style="aspect=fixed;sketch=0;html=1;dashed=0;whitespace=wrap;verticalLabelPosition=bottom;verticalAlign=top;fillColor=#2875E2;strokeColor=#ffffff;points=[[0.005,0.63,0],[0.1,0.2,0],[0.9,0.2,0],[0.5,0,0],[0.995,0.63,0],[0.72,0.99,0],[0.5,1,0],[0.28,0.99,0]];shape=mxgraph.kubernetes.icon2;kubernetesLabel=1;prIcon=pod;fontFamily=Computer Modern Serif;fontSource=https%3A%2F%2Fcdn.jsdelivr.net%2Fgh%2Fbitmaks%2Fcm-web-fonts%40latest%2Ffonts.css;" parent="1" vertex="1">
          <mxGeometry x="1320" y="36.500000000000036" width="50" height="48" as="geometry" />
        </mxCell>
        <mxCell id="8lUe4tizyEMZ4WDg3sNl-70" value="" style="aspect=fixed;sketch=0;html=1;dashed=0;whitespace=wrap;verticalLabelPosition=bottom;verticalAlign=top;fillColor=#2875E2;strokeColor=#ffffff;points=[[0.005,0.63,0],[0.1,0.2,0],[0.9,0.2,0],[0.5,0,0],[0.995,0.63,0],[0.72,0.99,0],[0.5,1,0],[0.28,0.99,0]];shape=mxgraph.kubernetes.icon2;kubernetesLabel=1;prIcon=pod;fontFamily=Computer Modern Serif;fontSource=https%3A%2F%2Fcdn.jsdelivr.net%2Fgh%2Fbitmaks%2Fcm-web-fonts%40latest%2Ffonts.css;" parent="1" vertex="1">
          <mxGeometry x="1153" y="36.500000000000036" width="49" height="48" as="geometry" />
        </mxCell>
        <mxCell id="8lUe4tizyEMZ4WDg3sNl-71" value="MLKOPS&lt;br&gt;Sidecar&lt;br&gt;Proxy" style="text;html=1;align=center;verticalAlign=middle;whiteSpace=wrap;rounded=0;fontFamily=Computer Modern Serif;fontSource=https%3A%2F%2Fcdn.jsdelivr.net%2Fgh%2Fbitmaks%2Fcm-web-fonts%40latest%2Ffonts.css;" parent="1" vertex="1">
          <mxGeometry x="1280" y="9.5" width="60" height="42" as="geometry" />
        </mxCell>
        <mxCell id="8lUe4tizyEMZ4WDg3sNl-72" value="Anomaly Detection Application" style="text;html=1;align=center;verticalAlign=middle;whiteSpace=wrap;rounded=0;fontFamily=Computer Modern Serif;fontSource=https%3A%2F%2Fcdn.jsdelivr.net%2Fgh%2Fbitmaks%2Fcm-web-fonts%40latest%2Ffonts.css;" parent="1" vertex="1">
          <mxGeometry x="1094" y="11.899999999999977" width="87" height="30" as="geometry" />
        </mxCell>
        <mxCell id="8lUe4tizyEMZ4WDg3sNl-73" value="" style="endArrow=classic;startArrow=classic;html=1;rounded=0;exitX=1;exitY=0.5;exitDx=0;exitDy=0;entryX=0;entryY=0.5;entryDx=0;entryDy=0;fontFamily=Computer Modern Serif;fontSource=https%3A%2F%2Fcdn.jsdelivr.net%2Fgh%2Fbitmaks%2Fcm-web-fonts%40latest%2Ffonts.css;" parent="1" source="8lUe4tizyEMZ4WDg3sNl-67" target="8lUe4tizyEMZ4WDg3sNl-68" edge="1">
          <mxGeometry width="50" height="50" relative="1" as="geometry">
            <mxPoint x="1263" y="91.5" as="sourcePoint" />
            <mxPoint x="1233" y="61.5" as="targetPoint" />
          </mxGeometry>
        </mxCell>
        <mxCell id="8lUe4tizyEMZ4WDg3sNl-74" value="" style="endArrow=classic;startArrow=classic;html=1;rounded=0;exitX=0.5;exitY=0;exitDx=0;exitDy=0;entryX=0.5;entryY=1;entryDx=0;entryDy=0;fillColor=#f8cecc;strokeColor=#b85450;strokeWidth=3;fontFamily=Computer Modern Serif;fontSource=https%3A%2F%2Fcdn.jsdelivr.net%2Fgh%2Fbitmaks%2Fcm-web-fonts%40latest%2Ffonts.css;" parent="1" source="8lUe4tizyEMZ4WDg3sNl-46" edge="1">
          <mxGeometry width="50" height="50" relative="1" as="geometry">
            <mxPoint x="950" y="100" as="sourcePoint" />
            <mxPoint x="1354" y="120.00000000000023" as="targetPoint" />
            <Array as="points">
              <mxPoint x="834" y="160" />
              <mxPoint x="1354" y="160" />
            </Array>
          </mxGeometry>
        </mxCell>
        <mxCell id="8lUe4tizyEMZ4WDg3sNl-75" value="" style="endArrow=classic;startArrow=classic;html=1;rounded=0;exitX=0.5;exitY=1;exitDx=0;exitDy=0;entryX=0.5;entryY=0;entryDx=0;entryDy=0;fontFamily=Computer Modern Serif;fontSource=https%3A%2F%2Fcdn.jsdelivr.net%2Fgh%2Fbitmaks%2Fcm-web-fonts%40latest%2Ffonts.css;" parent="1" source="8lUe4tizyEMZ4WDg3sNl-42" target="8lUe4tizyEMZ4WDg3sNl-25" edge="1">
          <mxGeometry width="50" height="50" relative="1" as="geometry">
            <mxPoint x="740" y="198" as="sourcePoint" />
            <mxPoint x="790" y="148" as="targetPoint" />
          </mxGeometry>
        </mxCell>
        <mxCell id="8lUe4tizyEMZ4WDg3sNl-76" value="" style="endArrow=classic;startArrow=classic;html=1;rounded=0;exitX=1;exitY=0.75;exitDx=0;exitDy=0;entryX=0;entryY=0.25;entryDx=0;entryDy=0;fontFamily=Computer Modern Serif;fontSource=https%3A%2F%2Fcdn.jsdelivr.net%2Fgh%2Fbitmaks%2Fcm-web-fonts%40latest%2Ffonts.css;" parent="1" source="8lUe4tizyEMZ4WDg3sNl-7" target="8lUe4tizyEMZ4WDg3sNl-2" edge="1">
          <mxGeometry width="50" height="50" relative="1" as="geometry">
            <mxPoint x="850" y="304" as="sourcePoint" />
            <mxPoint x="900" y="254" as="targetPoint" />
          </mxGeometry>
        </mxCell>
        <mxCell id="8lUe4tizyEMZ4WDg3sNl-77" value="" style="endArrow=classic;html=1;rounded=0;exitX=1;exitY=0.25;exitDx=0;exitDy=0;entryX=0.75;entryY=0;entryDx=0;entryDy=0;dashed=1;fontFamily=Computer Modern Serif;fontSource=https%3A%2F%2Fcdn.jsdelivr.net%2Fgh%2Fbitmaks%2Fcm-web-fonts%40latest%2Ffonts.css;" parent="1" edge="1">
          <mxGeometry width="50" height="50" relative="1" as="geometry">
            <mxPoint x="427" y="-103" as="sourcePoint" />
            <mxPoint x="1340" y="5.5" as="targetPoint" />
            <Array as="points">
              <mxPoint x="1340" y="-109" />
            </Array>
          </mxGeometry>
        </mxCell>
        <mxCell id="8lUe4tizyEMZ4WDg3sNl-78" value="" style="endArrow=classic;html=1;rounded=0;exitX=0.5;exitY=0;exitDx=0;exitDy=0;fontFamily=Computer Modern Serif;fontSource=https%3A%2F%2Fcdn.jsdelivr.net%2Fgh%2Fbitmaks%2Fcm-web-fonts%40latest%2Ffonts.css;" parent="1" source="8lUe4tizyEMZ4WDg3sNl-68" target="8lUe4tizyEMZ4WDg3sNl-42" edge="1">
          <mxGeometry width="50" height="50" relative="1" as="geometry">
            <mxPoint x="870" y="110" as="sourcePoint" />
            <mxPoint x="920" y="60" as="targetPoint" />
            <Array as="points">
              <mxPoint x="1310" y="-84" />
            </Array>
          </mxGeometry>
        </mxCell>
        <mxCell id="8lUe4tizyEMZ4WDg3sNl-79" value="" style="endArrow=classic;html=1;rounded=0;entryX=0.75;entryY=0;entryDx=0;entryDy=0;dashed=1;fontFamily=Computer Modern Serif;fontSource=https%3A%2F%2Fcdn.jsdelivr.net%2Fgh%2Fbitmaks%2Fcm-web-fonts%40latest%2Ffonts.css;" parent="1" target="8lUe4tizyEMZ4WDg3sNl-57" edge="1">
          <mxGeometry width="50" height="50" relative="1" as="geometry">
            <mxPoint x="1030" y="-100" as="sourcePoint" />
            <mxPoint x="1033" y="-110" as="targetPoint" />
          </mxGeometry>
        </mxCell>
        <mxCell id="8lUe4tizyEMZ4WDg3sNl-80" value="" style="endArrow=classic;html=1;rounded=0;entryX=0.75;entryY=0;entryDx=0;entryDy=0;dashed=1;fontFamily=Computer Modern Serif;fontSource=https%3A%2F%2Fcdn.jsdelivr.net%2Fgh%2Fbitmaks%2Fcm-web-fonts%40latest%2Ffonts.css;" parent="1" edge="1">
          <mxGeometry width="50" height="50" relative="1" as="geometry">
            <mxPoint x="716.05" y="-98.5" as="sourcePoint" />
            <mxPoint x="716.05" y="4.5" as="targetPoint" />
          </mxGeometry>
        </mxCell>
        <mxCell id="8lUe4tizyEMZ4WDg3sNl-81" value="" style="endArrow=none;html=1;rounded=0;exitX=0.5;exitY=0;exitDx=0;exitDy=0;fontFamily=Computer Modern Serif;fontSource=https%3A%2F%2Fcdn.jsdelivr.net%2Fgh%2Fbitmaks%2Fcm-web-fonts%40latest%2Ffonts.css;" parent="1" source="8lUe4tizyEMZ4WDg3sNl-32" edge="1">
          <mxGeometry width="50" height="50" relative="1" as="geometry">
            <mxPoint x="870" y="110" as="sourcePoint" />
            <mxPoint x="687" y="-80" as="targetPoint" />
          </mxGeometry>
        </mxCell>
        <mxCell id="8lUe4tizyEMZ4WDg3sNl-82" value="" style="endArrow=none;html=1;rounded=0;exitX=0.5;exitY=0;exitDx=0;exitDy=0;fontFamily=Computer Modern Serif;fontSource=https%3A%2F%2Fcdn.jsdelivr.net%2Fgh%2Fbitmaks%2Fcm-web-fonts%40latest%2Ffonts.css;" parent="1" edge="1">
          <mxGeometry width="50" height="50" relative="1" as="geometry">
            <mxPoint x="1001" y="1" as="sourcePoint" />
            <mxPoint x="1001" y="-82" as="targetPoint" />
          </mxGeometry>
        </mxCell>
        <mxCell id="8lUe4tizyEMZ4WDg3sNl-83" value="" style="rounded=1;whiteSpace=wrap;html=1;shadow=0;direction=east;fontFamily=Computer Modern Serif;fontSource=https%3A%2F%2Fcdn.jsdelivr.net%2Fgh%2Fbitmaks%2Fcm-web-fonts%40latest%2Ffonts.css;" parent="1" vertex="1">
          <mxGeometry x="892" y="326.4" width="493" height="355" as="geometry" />
        </mxCell>
        <mxCell id="8lUe4tizyEMZ4WDg3sNl-84" value="" style="rounded=0;whiteSpace=wrap;html=1;shadow=0;direction=east;fontFamily=Computer Modern Serif;fontSource=https%3A%2F%2Fcdn.jsdelivr.net%2Fgh%2Fbitmaks%2Fcm-web-fonts%40latest%2Ffonts.css;" parent="1" vertex="1">
          <mxGeometry x="903" y="484.79999999999995" width="293" height="172.8" as="geometry" />
        </mxCell>
        <mxCell id="8lUe4tizyEMZ4WDg3sNl-85" value="" style="shape=cylinder3;whiteSpace=wrap;html=1;boundedLbl=1;backgroundOutline=1;size=15;shadow=0;direction=east;fontFamily=Computer Modern Serif;fontSource=https%3A%2F%2Fcdn.jsdelivr.net%2Fgh%2Fbitmaks%2Fcm-web-fonts%40latest%2Ffonts.css;" parent="1" vertex="1">
          <mxGeometry x="1261" y="558.5" width="60" height="110" as="geometry" />
        </mxCell>
        <mxCell id="8lUe4tizyEMZ4WDg3sNl-86" value="ETCD" style="text;html=1;align=center;verticalAlign=middle;whiteSpace=wrap;rounded=0;shadow=0;direction=east;fontFamily=Computer Modern Serif;fontSource=https%3A%2F%2Fcdn.jsdelivr.net%2Fgh%2Fbitmaks%2Fcm-web-fonts%40latest%2Ffonts.css;" parent="1" vertex="1">
          <mxGeometry x="1262" y="581.5" width="60" height="30" as="geometry" />
        </mxCell>
        <mxCell id="8lUe4tizyEMZ4WDg3sNl-87" value="" style="aspect=fixed;html=1;dashed=0;whitespace=wrap;verticalLabelPosition=bottom;verticalAlign=top;fillColor=#2875E2;strokeColor=#ffffff;points=[[0.005,0.63,0],[0.1,0.2,0],[0.9,0.2,0],[0.5,0,0],[0.995,0.63,0],[0.72,0.99,0],[0.5,1,0],[0.28,0.99,0]];shape=mxgraph.kubernetes.icon2;prIcon=etcd;shadow=0;direction=east;fontFamily=Computer Modern Serif;fontSource=https%3A%2F%2Fcdn.jsdelivr.net%2Fgh%2Fbitmaks%2Fcm-web-fonts%40latest%2Ffonts.css;" parent="1" vertex="1">
          <mxGeometry x="1270" y="618.5" width="40" height="38.4" as="geometry" />
        </mxCell>
        <mxCell id="8lUe4tizyEMZ4WDg3sNl-88" value="" style="rounded=0;whiteSpace=wrap;html=1;shadow=0;direction=east;fontFamily=Computer Modern Serif;fontSource=https%3A%2F%2Fcdn.jsdelivr.net%2Fgh%2Fbitmaks%2Fcm-web-fonts%40latest%2Ffonts.css;" parent="1" vertex="1">
          <mxGeometry x="1231" y="341.09999999999997" width="120" height="80" as="geometry" />
        </mxCell>
        <mxCell id="8lUe4tizyEMZ4WDg3sNl-89" value="" style="rounded=0;whiteSpace=wrap;html=1;shadow=0;direction=east;fontFamily=Computer Modern Serif;fontSource=https%3A%2F%2Fcdn.jsdelivr.net%2Fgh%2Fbitmaks%2Fcm-web-fonts%40latest%2Ffonts.css;" parent="1" vertex="1">
          <mxGeometry x="1231" y="449.09999999999997" width="120" height="80" as="geometry" />
        </mxCell>
        <mxCell id="8lUe4tizyEMZ4WDg3sNl-90" value="" style="aspect=fixed;html=1;dashed=0;whitespace=wrap;verticalLabelPosition=bottom;verticalAlign=top;fillColor=#2875E2;strokeColor=#ffffff;points=[[0.005,0.63,0],[0.1,0.2,0],[0.9,0.2,0],[0.5,0,0],[0.995,0.63,0],[0.72,0.99,0],[0.5,1,0],[0.28,0.99,0]];shape=mxgraph.kubernetes.icon2;prIcon=c_m;shadow=0;direction=east;fontFamily=Computer Modern Serif;fontSource=https%3A%2F%2Fcdn.jsdelivr.net%2Fgh%2Fbitmaks%2Fcm-web-fonts%40latest%2Ffonts.css;" parent="1" vertex="1">
          <mxGeometry x="1263" y="478.59999999999997" width="50" height="48" as="geometry" />
        </mxCell>
        <mxCell id="8lUe4tizyEMZ4WDg3sNl-91" value="Kubernetes&lt;div&gt;Controller&lt;/div&gt;" style="text;html=1;align=center;verticalAlign=middle;whiteSpace=wrap;rounded=0;shadow=0;direction=east;fontFamily=Computer Modern Serif;fontSource=https%3A%2F%2Fcdn.jsdelivr.net%2Fgh%2Fbitmaks%2Fcm-web-fonts%40latest%2Ffonts.css;" parent="1" vertex="1">
          <mxGeometry x="1258" y="452.09999999999997" width="60" height="30" as="geometry" />
        </mxCell>
        <mxCell id="8lUe4tizyEMZ4WDg3sNl-92" value="" style="endArrow=classic;startArrow=classic;html=1;rounded=0;exitX=0.5;exitY=0;exitDx=0;exitDy=0;entryX=0.5;entryY=1;entryDx=0;entryDy=0;shadow=0;exitPerimeter=0;fontFamily=Computer Modern Serif;fontSource=https%3A%2F%2Fcdn.jsdelivr.net%2Fgh%2Fbitmaks%2Fcm-web-fonts%40latest%2Ffonts.css;" parent="1" source="8lUe4tizyEMZ4WDg3sNl-85" target="8lUe4tizyEMZ4WDg3sNl-89" edge="1">
          <mxGeometry width="50" height="50" relative="1" as="geometry">
            <mxPoint x="1348" y="626.1" as="sourcePoint" />
            <mxPoint x="1388" y="576.1" as="targetPoint" />
          </mxGeometry>
        </mxCell>
        <mxCell id="8lUe4tizyEMZ4WDg3sNl-93" value="&lt;b&gt;&lt;font style=&quot;font-size: 16px;&quot;&gt;Edge 2&lt;/font&gt;&lt;/b&gt;" style="text;html=1;align=center;verticalAlign=middle;whiteSpace=wrap;rounded=0;shadow=0;direction=east;fontFamily=Computer Modern Serif;fontSource=https%3A%2F%2Fcdn.jsdelivr.net%2Fgh%2Fbitmaks%2Fcm-web-fonts%40latest%2Ffonts.css;" parent="1" vertex="1">
          <mxGeometry x="1133" y="651.4" width="60" height="30" as="geometry" />
        </mxCell>
        <mxCell id="8lUe4tizyEMZ4WDg3sNl-94" value="MLKOPS Application" style="text;html=1;align=center;verticalAlign=middle;whiteSpace=wrap;rounded=0;shadow=0;direction=east;fontFamily=Computer Modern Serif;fontSource=https%3A%2F%2Fcdn.jsdelivr.net%2Fgh%2Fbitmaks%2Fcm-web-fonts%40latest%2Ffonts.css;" parent="1" vertex="1">
          <mxGeometry x="968" y="489.79999999999995" width="178" height="30" as="geometry" />
        </mxCell>
        <mxCell id="8lUe4tizyEMZ4WDg3sNl-95" value="" style="rounded=0;whiteSpace=wrap;html=1;shadow=0;direction=east;fontFamily=Computer Modern Serif;fontSource=https%3A%2F%2Fcdn.jsdelivr.net%2Fgh%2Fbitmaks%2Fcm-web-fonts%40latest%2Ffonts.css;" parent="1" vertex="1">
          <mxGeometry x="906" y="527.8" width="119" height="117" as="geometry" />
        </mxCell>
        <mxCell id="8lUe4tizyEMZ4WDg3sNl-96" value="" style="rounded=0;whiteSpace=wrap;html=1;shadow=0;direction=east;fontFamily=Computer Modern Serif;fontSource=https%3A%2F%2Fcdn.jsdelivr.net%2Fgh%2Fbitmaks%2Fcm-web-fonts%40latest%2Ffonts.css;" parent="1" vertex="1">
          <mxGeometry x="1073" y="527.8" width="120" height="117" as="geometry" />
        </mxCell>
        <mxCell id="8lUe4tizyEMZ4WDg3sNl-97" value="" style="aspect=fixed;html=1;dashed=0;whitespace=wrap;verticalLabelPosition=bottom;verticalAlign=top;fillColor=#2875E2;strokeColor=#ffffff;points=[[0.005,0.63,0],[0.1,0.2,0],[0.9,0.2,0],[0.5,0,0],[0.995,0.63,0],[0.72,0.99,0],[0.5,1,0],[0.28,0.99,0]];shape=mxgraph.kubernetes.icon2;kubernetesLabel=1;prIcon=pod;shadow=0;direction=east;fontFamily=Computer Modern Serif;fontSource=https%3A%2F%2Fcdn.jsdelivr.net%2Fgh%2Fbitmaks%2Fcm-web-fonts%40latest%2Ffonts.css;" parent="1" vertex="1">
          <mxGeometry x="1143" y="596.2" width="50" height="48" as="geometry" />
        </mxCell>
        <mxCell id="8lUe4tizyEMZ4WDg3sNl-98" value="" style="aspect=fixed;html=1;dashed=0;whitespace=wrap;verticalLabelPosition=bottom;verticalAlign=top;fillColor=#2875E2;strokeColor=#ffffff;points=[[0.005,0.63,0],[0.1,0.2,0],[0.9,0.2,0],[0.5,0,0],[0.995,0.63,0],[0.72,0.99,0],[0.5,1,0],[0.28,0.99,0]];shape=mxgraph.kubernetes.icon2;kubernetesLabel=1;prIcon=pod;shadow=0;direction=east;fontFamily=Computer Modern Serif;fontSource=https%3A%2F%2Fcdn.jsdelivr.net%2Fgh%2Fbitmaks%2Fcm-web-fonts%40latest%2Ffonts.css;" parent="1" vertex="1">
          <mxGeometry x="976" y="591.2" width="49" height="48" as="geometry" />
        </mxCell>
        <mxCell id="8lUe4tizyEMZ4WDg3sNl-99" value="MLKOPS&lt;br&gt;Sidecar&lt;br&gt;Proxy" style="text;html=1;align=center;verticalAlign=middle;whiteSpace=wrap;rounded=0;shadow=0;direction=east;fontFamily=Computer Modern Serif;fontSource=https%3A%2F%2Fcdn.jsdelivr.net%2Fgh%2Fbitmaks%2Fcm-web-fonts%40latest%2Ffonts.css;" parent="1" vertex="1">
          <mxGeometry x="1103" y="532.8" width="60" height="44.5" as="geometry" />
        </mxCell>
        <mxCell id="8lUe4tizyEMZ4WDg3sNl-100" value="Anomaly Detection Application" style="text;html=1;align=center;verticalAlign=middle;whiteSpace=wrap;rounded=0;shadow=0;direction=east;fontFamily=Computer Modern Serif;fontSource=https%3A%2F%2Fcdn.jsdelivr.net%2Fgh%2Fbitmaks%2Fcm-web-fonts%40latest%2Ffonts.css;" parent="1" vertex="1">
          <mxGeometry x="917" y="535.1999999999999" width="87" height="30" as="geometry" />
        </mxCell>
        <mxCell id="8lUe4tizyEMZ4WDg3sNl-101" value="" style="endArrow=classic;startArrow=classic;html=1;rounded=0;exitX=1;exitY=0.5;exitDx=0;exitDy=0;entryX=0;entryY=0.5;entryDx=0;entryDy=0;shadow=0;fontFamily=Computer Modern Serif;fontSource=https%3A%2F%2Fcdn.jsdelivr.net%2Fgh%2Fbitmaks%2Fcm-web-fonts%40latest%2Ffonts.css;" parent="1" source="8lUe4tizyEMZ4WDg3sNl-95" target="8lUe4tizyEMZ4WDg3sNl-96" edge="1">
          <mxGeometry width="50" height="50" relative="1" as="geometry">
            <mxPoint x="1086" y="614.8" as="sourcePoint" />
            <mxPoint x="1056" y="584.8" as="targetPoint" />
          </mxGeometry>
        </mxCell>
        <mxCell id="8lUe4tizyEMZ4WDg3sNl-102" value="" style="endArrow=classic;html=1;rounded=0;exitX=0.25;exitY=0;exitDx=0;exitDy=0;shadow=0;entryX=0;entryY=0.75;entryDx=0;entryDy=0;fontFamily=Computer Modern Serif;fontSource=https%3A%2F%2Fcdn.jsdelivr.net%2Fgh%2Fbitmaks%2Fcm-web-fonts%40latest%2Ffonts.css;" parent="1" source="8lUe4tizyEMZ4WDg3sNl-84" target="8lUe4tizyEMZ4WDg3sNl-88" edge="1">
          <mxGeometry width="50" height="50" relative="1" as="geometry">
            <mxPoint x="1126" y="489.79999999999995" as="sourcePoint" />
            <mxPoint x="1261" y="427.4" as="targetPoint" />
            <Array as="points">
              <mxPoint x="976" y="401.4" />
            </Array>
          </mxGeometry>
        </mxCell>
        <mxCell id="8lUe4tizyEMZ4WDg3sNl-103" value="" style="endArrow=classic;html=1;rounded=0;entryX=0.5;entryY=0;entryDx=0;entryDy=0;shadow=0;exitX=0;exitY=0.25;exitDx=0;exitDy=0;fontFamily=Computer Modern Serif;fontSource=https%3A%2F%2Fcdn.jsdelivr.net%2Fgh%2Fbitmaks%2Fcm-web-fonts%40latest%2Ffonts.css;" parent="1" source="8lUe4tizyEMZ4WDg3sNl-88" target="8lUe4tizyEMZ4WDg3sNl-96" edge="1">
          <mxGeometry width="50" height="50" relative="1" as="geometry">
            <mxPoint x="1261" y="383.4" as="sourcePoint" />
            <mxPoint x="1176" y="439.79999999999995" as="targetPoint" />
            <Array as="points">
              <mxPoint x="1131" y="363.4" />
            </Array>
          </mxGeometry>
        </mxCell>
        <mxCell id="8lUe4tizyEMZ4WDg3sNl-104" value="" style="aspect=fixed;html=1;dashed=0;whitespace=wrap;verticalLabelPosition=bottom;verticalAlign=top;fillColor=#2875E2;strokeColor=#ffffff;points=[[0.005,0.63,0],[0.1,0.2,0],[0.9,0.2,0],[0.5,0,0],[0.995,0.63,0],[0.72,0.99,0],[0.5,1,0],[0.28,0.99,0]];shape=mxgraph.kubernetes.icon2;prIcon=c_m;shadow=0;direction=east;fontFamily=Computer Modern Serif;fontSource=https%3A%2F%2Fcdn.jsdelivr.net%2Fgh%2Fbitmaks%2Fcm-web-fonts%40latest%2Ffonts.css;" parent="1" vertex="1">
          <mxGeometry x="1263" y="373.09999999999997" width="50" height="48" as="geometry" />
        </mxCell>
        <mxCell id="8lUe4tizyEMZ4WDg3sNl-105" value="&lt;span style=&quot;color: rgb(0, 0, 0); font-size: 12px; font-style: normal; font-variant-ligatures: normal; font-variant-caps: normal; font-weight: 400; letter-spacing: normal; orphans: 2; text-align: center; text-indent: 0px; text-transform: none; widows: 2; word-spacing: 0px; -webkit-text-stroke-width: 0px; white-space: normal; background-color: rgb(251, 251, 251); text-decoration-thickness: initial; text-decoration-style: initial; text-decoration-color: initial; float: none; display: inline !important;&quot;&gt;MLKOPS Controller&lt;/span&gt;" style="text;whiteSpace=wrap;html=1;shadow=0;direction=east;fontFamily=Computer Modern Serif;fontSource=https%3A%2F%2Fcdn.jsdelivr.net%2Fgh%2Fbitmaks%2Fcm-web-fonts%40latest%2Ffonts.css;" parent="1" vertex="1">
          <mxGeometry x="1259" y="341.09999999999997" width="58" height="40" as="geometry" />
        </mxCell>
        <mxCell id="8lUe4tizyEMZ4WDg3sNl-106" value="Ingress/Egress Gateway" style="rounded=1;whiteSpace=wrap;html=1;shadow=0;direction=east;fontFamily=Computer Modern Serif;fontSource=https%3A%2F%2Fcdn.jsdelivr.net%2Fgh%2Fbitmaks%2Fcm-web-fonts%40latest%2Ffonts.css;" parent="1" vertex="1">
          <mxGeometry x="903" y="299.4" width="160" height="60" as="geometry" />
        </mxCell>
        <mxCell id="8lUe4tizyEMZ4WDg3sNl-107" value="" style="endArrow=classic;startArrow=classic;html=1;rounded=0;exitX=0.85;exitY=-0.024;exitDx=0;exitDy=0;entryX=0.75;entryY=1;entryDx=0;entryDy=0;fillColor=#f8cecc;strokeColor=#b85450;strokeWidth=3;shadow=0;exitPerimeter=0;fontFamily=Computer Modern Serif;fontSource=https%3A%2F%2Fcdn.jsdelivr.net%2Fgh%2Fbitmaks%2Fcm-web-fonts%40latest%2Ffonts.css;" parent="1" source="8lUe4tizyEMZ4WDg3sNl-96" target="8lUe4tizyEMZ4WDg3sNl-106" edge="1">
          <mxGeometry width="50" height="50" relative="1" as="geometry">
            <mxPoint x="1316" y="312.29999999999995" as="sourcePoint" />
            <mxPoint x="1173" y="369.79999999999995" as="targetPoint" />
          </mxGeometry>
        </mxCell>
        <mxCell id="8lUe4tizyEMZ4WDg3sNl-108" value="" style="endArrow=classic;startArrow=classic;html=1;rounded=0;exitX=0.5;exitY=1;exitDx=0;exitDy=0;entryX=0.5;entryY=0;entryDx=0;entryDy=0;shadow=0;fontFamily=Computer Modern Serif;fontSource=https%3A%2F%2Fcdn.jsdelivr.net%2Fgh%2Fbitmaks%2Fcm-web-fonts%40latest%2Ffonts.css;" parent="1" source="8lUe4tizyEMZ4WDg3sNl-88" target="8lUe4tizyEMZ4WDg3sNl-89" edge="1">
          <mxGeometry width="50" height="50" relative="1" as="geometry">
            <mxPoint x="1541" y="493.6" as="sourcePoint" />
            <mxPoint x="1591" y="443.59999999999997" as="targetPoint" />
          </mxGeometry>
        </mxCell>
        <mxCell id="8lUe4tizyEMZ4WDg3sNl-109" value="" style="endArrow=classic;startArrow=classic;html=1;rounded=0;entryX=1;entryY=0.75;entryDx=0;entryDy=0;exitX=1;exitY=0.5;exitDx=0;exitDy=0;shadow=0;exitPerimeter=0;fontFamily=Computer Modern Serif;fontSource=https%3A%2F%2Fcdn.jsdelivr.net%2Fgh%2Fbitmaks%2Fcm-web-fonts%40latest%2Ffonts.css;" parent="1" source="8lUe4tizyEMZ4WDg3sNl-85" target="8lUe4tizyEMZ4WDg3sNl-88" edge="1">
          <mxGeometry width="50" height="50" relative="1" as="geometry">
            <mxPoint x="1552" y="493.6" as="sourcePoint" />
            <mxPoint x="1602" y="443.59999999999997" as="targetPoint" />
            <Array as="points">
              <mxPoint x="1371" y="613.4" />
              <mxPoint x="1371" y="403.4" />
            </Array>
          </mxGeometry>
        </mxCell>
        <mxCell id="8lUe4tizyEMZ4WDg3sNl-110" value="" style="endArrow=classic;startArrow=classic;html=1;rounded=0;exitX=0;exitY=0.75;exitDx=0;exitDy=0;entryX=1;entryY=0.25;entryDx=0;entryDy=0;shadow=0;fontFamily=Computer Modern Serif;fontSource=https%3A%2F%2Fcdn.jsdelivr.net%2Fgh%2Fbitmaks%2Fcm-web-fonts%40latest%2Ffonts.css;" parent="1" source="8lUe4tizyEMZ4WDg3sNl-89" target="8lUe4tizyEMZ4WDg3sNl-84" edge="1">
          <mxGeometry width="50" height="50" relative="1" as="geometry">
            <mxPoint x="1296" y="309.79999999999995" as="sourcePoint" />
            <mxPoint x="1346" y="259.79999999999995" as="targetPoint" />
          </mxGeometry>
        </mxCell>
      </root>
    </mxGraphModel>
  </diagram>
  <diagram id="MU6wtscjHCjVGDw0ddKT" name="arch">
    <mxGraphModel dx="1680" dy="1154" grid="1" gridSize="10" guides="1" tooltips="1" connect="1" arrows="1" fold="1" page="1" pageScale="1" pageWidth="827" pageHeight="1169" math="0" shadow="0">
      <root>
        <mxCell id="0" />
        <mxCell id="1" parent="0" />
        <mxCell id="8uThU1zf0dNOL8u6CPZt-1" value="" style="rounded=1;whiteSpace=wrap;html=1;fillColor=#E0EFFF;strokeColor=none;fontFamily=Times New Roman;" parent="1" vertex="1">
          <mxGeometry x="80" y="729.45" width="440" height="300" as="geometry" />
        </mxCell>
        <mxCell id="8uThU1zf0dNOL8u6CPZt-2" value="v" style="shape=cylinder3;whiteSpace=wrap;html=1;boundedLbl=1;backgroundOutline=1;size=10.086138211763569;fontFamily=Times New Roman;" parent="1" vertex="1">
          <mxGeometry x="150" y="909.45" width="60" height="100" as="geometry" />
        </mxCell>
        <mxCell id="8uThU1zf0dNOL8u6CPZt-3" value="ETCD" style="text;html=1;align=center;verticalAlign=middle;whiteSpace=wrap;rounded=0;fontFamily=Times New Roman;" parent="1" vertex="1">
          <mxGeometry x="150" y="929.95" width="60" height="30" as="geometry" />
        </mxCell>
        <mxCell id="8uThU1zf0dNOL8u6CPZt-4" value="" style="aspect=fixed;sketch=0;html=1;dashed=0;whitespace=wrap;verticalLabelPosition=bottom;verticalAlign=top;fillColor=#2875E2;strokeColor=#ffffff;points=[[0.005,0.63,0],[0.1,0.2,0],[0.9,0.2,0],[0.5,0,0],[0.995,0.63,0],[0.72,0.99,0],[0.5,1,0],[0.28,0.99,0]];shape=mxgraph.kubernetes.icon2;prIcon=etcd;fontFamily=Times New Roman;" parent="1" vertex="1">
          <mxGeometry x="160" y="959.95" width="40" height="38.4" as="geometry" />
        </mxCell>
        <mxCell id="8uThU1zf0dNOL8u6CPZt-5" value="" style="rounded=0;whiteSpace=wrap;html=1;fillColor=#E6FFCC;fontFamily=Times New Roman;" parent="1" vertex="1">
          <mxGeometry x="120" y="749.45" width="120" height="50" as="geometry" />
        </mxCell>
        <mxCell id="8uThU1zf0dNOL8u6CPZt-6" value="" style="rounded=0;whiteSpace=wrap;html=1;fontFamily=Times New Roman;" parent="1" vertex="1">
          <mxGeometry x="120" y="829.45" width="120" height="50" as="geometry" />
        </mxCell>
        <mxCell id="8uThU1zf0dNOL8u6CPZt-7" value="" style="aspect=fixed;sketch=0;html=1;dashed=0;whitespace=wrap;verticalLabelPosition=bottom;verticalAlign=top;fillColor=#2875E2;strokeColor=#ffffff;points=[[0.005,0.63,0],[0.1,0.2,0],[0.9,0.2,0],[0.5,0,0],[0.995,0.63,0],[0.72,0.99,0],[0.5,1,0],[0.28,0.99,0]];shape=mxgraph.kubernetes.icon2;prIcon=c_m;fontFamily=Times New Roman;" parent="1" vertex="1">
          <mxGeometry x="190" y="830.45" width="50" height="48" as="geometry" />
        </mxCell>
        <mxCell id="8uThU1zf0dNOL8u6CPZt-8" value="Kubernetes&lt;div&gt;Controller&lt;/div&gt;" style="text;html=1;align=center;verticalAlign=middle;whiteSpace=wrap;rounded=0;fontFamily=Times New Roman;" parent="1" vertex="1">
          <mxGeometry x="120" y="839.45" width="60" height="30" as="geometry" />
        </mxCell>
        <mxCell id="8uThU1zf0dNOL8u6CPZt-9" value="" style="endArrow=classic;startArrow=classic;html=1;rounded=0;exitX=0.5;exitY=0;exitDx=0;exitDy=0;exitPerimeter=0;entryX=0.5;entryY=1;entryDx=0;entryDy=0;fontFamily=Times New Roman;" parent="1" source="8uThU1zf0dNOL8u6CPZt-2" target="8uThU1zf0dNOL8u6CPZt-6" edge="1">
          <mxGeometry width="50" height="50" relative="1" as="geometry">
            <mxPoint x="237" y="1008.45" as="sourcePoint" />
            <mxPoint x="277" y="958.45" as="targetPoint" />
          </mxGeometry>
        </mxCell>
        <mxCell id="8uThU1zf0dNOL8u6CPZt-10" value="&lt;b&gt;&lt;font data-font-src=&quot;https://www.1001fonts.com/download/cmu.zip&quot;&gt;Edge 1&lt;/font&gt;&lt;/b&gt;" style="text;html=1;align=center;verticalAlign=middle;whiteSpace=wrap;rounded=0;fontFamily=Times New Roman;" parent="1" vertex="1">
          <mxGeometry x="270" y="998.35" width="60" height="30" as="geometry" />
        </mxCell>
        <mxCell id="8uThU1zf0dNOL8u6CPZt-11" value="" style="rounded=1;whiteSpace=wrap;html=1;fillColor=#FFFBD0;strokeColor=none;fontFamily=Times New Roman;" parent="1" vertex="1">
          <mxGeometry x="80" y="360" width="1000" height="300" as="geometry" />
        </mxCell>
        <mxCell id="8uThU1zf0dNOL8u6CPZt-12" value="" style="aspect=fixed;sketch=0;html=1;dashed=0;whitespace=wrap;verticalLabelPosition=bottom;verticalAlign=top;fillColor=#2875E2;strokeColor=#ffffff;points=[[0.005,0.63,0],[0.1,0.2,0],[0.9,0.2,0],[0.5,0,0],[0.995,0.63,0],[0.72,0.99,0],[0.5,1,0],[0.28,0.99,0]];shape=mxgraph.kubernetes.icon2;prIcon=c_m;fontFamily=Times New Roman;" parent="1" vertex="1">
          <mxGeometry x="191" y="751.4100000000001" width="48" height="46.08" as="geometry" />
        </mxCell>
        <mxCell id="8uThU1zf0dNOL8u6CPZt-13" value="&lt;span style=&quot;color: rgb(0, 0, 0); font-size: 12px; font-style: normal; font-variant-ligatures: normal; font-variant-caps: normal; font-weight: 400; letter-spacing: normal; orphans: 2; text-indent: 0px; text-transform: none; widows: 2; word-spacing: 0px; -webkit-text-stroke-width: 0px; white-space: normal; text-decoration-thickness: initial; text-decoration-style: initial; text-decoration-color: initial; float: none; display: inline !important;&quot;&gt;&lt;font&gt;MLCOps Controller&lt;/font&gt;&lt;/span&gt;" style="text;whiteSpace=wrap;html=1;align=center;fontFamily=Times New Roman;" parent="1" vertex="1">
          <mxGeometry x="122" y="754.45" width="58" height="40" as="geometry" />
        </mxCell>
        <mxCell id="8uThU1zf0dNOL8u6CPZt-14" value="" style="endArrow=classic;startArrow=classic;html=1;rounded=0;entryX=0;entryY=0.5;entryDx=0;entryDy=0;exitX=0;exitY=0.5;exitDx=0;exitDy=0;fillColor=#fff2cc;strokeColor=#D6B656;strokeWidth=3;fontFamily=Times New Roman;" parent="1" source="8uThU1zf0dNOL8u6CPZt-5" target="8uThU1zf0dNOL8u6CPZt-75" edge="1">
          <mxGeometry width="50" height="50" relative="1" as="geometry">
            <mxPoint x="130" y="490" as="sourcePoint" />
            <mxPoint x="60" y="366" as="targetPoint" />
            <Array as="points">
              <mxPoint x="40" y="774" />
              <mxPoint x="40" y="405" />
            </Array>
          </mxGeometry>
        </mxCell>
        <mxCell id="8uThU1zf0dNOL8u6CPZt-15" value="&lt;font data-font-src=&quot;https://www.1001fonts.com/download/cmu.zip&quot;&gt;Ingress/Egress Gateway&lt;/font&gt;" style="rounded=1;whiteSpace=wrap;html=1;fontFamily=Times New Roman;" parent="1" vertex="1">
          <mxGeometry x="490" y="640" width="160" height="40" as="geometry" />
        </mxCell>
        <mxCell id="8uThU1zf0dNOL8u6CPZt-16" value="&lt;font data-font-src=&quot;https://www.1001fonts.com/download/cmu.zip&quot;&gt;Ingress/Egress Gateway&lt;/font&gt;" style="rounded=1;whiteSpace=wrap;html=1;fontFamily=Times New Roman;" parent="1" vertex="1">
          <mxGeometry x="340" y="710.55" width="160" height="40" as="geometry" />
        </mxCell>
        <mxCell id="8uThU1zf0dNOL8u6CPZt-17" value="" style="endArrow=classic;startArrow=classic;html=1;rounded=0;exitX=0.5;exitY=0;exitDx=0;exitDy=0;entryX=0;entryY=1;entryDx=0;entryDy=0;strokeWidth=3;fillColor=#f8cecc;strokeColor=#b85450;fontFamily=Times New Roman;" parent="1" source="8uThU1zf0dNOL8u6CPZt-16" target="8uThU1zf0dNOL8u6CPZt-15" edge="1">
          <mxGeometry width="50" height="50" relative="1" as="geometry">
            <mxPoint x="590" y="820" as="sourcePoint" />
            <mxPoint x="504" y="670" as="targetPoint" />
          </mxGeometry>
        </mxCell>
        <mxCell id="8uThU1zf0dNOL8u6CPZt-18" value="" style="endArrow=classic;startArrow=classic;html=1;rounded=0;exitX=0.5;exitY=0;exitDx=0;exitDy=0;entryX=1;entryY=1;entryDx=0;entryDy=0;strokeWidth=3;fillColor=#f8cecc;strokeColor=#b85450;fontFamily=Times New Roman;" parent="1" source="8uThU1zf0dNOL8u6CPZt-31" target="8uThU1zf0dNOL8u6CPZt-15" edge="1">
          <mxGeometry width="50" height="50" relative="1" as="geometry">
            <mxPoint x="691" y="660" as="sourcePoint" />
            <mxPoint x="669" y="670" as="targetPoint" />
          </mxGeometry>
        </mxCell>
        <mxCell id="8uThU1zf0dNOL8u6CPZt-19" value="" style="endArrow=classic;startArrow=classic;html=1;rounded=0;exitX=0.672;exitY=-0.098;exitDx=0;exitDy=0;entryX=0.5;entryY=1;entryDx=0;entryDy=0;fillColor=#f8cecc;strokeColor=#b85450;strokeWidth=3;exitPerimeter=0;fontFamily=Times New Roman;" parent="1" edge="1">
          <mxGeometry width="50" height="50" relative="1" as="geometry">
            <mxPoint x="471.28" y="885.01" as="sourcePoint" />
            <mxPoint x="470" y="750.55" as="targetPoint" />
          </mxGeometry>
        </mxCell>
        <mxCell id="8uThU1zf0dNOL8u6CPZt-20" value="" style="endArrow=classic;startArrow=classic;html=1;rounded=0;exitX=0.5;exitY=1;exitDx=0;exitDy=0;entryX=0.5;entryY=0;entryDx=0;entryDy=0;fontFamily=Times New Roman;" parent="1" source="8uThU1zf0dNOL8u6CPZt-5" target="8uThU1zf0dNOL8u6CPZt-6" edge="1">
          <mxGeometry width="50" height="50" relative="1" as="geometry">
            <mxPoint x="430" y="875.95" as="sourcePoint" />
            <mxPoint x="480" y="825.95" as="targetPoint" />
          </mxGeometry>
        </mxCell>
        <mxCell id="8uThU1zf0dNOL8u6CPZt-21" value="" style="endArrow=classic;startArrow=classic;html=1;rounded=0;entryX=0;entryY=0.75;entryDx=0;entryDy=0;exitX=0;exitY=0.5;exitDx=0;exitDy=0;exitPerimeter=0;fontFamily=Times New Roman;" parent="1" source="8uThU1zf0dNOL8u6CPZt-2" target="8uThU1zf0dNOL8u6CPZt-5" edge="1">
          <mxGeometry width="50" height="50" relative="1" as="geometry">
            <mxPoint x="430" y="875.95" as="sourcePoint" />
            <mxPoint x="480" y="825.95" as="targetPoint" />
            <Array as="points">
              <mxPoint x="100" y="959.45" />
              <mxPoint x="100" y="786.45" />
            </Array>
          </mxGeometry>
        </mxCell>
        <mxCell id="8uThU1zf0dNOL8u6CPZt-22" value="" style="endArrow=classic;startArrow=classic;html=1;rounded=0;exitX=1;exitY=1;exitDx=0;exitDy=0;entryX=0.013;entryY=0.197;entryDx=0;entryDy=0;entryPerimeter=0;fontFamily=Times New Roman;" parent="1" source="8uThU1zf0dNOL8u6CPZt-6" edge="1">
          <mxGeometry width="50" height="50" relative="1" as="geometry">
            <mxPoint x="660" y="673.45" as="sourcePoint" />
            <mxPoint x="263.1199999999999" y="893.8599999999999" as="targetPoint" />
          </mxGeometry>
        </mxCell>
        <mxCell id="8uThU1zf0dNOL8u6CPZt-23" value="" style="rounded=1;whiteSpace=wrap;html=1;fillColor=#FFEFE1;fontFamily=Times New Roman;" parent="1" vertex="1">
          <mxGeometry x="260" y="887.95" width="240" height="100" as="geometry" />
        </mxCell>
        <mxCell id="8uThU1zf0dNOL8u6CPZt-24" value="" style="rounded=0;whiteSpace=wrap;html=1;fontFamily=Times New Roman;" parent="1" vertex="1">
          <mxGeometry x="270" y="919.95" width="80" height="60" as="geometry" />
        </mxCell>
        <mxCell id="8uThU1zf0dNOL8u6CPZt-25" value="ML Service" style="text;html=1;align=center;verticalAlign=middle;whiteSpace=wrap;rounded=0;fontFamily=Times New Roman;" parent="1" vertex="1">
          <mxGeometry x="278.5" y="934.95" width="63" height="30" as="geometry" />
        </mxCell>
        <mxCell id="8uThU1zf0dNOL8u6CPZt-26" value="" style="aspect=fixed;sketch=0;html=1;dashed=0;whitespace=wrap;verticalLabelPosition=bottom;verticalAlign=top;fillColor=#2875E2;strokeColor=#ffffff;points=[[0.005,0.63,0],[0.1,0.2,0],[0.9,0.2,0],[0.5,0,0],[0.995,0.63,0],[0.72,0.99,0],[0.5,1,0],[0.28,0.99,0]];shape=mxgraph.kubernetes.icon2;kubernetesLabel=1;prIcon=pod;fontFamily=Times New Roman;" parent="1" vertex="1">
          <mxGeometry x="446.5" y="924.9500000000002" width="49" height="48" as="geometry" />
        </mxCell>
        <mxCell id="8uThU1zf0dNOL8u6CPZt-27" value="" style="endArrow=classic;startArrow=classic;html=1;rounded=0;entryX=0;entryY=0.5;entryDx=0;entryDy=0;fontFamily=Times New Roman;" parent="1" edge="1">
          <mxGeometry width="50" height="50" relative="1" as="geometry">
            <mxPoint x="350" y="949.74" as="sourcePoint" />
            <mxPoint x="390" y="949.7399999999999" as="targetPoint" />
          </mxGeometry>
        </mxCell>
        <mxCell id="8uThU1zf0dNOL8u6CPZt-28" value="" style="rounded=0;whiteSpace=wrap;html=1;fontFamily=Times New Roman;" parent="1" vertex="1">
          <mxGeometry x="390" y="919.95" width="50" height="60" as="geometry" />
        </mxCell>
        <mxCell id="8uThU1zf0dNOL8u6CPZt-29" value="Sidecar&lt;div&gt;Proxy&lt;/div&gt;" style="text;html=1;align=center;verticalAlign=middle;whiteSpace=wrap;rounded=0;fontFamily=Times New Roman;" parent="1" vertex="1">
          <mxGeometry x="383.5" y="933.95" width="63" height="30" as="geometry" />
        </mxCell>
        <mxCell id="8uThU1zf0dNOL8u6CPZt-30" value="" style="rounded=1;whiteSpace=wrap;html=1;fillColor=#E0EFFF;strokeColor=none;fontFamily=Times New Roman;" parent="1" vertex="1">
          <mxGeometry x="640" y="729.45" width="440" height="300" as="geometry" />
        </mxCell>
        <mxCell id="8uThU1zf0dNOL8u6CPZt-31" value="&lt;font data-font-src=&quot;https://www.1001fonts.com/download/cmu.zip&quot;&gt;Ingress/Egress Gateway&lt;/font&gt;" style="rounded=1;whiteSpace=wrap;html=1;fontFamily=Times New Roman;" parent="1" vertex="1">
          <mxGeometry x="660" y="710.55" width="160" height="40" as="geometry" />
        </mxCell>
        <mxCell id="8uThU1zf0dNOL8u6CPZt-32" value="v" style="shape=cylinder3;whiteSpace=wrap;html=1;boundedLbl=1;backgroundOutline=1;size=10.086138211763569;fontFamily=Times New Roman;" parent="1" vertex="1">
          <mxGeometry x="950" y="911.4100000000001" width="60" height="100" as="geometry" />
        </mxCell>
        <mxCell id="8uThU1zf0dNOL8u6CPZt-33" value="ETCD" style="text;html=1;align=center;verticalAlign=middle;whiteSpace=wrap;rounded=0;fontFamily=Times New Roman;" parent="1" vertex="1">
          <mxGeometry x="950" y="931.9100000000001" width="60" height="30" as="geometry" />
        </mxCell>
        <mxCell id="8uThU1zf0dNOL8u6CPZt-34" value="" style="aspect=fixed;sketch=0;html=1;dashed=0;whitespace=wrap;verticalLabelPosition=bottom;verticalAlign=top;fillColor=#2875E2;strokeColor=#ffffff;points=[[0.005,0.63,0],[0.1,0.2,0],[0.9,0.2,0],[0.5,0,0],[0.995,0.63,0],[0.72,0.99,0],[0.5,1,0],[0.28,0.99,0]];shape=mxgraph.kubernetes.icon2;prIcon=etcd;fontFamily=Times New Roman;" parent="1" vertex="1">
          <mxGeometry x="960" y="961.9100000000001" width="40" height="38.4" as="geometry" />
        </mxCell>
        <mxCell id="8uThU1zf0dNOL8u6CPZt-35" value="" style="rounded=0;whiteSpace=wrap;html=1;fillColor=#E6FFCC;fontFamily=Times New Roman;" parent="1" vertex="1">
          <mxGeometry x="920" y="751.41" width="120" height="50" as="geometry" />
        </mxCell>
        <mxCell id="8uThU1zf0dNOL8u6CPZt-36" value="" style="rounded=0;whiteSpace=wrap;html=1;fontFamily=Times New Roman;" parent="1" vertex="1">
          <mxGeometry x="920" y="831.41" width="120" height="50" as="geometry" />
        </mxCell>
        <mxCell id="8uThU1zf0dNOL8u6CPZt-37" value="" style="aspect=fixed;sketch=0;html=1;dashed=0;whitespace=wrap;verticalLabelPosition=bottom;verticalAlign=top;fillColor=#2875E2;strokeColor=#ffffff;points=[[0.005,0.63,0],[0.1,0.2,0],[0.9,0.2,0],[0.5,0,0],[0.995,0.63,0],[0.72,0.99,0],[0.5,1,0],[0.28,0.99,0]];shape=mxgraph.kubernetes.icon2;prIcon=c_m;fontFamily=Times New Roman;" parent="1" vertex="1">
          <mxGeometry x="990" y="832.41" width="50" height="48" as="geometry" />
        </mxCell>
        <mxCell id="8uThU1zf0dNOL8u6CPZt-38" value="Kubernetes&lt;div&gt;Controller&lt;/div&gt;" style="text;html=1;align=center;verticalAlign=middle;whiteSpace=wrap;rounded=0;fontFamily=Times New Roman;" parent="1" vertex="1">
          <mxGeometry x="920" y="841.41" width="60" height="30" as="geometry" />
        </mxCell>
        <mxCell id="8uThU1zf0dNOL8u6CPZt-39" value="" style="endArrow=classic;startArrow=classic;html=1;rounded=0;exitX=0.5;exitY=0;exitDx=0;exitDy=0;exitPerimeter=0;entryX=0.5;entryY=1;entryDx=0;entryDy=0;fontFamily=Times New Roman;" parent="1" source="8uThU1zf0dNOL8u6CPZt-32" target="8uThU1zf0dNOL8u6CPZt-36" edge="1">
          <mxGeometry width="50" height="50" relative="1" as="geometry">
            <mxPoint x="1037" y="1010.4100000000001" as="sourcePoint" />
            <mxPoint x="1077" y="960.4100000000001" as="targetPoint" />
          </mxGeometry>
        </mxCell>
        <mxCell id="8uThU1zf0dNOL8u6CPZt-40" value="" style="aspect=fixed;sketch=0;html=1;dashed=0;whitespace=wrap;verticalLabelPosition=bottom;verticalAlign=top;fillColor=#2875E2;strokeColor=#ffffff;points=[[0.005,0.63,0],[0.1,0.2,0],[0.9,0.2,0],[0.5,0,0],[0.995,0.63,0],[0.72,0.99,0],[0.5,1,0],[0.28,0.99,0]];shape=mxgraph.kubernetes.icon2;prIcon=c_m;fontFamily=Times New Roman;" parent="1" vertex="1">
          <mxGeometry x="991" y="753.37" width="48" height="46.08" as="geometry" />
        </mxCell>
        <mxCell id="8uThU1zf0dNOL8u6CPZt-41" value="&lt;span style=&quot;color: rgb(0, 0, 0); font-size: 12px; font-style: normal; font-variant-ligatures: normal; font-variant-caps: normal; font-weight: 400; letter-spacing: normal; orphans: 2; text-indent: 0px; text-transform: none; widows: 2; word-spacing: 0px; -webkit-text-stroke-width: 0px; white-space: normal; text-decoration-thickness: initial; text-decoration-style: initial; text-decoration-color: initial; float: none; display: inline !important;&quot;&gt;&lt;font&gt;MLCOps Controller&lt;/font&gt;&lt;/span&gt;" style="text;whiteSpace=wrap;html=1;align=center;fontFamily=Times New Roman;" parent="1" vertex="1">
          <mxGeometry x="922" y="756.41" width="58" height="40" as="geometry" />
        </mxCell>
        <mxCell id="8uThU1zf0dNOL8u6CPZt-42" value="" style="endArrow=classic;startArrow=classic;html=1;rounded=0;exitX=0.5;exitY=1;exitDx=0;exitDy=0;entryX=0.5;entryY=0;entryDx=0;entryDy=0;fontFamily=Times New Roman;" parent="1" source="8uThU1zf0dNOL8u6CPZt-35" target="8uThU1zf0dNOL8u6CPZt-36" edge="1">
          <mxGeometry width="50" height="50" relative="1" as="geometry">
            <mxPoint x="1230" y="877.91" as="sourcePoint" />
            <mxPoint x="1280" y="827.91" as="targetPoint" />
          </mxGeometry>
        </mxCell>
        <mxCell id="8uThU1zf0dNOL8u6CPZt-43" value="" style="endArrow=classic;startArrow=classic;html=1;rounded=0;entryX=1;entryY=0.75;entryDx=0;entryDy=0;exitX=1;exitY=0.5;exitDx=0;exitDy=0;exitPerimeter=0;fontFamily=Times New Roman;" parent="1" source="8uThU1zf0dNOL8u6CPZt-32" target="8uThU1zf0dNOL8u6CPZt-35" edge="1">
          <mxGeometry width="50" height="50" relative="1" as="geometry">
            <mxPoint x="1230" y="877.91" as="sourcePoint" />
            <mxPoint x="1280" y="827.91" as="targetPoint" />
            <Array as="points">
              <mxPoint x="1060" y="961.45" />
              <mxPoint x="1060" y="788.45" />
            </Array>
          </mxGeometry>
        </mxCell>
        <mxCell id="8uThU1zf0dNOL8u6CPZt-44" value="&lt;b&gt;&lt;font data-font-src=&quot;https://www.1001fonts.com/download/cmu.zip&quot;&gt;Edge 2&lt;/font&gt;&lt;/b&gt;" style="text;html=1;align=center;verticalAlign=middle;whiteSpace=wrap;rounded=0;fontFamily=Times New Roman;" parent="1" vertex="1">
          <mxGeometry x="830" y="998.35" width="60" height="30" as="geometry" />
        </mxCell>
        <mxCell id="8uThU1zf0dNOL8u6CPZt-45" value="" style="endArrow=classic;startArrow=classic;html=1;rounded=0;exitX=0;exitY=1;exitDx=0;exitDy=0;entryX=0.983;entryY=0.042;entryDx=0;entryDy=0;entryPerimeter=0;fontFamily=Times New Roman;" parent="1" source="8uThU1zf0dNOL8u6CPZt-36" target="8uThU1zf0dNOL8u6CPZt-46" edge="1">
          <mxGeometry width="50" height="50" relative="1" as="geometry">
            <mxPoint x="910" y="881.4100000000003" as="sourcePoint" />
            <mxPoint x="667" y="893.6099999999999" as="targetPoint" />
          </mxGeometry>
        </mxCell>
        <mxCell id="8uThU1zf0dNOL8u6CPZt-46" value="" style="rounded=1;whiteSpace=wrap;html=1;fillColor=#F2E1FF;fontFamily=Times New Roman;" parent="1" vertex="1">
          <mxGeometry x="660" y="889.9100000000001" width="240" height="100" as="geometry" />
        </mxCell>
        <mxCell id="8uThU1zf0dNOL8u6CPZt-47" value="" style="rounded=0;whiteSpace=wrap;html=1;fontFamily=Times New Roman;" parent="1" vertex="1">
          <mxGeometry x="670" y="921.9100000000001" width="80" height="60" as="geometry" />
        </mxCell>
        <mxCell id="8uThU1zf0dNOL8u6CPZt-48" value="ML Service" style="text;html=1;align=center;verticalAlign=middle;whiteSpace=wrap;rounded=0;fontFamily=Times New Roman;" parent="1" vertex="1">
          <mxGeometry x="678.5" y="936.9100000000001" width="63" height="30" as="geometry" />
        </mxCell>
        <mxCell id="8uThU1zf0dNOL8u6CPZt-49" value="" style="aspect=fixed;sketch=0;html=1;dashed=0;whitespace=wrap;verticalLabelPosition=bottom;verticalAlign=top;fillColor=#2875E2;strokeColor=#ffffff;points=[[0.005,0.63,0],[0.1,0.2,0],[0.9,0.2,0],[0.5,0,0],[0.995,0.63,0],[0.72,0.99,0],[0.5,1,0],[0.28,0.99,0]];shape=mxgraph.kubernetes.icon2;kubernetesLabel=1;prIcon=pod;fontFamily=Times New Roman;" parent="1" vertex="1">
          <mxGeometry x="846.5" y="926.9100000000002" width="49" height="48" as="geometry" />
        </mxCell>
        <mxCell id="8uThU1zf0dNOL8u6CPZt-50" value="" style="endArrow=classic;startArrow=classic;html=1;rounded=0;entryX=0;entryY=0.5;entryDx=0;entryDy=0;fontFamily=Times New Roman;" parent="1" edge="1">
          <mxGeometry width="50" height="50" relative="1" as="geometry">
            <mxPoint x="750" y="951.7" as="sourcePoint" />
            <mxPoint x="790" y="951.6999999999999" as="targetPoint" />
          </mxGeometry>
        </mxCell>
        <mxCell id="8uThU1zf0dNOL8u6CPZt-51" value="" style="rounded=0;whiteSpace=wrap;html=1;fontFamily=Times New Roman;" parent="1" vertex="1">
          <mxGeometry x="790" y="921.9100000000001" width="50" height="60" as="geometry" />
        </mxCell>
        <mxCell id="8uThU1zf0dNOL8u6CPZt-52" value="Sidecar&lt;div&gt;Proxy&lt;/div&gt;" style="text;html=1;align=center;verticalAlign=middle;whiteSpace=wrap;rounded=0;fontFamily=Times New Roman;" parent="1" vertex="1">
          <mxGeometry x="783.5" y="935.9100000000001" width="63" height="30" as="geometry" />
        </mxCell>
        <mxCell id="8uThU1zf0dNOL8u6CPZt-53" value="&lt;span style=&quot;&quot;&gt;MLCOps Deployment B&lt;/span&gt;" style="text;html=1;align=center;verticalAlign=middle;whiteSpace=wrap;rounded=0;fontFamily=Times New Roman;" parent="1" vertex="1">
          <mxGeometry x="655" y="889.9100000000001" width="150" height="30" as="geometry" />
        </mxCell>
        <mxCell id="8uThU1zf0dNOL8u6CPZt-54" value="" style="endArrow=classic;startArrow=classic;html=1;rounded=0;exitX=0.672;exitY=-0.098;exitDx=0;exitDy=0;entryX=0.5;entryY=1;entryDx=0;entryDy=0;fillColor=#f8cecc;strokeColor=#b85450;strokeWidth=3;exitPerimeter=0;fontFamily=Times New Roman;" parent="1" edge="1">
          <mxGeometry width="50" height="50" relative="1" as="geometry">
            <mxPoint x="691" y="886.4100000000001" as="sourcePoint" />
            <mxPoint x="690" y="751.4100000000001" as="targetPoint" />
          </mxGeometry>
        </mxCell>
        <mxCell id="8uThU1zf0dNOL8u6CPZt-55" value="" style="endArrow=none;html=1;rounded=0;exitX=0.5;exitY=0;exitDx=0;exitDy=0;entryX=-0.035;entryY=0.821;entryDx=0;entryDy=0;entryPerimeter=0;startArrow=classic;startFill=1;dashed=1;strokeColor=#67AB9F;strokeWidth=2;fontFamily=Times New Roman;" parent="1" source="8uThU1zf0dNOL8u6CPZt-51" target="8uThU1zf0dNOL8u6CPZt-41" edge="1">
          <mxGeometry width="50" height="50" relative="1" as="geometry">
            <mxPoint x="740" y="849.45" as="sourcePoint" />
            <mxPoint x="790" y="799.45" as="targetPoint" />
            <Array as="points">
              <mxPoint x="815" y="789.45" />
            </Array>
          </mxGeometry>
        </mxCell>
        <mxCell id="8uThU1zf0dNOL8u6CPZt-56" value="" style="endArrow=none;html=1;rounded=0;exitX=-0.033;exitY=0.312;exitDx=0;exitDy=0;startArrow=classic;startFill=1;exitPerimeter=0;entryX=0;entryY=0;entryDx=0;entryDy=0;strokeWidth=2;strokeColor=#6F5DA9;fontFamily=Times New Roman;" parent="1" source="8uThU1zf0dNOL8u6CPZt-41" target="8uThU1zf0dNOL8u6CPZt-51" edge="1">
          <mxGeometry width="50" height="50" relative="1" as="geometry">
            <mxPoint x="870" y="789.37" as="sourcePoint" />
            <mxPoint x="760" y="889.9100000000001" as="targetPoint" />
            <Array as="points">
              <mxPoint x="790" y="769" />
            </Array>
          </mxGeometry>
        </mxCell>
        <mxCell id="8uThU1zf0dNOL8u6CPZt-57" value="&lt;font data-font-src=&quot;https://www.1001fonts.com/download/cmu.zip&quot;&gt;MLCOps Deployment A&lt;/font&gt;" style="text;html=1;align=center;verticalAlign=middle;whiteSpace=wrap;rounded=0;fontFamily=Times New Roman;" parent="1" vertex="1">
          <mxGeometry x="255" y="887.95" width="150" height="30" as="geometry" />
        </mxCell>
        <mxCell id="8uThU1zf0dNOL8u6CPZt-58" value="" style="rounded=1;whiteSpace=wrap;html=1;fillColor=#FFEFE1;fontFamily=Times New Roman;" parent="1" vertex="1">
          <mxGeometry x="260.5" y="449.21999999999997" width="240" height="100" as="geometry" />
        </mxCell>
        <mxCell id="8uThU1zf0dNOL8u6CPZt-59" value="" style="rounded=0;whiteSpace=wrap;html=1;fontFamily=Times New Roman;" parent="1" vertex="1">
          <mxGeometry x="270.5" y="481.22" width="80" height="60" as="geometry" />
        </mxCell>
        <mxCell id="8uThU1zf0dNOL8u6CPZt-60" value="ML Service" style="text;html=1;align=center;verticalAlign=middle;whiteSpace=wrap;rounded=0;fontFamily=Times New Roman;" parent="1" vertex="1">
          <mxGeometry x="279" y="496.22" width="63" height="30" as="geometry" />
        </mxCell>
        <mxCell id="8uThU1zf0dNOL8u6CPZt-61" value="" style="aspect=fixed;sketch=0;html=1;dashed=0;whitespace=wrap;verticalLabelPosition=bottom;verticalAlign=top;fillColor=#2875E2;strokeColor=#ffffff;points=[[0.005,0.63,0],[0.1,0.2,0],[0.9,0.2,0],[0.5,0,0],[0.995,0.63,0],[0.72,0.99,0],[0.5,1,0],[0.28,0.99,0]];shape=mxgraph.kubernetes.icon2;kubernetesLabel=1;prIcon=pod;fontFamily=Times New Roman;" parent="1" vertex="1">
          <mxGeometry x="447" y="486.22000000000014" width="49" height="48" as="geometry" />
        </mxCell>
        <mxCell id="8uThU1zf0dNOL8u6CPZt-62" value="" style="endArrow=classic;startArrow=classic;html=1;rounded=0;entryX=0;entryY=0.5;entryDx=0;entryDy=0;fontFamily=Times New Roman;" parent="1" edge="1">
          <mxGeometry width="50" height="50" relative="1" as="geometry">
            <mxPoint x="350.5" y="511.01" as="sourcePoint" />
            <mxPoint x="390.5" y="511.0099999999999" as="targetPoint" />
          </mxGeometry>
        </mxCell>
        <mxCell id="8uThU1zf0dNOL8u6CPZt-63" value="" style="rounded=0;whiteSpace=wrap;html=1;fontFamily=Times New Roman;" parent="1" vertex="1">
          <mxGeometry x="390.5" y="481.22" width="50" height="60" as="geometry" />
        </mxCell>
        <mxCell id="8uThU1zf0dNOL8u6CPZt-64" value="Sidecar&lt;div&gt;Proxy&lt;/div&gt;" style="text;html=1;align=center;verticalAlign=middle;whiteSpace=wrap;rounded=0;fontFamily=Times New Roman;" parent="1" vertex="1">
          <mxGeometry x="384" y="495.22" width="63" height="30" as="geometry" />
        </mxCell>
        <mxCell id="8uThU1zf0dNOL8u6CPZt-65" value="&lt;span style=&quot;&quot;&gt;MLCOps Deployment A&lt;/span&gt;" style="text;html=1;align=center;verticalAlign=middle;whiteSpace=wrap;rounded=0;fontFamily=Times New Roman;" parent="1" vertex="1">
          <mxGeometry x="256.5" y="449.22" width="149.5" height="30" as="geometry" />
        </mxCell>
        <mxCell id="8uThU1zf0dNOL8u6CPZt-66" value="v" style="shape=cylinder3;whiteSpace=wrap;html=1;boundedLbl=1;backgroundOutline=1;size=10.086138211763569;fontFamily=Times New Roman;" parent="1" vertex="1">
          <mxGeometry x="130.5" y="540" width="60" height="100" as="geometry" />
        </mxCell>
        <mxCell id="8uThU1zf0dNOL8u6CPZt-67" value="ETCD" style="text;html=1;align=center;verticalAlign=middle;whiteSpace=wrap;rounded=0;fontFamily=Times New Roman;" parent="1" vertex="1">
          <mxGeometry x="130.5" y="560.5" width="60" height="30" as="geometry" />
        </mxCell>
        <mxCell id="8uThU1zf0dNOL8u6CPZt-68" value="" style="aspect=fixed;sketch=0;html=1;dashed=0;whitespace=wrap;verticalLabelPosition=bottom;verticalAlign=top;fillColor=#2875E2;strokeColor=#ffffff;points=[[0.005,0.63,0],[0.1,0.2,0],[0.9,0.2,0],[0.5,0,0],[0.995,0.63,0],[0.72,0.99,0],[0.5,1,0],[0.28,0.99,0]];shape=mxgraph.kubernetes.icon2;prIcon=etcd;fontFamily=Times New Roman;" parent="1" vertex="1">
          <mxGeometry x="140.5" y="590.5" width="40" height="38.4" as="geometry" />
        </mxCell>
        <mxCell id="8uThU1zf0dNOL8u6CPZt-69" value="" style="rounded=0;whiteSpace=wrap;html=1;fillColor=#E6FFCC;fontFamily=Times New Roman;" parent="1" vertex="1">
          <mxGeometry x="100.5" y="380" width="120" height="50" as="geometry" />
        </mxCell>
        <mxCell id="8uThU1zf0dNOL8u6CPZt-70" value="" style="rounded=0;whiteSpace=wrap;html=1;fontFamily=Times New Roman;" parent="1" vertex="1">
          <mxGeometry x="100.5" y="460" width="120" height="50" as="geometry" />
        </mxCell>
        <mxCell id="8uThU1zf0dNOL8u6CPZt-71" value="" style="aspect=fixed;sketch=0;html=1;dashed=0;whitespace=wrap;verticalLabelPosition=bottom;verticalAlign=top;fillColor=#2875E2;strokeColor=#ffffff;points=[[0.005,0.63,0],[0.1,0.2,0],[0.9,0.2,0],[0.5,0,0],[0.995,0.63,0],[0.72,0.99,0],[0.5,1,0],[0.28,0.99,0]];shape=mxgraph.kubernetes.icon2;prIcon=c_m;fontFamily=Times New Roman;" parent="1" vertex="1">
          <mxGeometry x="170.5" y="461" width="50" height="48" as="geometry" />
        </mxCell>
        <mxCell id="8uThU1zf0dNOL8u6CPZt-72" value="Kubernetes&lt;div&gt;Controller&lt;/div&gt;" style="text;html=1;align=center;verticalAlign=middle;whiteSpace=wrap;rounded=0;fontFamily=Times New Roman;" parent="1" vertex="1">
          <mxGeometry x="100.5" y="470" width="60" height="30" as="geometry" />
        </mxCell>
        <mxCell id="8uThU1zf0dNOL8u6CPZt-73" value="" style="endArrow=classic;startArrow=classic;html=1;rounded=0;exitX=0.5;exitY=0;exitDx=0;exitDy=0;exitPerimeter=0;entryX=0.5;entryY=1;entryDx=0;entryDy=0;fontFamily=Times New Roman;" parent="1" source="8uThU1zf0dNOL8u6CPZt-66" target="8uThU1zf0dNOL8u6CPZt-70" edge="1">
          <mxGeometry width="50" height="50" relative="1" as="geometry">
            <mxPoint x="217.5" y="639" as="sourcePoint" />
            <mxPoint x="257.5" y="589" as="targetPoint" />
          </mxGeometry>
        </mxCell>
        <mxCell id="8uThU1zf0dNOL8u6CPZt-74" value="" style="aspect=fixed;sketch=0;html=1;dashed=0;whitespace=wrap;verticalLabelPosition=bottom;verticalAlign=top;fillColor=#2875E2;strokeColor=#ffffff;points=[[0.005,0.63,0],[0.1,0.2,0],[0.9,0.2,0],[0.5,0,0],[0.995,0.63,0],[0.72,0.99,0],[0.5,1,0],[0.28,0.99,0]];shape=mxgraph.kubernetes.icon2;prIcon=c_m;fontFamily=Times New Roman;" parent="1" vertex="1">
          <mxGeometry x="171.5" y="381.96000000000004" width="48" height="46.08" as="geometry" />
        </mxCell>
        <mxCell id="8uThU1zf0dNOL8u6CPZt-75" value="&lt;span style=&quot;color: rgb(0, 0, 0); font-size: 12px; font-style: normal; font-variant-ligatures: normal; font-variant-caps: normal; font-weight: 400; letter-spacing: normal; orphans: 2; text-indent: 0px; text-transform: none; widows: 2; word-spacing: 0px; -webkit-text-stroke-width: 0px; white-space: normal; text-decoration-thickness: initial; text-decoration-style: initial; text-decoration-color: initial; float: none; display: inline !important;&quot;&gt;&lt;font&gt;MLCOps Controller&lt;/font&gt;&lt;/span&gt;" style="text;whiteSpace=wrap;html=1;align=center;fontFamily=Times New Roman;" parent="1" vertex="1">
          <mxGeometry x="102.5" y="385" width="58" height="40" as="geometry" />
        </mxCell>
        <mxCell id="8uThU1zf0dNOL8u6CPZt-76" value="" style="endArrow=classic;startArrow=classic;html=1;rounded=0;exitX=0.5;exitY=1;exitDx=0;exitDy=0;entryX=0.5;entryY=0;entryDx=0;entryDy=0;fontFamily=Times New Roman;" parent="1" source="8uThU1zf0dNOL8u6CPZt-69" target="8uThU1zf0dNOL8u6CPZt-70" edge="1">
          <mxGeometry width="50" height="50" relative="1" as="geometry">
            <mxPoint x="410.5" y="506.5" as="sourcePoint" />
            <mxPoint x="460.5" y="456.5" as="targetPoint" />
          </mxGeometry>
        </mxCell>
        <mxCell id="8uThU1zf0dNOL8u6CPZt-77" value="&lt;font&gt;&lt;b&gt;Cloud&lt;/b&gt;&lt;/font&gt;" style="text;html=1;align=center;verticalAlign=middle;whiteSpace=wrap;rounded=0;fontFamily=Times New Roman;" parent="1" vertex="1">
          <mxGeometry x="540" y="360" width="60" height="30" as="geometry" />
        </mxCell>
        <mxCell id="8uThU1zf0dNOL8u6CPZt-78" value="" style="rounded=1;whiteSpace=wrap;html=1;fillColor=#F2E1FF;fontFamily=Times New Roman;" parent="1" vertex="1">
          <mxGeometry x="540.5" y="449.21999999999997" width="240" height="100" as="geometry" />
        </mxCell>
        <mxCell id="8uThU1zf0dNOL8u6CPZt-79" value="" style="rounded=0;whiteSpace=wrap;html=1;fontFamily=Times New Roman;" parent="1" vertex="1">
          <mxGeometry x="550.5" y="481.22" width="80" height="60" as="geometry" />
        </mxCell>
        <mxCell id="8uThU1zf0dNOL8u6CPZt-80" value="ML Service" style="text;html=1;align=center;verticalAlign=middle;whiteSpace=wrap;rounded=0;fontFamily=Times New Roman;" parent="1" vertex="1">
          <mxGeometry x="559" y="496.22" width="63" height="30" as="geometry" />
        </mxCell>
        <mxCell id="8uThU1zf0dNOL8u6CPZt-81" value="" style="aspect=fixed;sketch=0;html=1;dashed=0;whitespace=wrap;verticalLabelPosition=bottom;verticalAlign=top;fillColor=#2875E2;strokeColor=#ffffff;points=[[0.005,0.63,0],[0.1,0.2,0],[0.9,0.2,0],[0.5,0,0],[0.995,0.63,0],[0.72,0.99,0],[0.5,1,0],[0.28,0.99,0]];shape=mxgraph.kubernetes.icon2;kubernetesLabel=1;prIcon=pod;fontFamily=Times New Roman;" parent="1" vertex="1">
          <mxGeometry x="727" y="486.22000000000014" width="49" height="48" as="geometry" />
        </mxCell>
        <mxCell id="8uThU1zf0dNOL8u6CPZt-82" value="" style="endArrow=classic;startArrow=classic;html=1;rounded=0;entryX=0;entryY=0.5;entryDx=0;entryDy=0;fontFamily=Times New Roman;" parent="1" edge="1">
          <mxGeometry width="50" height="50" relative="1" as="geometry">
            <mxPoint x="630.5" y="511.01" as="sourcePoint" />
            <mxPoint x="670.5" y="511.0099999999999" as="targetPoint" />
          </mxGeometry>
        </mxCell>
        <mxCell id="8uThU1zf0dNOL8u6CPZt-83" value="" style="rounded=0;whiteSpace=wrap;html=1;fontFamily=Times New Roman;" parent="1" vertex="1">
          <mxGeometry x="670.5" y="481.22" width="50" height="60" as="geometry" />
        </mxCell>
        <mxCell id="8uThU1zf0dNOL8u6CPZt-84" value="Sidecar&lt;div&gt;Proxy&lt;/div&gt;" style="text;html=1;align=center;verticalAlign=middle;whiteSpace=wrap;rounded=0;fontFamily=Times New Roman;" parent="1" vertex="1">
          <mxGeometry x="664" y="495.22" width="63" height="30" as="geometry" />
        </mxCell>
        <mxCell id="8uThU1zf0dNOL8u6CPZt-85" value="&lt;font data-font-src=&quot;https://www.1001fonts.com/download/cmu.zip&quot;&gt;MLCOps Deployment B&lt;/font&gt;" style="text;html=1;align=center;verticalAlign=middle;whiteSpace=wrap;rounded=0;fontFamily=Times New Roman;" parent="1" vertex="1">
          <mxGeometry x="535.5" y="449.22" width="149.5" height="30" as="geometry" />
        </mxCell>
        <mxCell id="8uThU1zf0dNOL8u6CPZt-86" value="" style="rounded=1;whiteSpace=wrap;html=1;fillColor=#F2E1FF;fontFamily=Times New Roman;" parent="1" vertex="1">
          <mxGeometry x="820.5" y="449.22" width="240" height="100" as="geometry" />
        </mxCell>
        <mxCell id="8uThU1zf0dNOL8u6CPZt-87" value="" style="rounded=0;whiteSpace=wrap;html=1;fontFamily=Times New Roman;" parent="1" vertex="1">
          <mxGeometry x="830.5" y="481.22" width="80" height="60" as="geometry" />
        </mxCell>
        <mxCell id="8uThU1zf0dNOL8u6CPZt-88" value="ML Service" style="text;html=1;align=center;verticalAlign=middle;whiteSpace=wrap;rounded=0;fontFamily=Times New Roman;" parent="1" vertex="1">
          <mxGeometry x="839" y="496.22" width="63" height="30" as="geometry" />
        </mxCell>
        <mxCell id="8uThU1zf0dNOL8u6CPZt-89" value="" style="aspect=fixed;sketch=0;html=1;dashed=0;whitespace=wrap;verticalLabelPosition=bottom;verticalAlign=top;fillColor=#2875E2;strokeColor=#ffffff;points=[[0.005,0.63,0],[0.1,0.2,0],[0.9,0.2,0],[0.5,0,0],[0.995,0.63,0],[0.72,0.99,0],[0.5,1,0],[0.28,0.99,0]];shape=mxgraph.kubernetes.icon2;kubernetesLabel=1;prIcon=pod;fontFamily=Times New Roman;" parent="1" vertex="1">
          <mxGeometry x="1007" y="486.22000000000014" width="49" height="48" as="geometry" />
        </mxCell>
        <mxCell id="8uThU1zf0dNOL8u6CPZt-90" value="" style="endArrow=classic;startArrow=classic;html=1;rounded=0;entryX=0;entryY=0.5;entryDx=0;entryDy=0;fontFamily=Times New Roman;" parent="1" edge="1">
          <mxGeometry width="50" height="50" relative="1" as="geometry">
            <mxPoint x="910.5" y="511.01" as="sourcePoint" />
            <mxPoint x="950.5" y="511.0099999999999" as="targetPoint" />
          </mxGeometry>
        </mxCell>
        <mxCell id="8uThU1zf0dNOL8u6CPZt-91" value="" style="rounded=0;whiteSpace=wrap;html=1;fontFamily=Times New Roman;" parent="1" vertex="1">
          <mxGeometry x="950.5" y="481.22" width="50" height="60" as="geometry" />
        </mxCell>
        <mxCell id="8uThU1zf0dNOL8u6CPZt-92" value="Sidecar&lt;div&gt;Proxy&lt;/div&gt;" style="text;html=1;align=center;verticalAlign=middle;whiteSpace=wrap;rounded=0;fontFamily=Times New Roman;" parent="1" vertex="1">
          <mxGeometry x="944" y="495.22" width="63" height="30" as="geometry" />
        </mxCell>
        <mxCell id="8uThU1zf0dNOL8u6CPZt-93" value="&lt;span style=&quot;&quot;&gt;MLCOps Deployment B&lt;/span&gt;" style="text;html=1;align=center;verticalAlign=middle;whiteSpace=wrap;rounded=0;fontFamily=Times New Roman;" parent="1" vertex="1">
          <mxGeometry x="816.5" y="449.22" width="149.5" height="30" as="geometry" />
        </mxCell>
        <mxCell id="8uThU1zf0dNOL8u6CPZt-94" value="" style="endArrow=classic;html=1;rounded=0;entryX=0.5;entryY=1;entryDx=0;entryDy=0;strokeWidth=3;fillColor=#f8cecc;strokeColor=#b85450;fontFamily=Times New Roman;" parent="1" edge="1">
          <mxGeometry width="50" height="50" relative="1" as="geometry">
            <mxPoint x="640" y="580" as="sourcePoint" />
            <mxPoint x="415.5" y="541.22" as="targetPoint" />
            <Array as="points">
              <mxPoint x="416" y="580" />
            </Array>
          </mxGeometry>
        </mxCell>
        <mxCell id="8uThU1zf0dNOL8u6CPZt-95" value="" style="endArrow=classic;html=1;rounded=0;entryX=0.5;entryY=1;entryDx=0;entryDy=0;strokeWidth=3;fillColor=#f8cecc;strokeColor=#b85450;fontFamily=Times New Roman;" parent="1" edge="1">
          <mxGeometry width="50" height="50" relative="1" as="geometry">
            <mxPoint x="695.35" y="581.22" as="sourcePoint" />
            <mxPoint x="695.35" y="541.2200000000003" as="targetPoint" />
          </mxGeometry>
        </mxCell>
        <mxCell id="8uThU1zf0dNOL8u6CPZt-96" value="" style="endArrow=classic;startArrow=classic;html=1;rounded=0;exitX=0.5;exitY=0;exitDx=0;exitDy=0;fillColor=#f8cecc;strokeColor=#b85450;strokeWidth=3;entryX=0.5;entryY=1;entryDx=0;entryDy=0;fontFamily=Times New Roman;" parent="1" source="8uThU1zf0dNOL8u6CPZt-15" target="8uThU1zf0dNOL8u6CPZt-91" edge="1">
          <mxGeometry width="50" height="50" relative="1" as="geometry">
            <mxPoint x="581.75" y="630" as="sourcePoint" />
            <mxPoint x="920.9680866530969" y="541.22" as="targetPoint" />
            <Array as="points">
              <mxPoint x="570" y="580" />
              <mxPoint x="976" y="580" />
            </Array>
          </mxGeometry>
        </mxCell>
        <mxCell id="8uThU1zf0dNOL8u6CPZt-97" value="" style="endArrow=classic;html=1;rounded=0;exitX=1;exitY=0.25;exitDx=0;exitDy=0;entryX=0.5;entryY=0;entryDx=0;entryDy=0;dashed=1;strokeColor=#67AB9F;strokeWidth=2;fontFamily=Times New Roman;" parent="1" source="8uThU1zf0dNOL8u6CPZt-5" target="8uThU1zf0dNOL8u6CPZt-28" edge="1">
          <mxGeometry width="50" height="50" relative="1" as="geometry">
            <mxPoint x="490" y="853.45" as="sourcePoint" />
            <mxPoint x="380" y="887.95" as="targetPoint" />
            <Array as="points">
              <mxPoint x="415" y="762.45" />
            </Array>
          </mxGeometry>
        </mxCell>
        <mxCell id="8uThU1zf0dNOL8u6CPZt-98" value="" style="endArrow=none;html=1;rounded=0;dashed=1;exitX=1.033;exitY=0.19;exitDx=0;exitDy=0;exitPerimeter=0;strokeColor=#67AB9F;strokeWidth=2;fontFamily=Times New Roman;" parent="1" source="8uThU1zf0dNOL8u6CPZt-74" edge="1">
          <mxGeometry width="50" height="50" relative="1" as="geometry">
            <mxPoint x="73" y="391" as="sourcePoint" />
            <mxPoint x="970" y="391" as="targetPoint" />
          </mxGeometry>
        </mxCell>
        <mxCell id="8uThU1zf0dNOL8u6CPZt-99" value="" style="endArrow=classic;html=1;rounded=0;dashed=1;strokeColor=#67AB9F;strokeWidth=2;fontFamily=Times New Roman;" parent="1" edge="1">
          <mxGeometry width="50" height="50" relative="1" as="geometry">
            <mxPoint x="695.22" y="391" as="sourcePoint" />
            <mxPoint x="695.22" y="481" as="targetPoint" />
          </mxGeometry>
        </mxCell>
        <mxCell id="8uThU1zf0dNOL8u6CPZt-100" value="" style="endArrow=classic;html=1;rounded=0;dashed=1;strokeColor=#67AB9F;strokeWidth=2;fontFamily=Times New Roman;" parent="1" edge="1">
          <mxGeometry width="50" height="50" relative="1" as="geometry">
            <mxPoint x="975.0699999999999" y="391.22" as="sourcePoint" />
            <mxPoint x="975.0699999999999" y="481.22" as="targetPoint" />
          </mxGeometry>
        </mxCell>
        <mxCell id="8uThU1zf0dNOL8u6CPZt-101" value="" style="endArrow=classic;html=1;rounded=0;dashed=1;strokeColor=#67AB9F;strokeWidth=2;fontFamily=Times New Roman;" parent="1" edge="1">
          <mxGeometry width="50" height="50" relative="1" as="geometry">
            <mxPoint x="415.22" y="391.22" as="sourcePoint" />
            <mxPoint x="415.22" y="481.22" as="targetPoint" />
          </mxGeometry>
        </mxCell>
        <mxCell id="8uThU1zf0dNOL8u6CPZt-102" value="" style="endArrow=none;html=1;rounded=0;exitX=0.995;exitY=0.63;exitDx=0;exitDy=0;exitPerimeter=0;entryX=0;entryY=0;entryDx=0;entryDy=0;startArrow=classic;startFill=1;strokeWidth=2;strokeColor=#6F5DA9;fontFamily=Times New Roman;" parent="1" source="8uThU1zf0dNOL8u6CPZt-74" target="8uThU1zf0dNOL8u6CPZt-91" edge="1">
          <mxGeometry width="50" height="50" relative="1" as="geometry">
            <mxPoint x="520" y="480" as="sourcePoint" />
            <mxPoint x="570" y="430" as="targetPoint" />
            <Array as="points">
              <mxPoint x="950" y="411" />
            </Array>
          </mxGeometry>
        </mxCell>
        <mxCell id="8uThU1zf0dNOL8u6CPZt-103" value="" style="endArrow=none;html=1;rounded=0;strokeWidth=2;strokeColor=#6F5DA9;exitX=0;exitY=0;exitDx=0;exitDy=0;fontFamily=Times New Roman;" parent="1" source="8uThU1zf0dNOL8u6CPZt-83" edge="1">
          <mxGeometry width="50" height="50" relative="1" as="geometry">
            <mxPoint x="669.97" y="449.22" as="sourcePoint" />
            <mxPoint x="669.97" y="409.22" as="targetPoint" />
          </mxGeometry>
        </mxCell>
        <mxCell id="8uThU1zf0dNOL8u6CPZt-104" value="" style="endArrow=none;html=1;rounded=0;strokeWidth=2;strokeColor=#6F5DA9;exitX=0;exitY=0;exitDx=0;exitDy=0;fontFamily=Times New Roman;" parent="1" source="8uThU1zf0dNOL8u6CPZt-63" edge="1">
          <mxGeometry width="50" height="50" relative="1" as="geometry">
            <mxPoint x="390.5" y="449.22" as="sourcePoint" />
            <mxPoint x="390.5" y="409.22" as="targetPoint" />
          </mxGeometry>
        </mxCell>
        <mxCell id="8uThU1zf0dNOL8u6CPZt-105" value="" style="rounded=0;whiteSpace=wrap;html=1;fontFamily=Times New Roman;" parent="1" vertex="1">
          <mxGeometry x="1100" y="590.5" width="170" height="169.5" as="geometry" />
        </mxCell>
        <mxCell id="8uThU1zf0dNOL8u6CPZt-106" value="&lt;font data-font-src=&quot;https://www.1001fonts.com/download/cmu.zip&quot;&gt;Legend&lt;/font&gt;" style="text;html=1;align=left;verticalAlign=middle;whiteSpace=wrap;rounded=0;fontFamily=Times New Roman;" parent="1" vertex="1">
          <mxGeometry x="1117.5" y="590.5" width="60" height="30" as="geometry" />
        </mxCell>
        <mxCell id="8uThU1zf0dNOL8u6CPZt-107" value="&lt;font&gt;Data Traffic&lt;/font&gt;" style="text;html=1;align=left;verticalAlign=middle;whiteSpace=wrap;rounded=0;fontFamily=Times New Roman;" parent="1" vertex="1">
          <mxGeometry x="1140" y="690.5" width="130" height="30" as="geometry" />
        </mxCell>
        <mxCell id="8uThU1zf0dNOL8u6CPZt-108" value="&lt;font&gt;Control&lt;/font&gt;" style="text;html=1;align=left;verticalAlign=middle;whiteSpace=wrap;rounded=0;fontFamily=Times New Roman;" parent="1" vertex="1">
          <mxGeometry x="1140" y="630.5" width="130" height="30" as="geometry" />
        </mxCell>
        <mxCell id="8uThU1zf0dNOL8u6CPZt-109" value="&lt;font&gt;Observe&lt;/font&gt;" style="text;html=1;align=left;verticalAlign=middle;whiteSpace=wrap;rounded=0;fontFamily=Times New Roman;" parent="1" vertex="1">
          <mxGeometry x="1140" y="660.5" width="130" height="30" as="geometry" />
        </mxCell>
        <mxCell id="8uThU1zf0dNOL8u6CPZt-110" value="" style="endArrow=classic;html=1;rounded=0;dashed=1;strokeColor=#67AB9F;strokeWidth=2;fontFamily=Times New Roman;" parent="1" edge="1">
          <mxGeometry width="50" height="50" relative="1" as="geometry">
            <mxPoint x="1110" y="655.5" as="sourcePoint" />
            <mxPoint x="1130" y="635.5" as="targetPoint" />
          </mxGeometry>
        </mxCell>
        <mxCell id="8uThU1zf0dNOL8u6CPZt-111" value="" style="endArrow=classic;html=1;rounded=0;strokeColor=#6F5DA9;strokeWidth=2;fontFamily=Times New Roman;" parent="1" edge="1">
          <mxGeometry width="50" height="50" relative="1" as="geometry">
            <mxPoint x="1110" y="685.5" as="sourcePoint" />
            <mxPoint x="1130" y="665.5" as="targetPoint" />
          </mxGeometry>
        </mxCell>
        <mxCell id="8uThU1zf0dNOL8u6CPZt-112" value="" style="endArrow=classic;html=1;rounded=0;strokeColor=#990000;strokeWidth=3;fontFamily=Times New Roman;" parent="1" edge="1">
          <mxGeometry width="50" height="50" relative="1" as="geometry">
            <mxPoint x="1110" y="715.5" as="sourcePoint" />
            <mxPoint x="1130" y="695.5" as="targetPoint" />
          </mxGeometry>
        </mxCell>
        <mxCell id="8uThU1zf0dNOL8u6CPZt-113" value="&lt;font&gt;Cloud Continuum Sync&lt;/font&gt;" style="text;html=1;align=left;verticalAlign=middle;whiteSpace=wrap;rounded=0;fontFamily=Times New Roman;" parent="1" vertex="1">
          <mxGeometry x="1140.5" y="720.5" width="180" height="30" as="geometry" />
        </mxCell>
        <mxCell id="8uThU1zf0dNOL8u6CPZt-114" value="" style="endArrow=classic;html=1;rounded=0;strokeColor=#D6B656;strokeWidth=3;fontFamily=Times New Roman;" parent="1" edge="1">
          <mxGeometry width="50" height="50" relative="1" as="geometry">
            <mxPoint x="1110" y="745.5" as="sourcePoint" />
            <mxPoint x="1130" y="725.5" as="targetPoint" />
          </mxGeometry>
        </mxCell>
        <mxCell id="8uThU1zf0dNOL8u6CPZt-115" value="" style="endArrow=classic;html=1;rounded=0;exitX=0;exitY=0;exitDx=0;exitDy=0;entryX=1;entryY=0.75;entryDx=0;entryDy=0;strokeWidth=2;strokeColor=#6F5DA9;fontFamily=Times New Roman;" parent="1" source="8uThU1zf0dNOL8u6CPZt-28" target="8uThU1zf0dNOL8u6CPZt-5" edge="1">
          <mxGeometry width="50" height="50" relative="1" as="geometry">
            <mxPoint x="349.28" y="887.8599999999999" as="sourcePoint" />
            <mxPoint x="540" y="803.45" as="targetPoint" />
            <Array as="points">
              <mxPoint x="390" y="787" />
            </Array>
          </mxGeometry>
        </mxCell>
      </root>
    </mxGraphModel>
  </diagram>
  <diagram id="oPjif3-6Bi8p9PZ7PO3b" name="flow">
    <mxGraphModel grid="1" page="1" gridSize="10" guides="1" tooltips="1" connect="1" arrows="1" fold="1" pageScale="1" pageWidth="827" pageHeight="1169" math="0" shadow="0">
      <root>
        <mxCell id="0" />
        <mxCell id="1" parent="0" />
        <mxCell id="JPm__9_oqpG_Kmp_xgQA-1" value="" style="rounded=1;whiteSpace=wrap;html=1;fillColor=#E0EFFF;strokeColor=none;fontFamily=Times New Roman;" parent="1" vertex="1">
          <mxGeometry x="220" y="758.9000000000001" width="550" height="271.1" as="geometry" />
        </mxCell>
        <mxCell id="JPm__9_oqpG_Kmp_xgQA-2" value="&lt;b&gt;&lt;font data-font-src=&quot;https://www.1001fonts.com/download/cmu.zip&quot;&gt;Edge 1&lt;/font&gt;&lt;/b&gt;" style="text;html=1;align=center;verticalAlign=middle;whiteSpace=wrap;rounded=0;fontFamily=Times New Roman;" parent="1" vertex="1">
          <mxGeometry x="520" y="997.8" width="60" height="30" as="geometry" />
        </mxCell>
        <mxCell id="JPm__9_oqpG_Kmp_xgQA-3" value="&lt;font data-font-src=&quot;https://www.1001fonts.com/download/cmu.zip&quot;&gt;Ingress/Egress Gateway&lt;/font&gt;" style="rounded=1;whiteSpace=wrap;html=1;fontFamily=Times New Roman;" parent="1" vertex="1">
          <mxGeometry x="560" y="738.9" width="160" height="40" as="geometry" />
        </mxCell>
        <mxCell id="JPm__9_oqpG_Kmp_xgQA-4" value="" style="rounded=1;whiteSpace=wrap;html=1;fillColor=#FFEFE1;fontFamily=Times New Roman;" parent="1" vertex="1">
          <mxGeometry x="510" y="800" width="240" height="200" as="geometry" />
        </mxCell>
        <mxCell id="JPm__9_oqpG_Kmp_xgQA-5" value="" style="rounded=0;whiteSpace=wrap;html=1;fontFamily=Times New Roman;" parent="1" vertex="1">
          <mxGeometry x="520" y="830" width="90" height="150" as="geometry" />
        </mxCell>
        <mxCell id="JPm__9_oqpG_Kmp_xgQA-6" value="Anomaly Detection Application" style="text;html=1;align=center;verticalAlign=middle;whiteSpace=wrap;rounded=0;fontFamily=Times New Roman;" parent="1" vertex="1">
          <mxGeometry x="533.5" y="830" width="63" height="42.1" as="geometry" />
        </mxCell>
        <mxCell id="JPm__9_oqpG_Kmp_xgQA-7" value="" style="rounded=0;whiteSpace=wrap;html=1;fontFamily=Times New Roman;" parent="1" vertex="1">
          <mxGeometry x="650" y="830" width="90" height="150" as="geometry" />
        </mxCell>
        <mxCell id="JPm__9_oqpG_Kmp_xgQA-8" value="Sidecar&lt;div&gt;Proxy&lt;/div&gt;" style="text;html=1;align=center;verticalAlign=middle;whiteSpace=wrap;rounded=0;fontFamily=Times New Roman;" parent="1" vertex="1">
          <mxGeometry x="663.5" y="830" width="63" height="30" as="geometry" />
        </mxCell>
        <mxCell id="JPm__9_oqpG_Kmp_xgQA-9" value="&lt;font data-font-src=&quot;https://www.1001fonts.com/download/cmu.zip&quot;&gt;MLCOps Application A&lt;/font&gt;" style="text;html=1;align=center;verticalAlign=middle;whiteSpace=wrap;rounded=0;fontFamily=Times New Roman;" parent="1" vertex="1">
          <mxGeometry x="510" y="800" width="150" height="30" as="geometry" />
        </mxCell>
        <mxCell id="JPm__9_oqpG_Kmp_xgQA-10" value="Filter" style="rounded=1;whiteSpace=wrap;html=1;fontFamily=Times New Roman;fillColor=#E6FFCC;" parent="1" vertex="1">
          <mxGeometry x="530" y="880" width="70" height="30" as="geometry" />
        </mxCell>
        <mxCell id="JPm__9_oqpG_Kmp_xgQA-11" value="Vectorization" style="rounded=1;whiteSpace=wrap;html=1;fontFamily=Times New Roman;fillColor=#E6FFCC;" parent="1" vertex="1">
          <mxGeometry x="530" y="910" width="70" height="30" as="geometry" />
        </mxCell>
        <mxCell id="JPm__9_oqpG_Kmp_xgQA-12" value="Anomaly Detection" style="rounded=1;whiteSpace=wrap;html=1;fontFamily=Times New Roman;fillColor=#E6E6E6;" parent="1" vertex="1">
          <mxGeometry x="530" y="940" width="70" height="30" as="geometry" />
        </mxCell>
        <mxCell id="JPm__9_oqpG_Kmp_xgQA-13" value="" style="rounded=1;whiteSpace=wrap;html=1;fillColor=#FFFBD0;strokeColor=none;fontFamily=Times New Roman;" parent="1" vertex="1">
          <mxGeometry x="220" y="410" width="550" height="270" as="geometry" />
        </mxCell>
        <mxCell id="JPm__9_oqpG_Kmp_xgQA-14" value="&lt;font&gt;&lt;b&gt;Cloud&lt;/b&gt;&lt;/font&gt;" style="text;html=1;align=center;verticalAlign=middle;whiteSpace=wrap;rounded=0;fontFamily=Times New Roman;" parent="1" vertex="1">
          <mxGeometry x="500" y="650" width="60" height="30" as="geometry" />
        </mxCell>
        <mxCell id="JPm__9_oqpG_Kmp_xgQA-15" value="&lt;font data-font-src=&quot;https://www.1001fonts.com/download/cmu.zip&quot;&gt;Ingress/Egress Gateway&lt;/font&gt;" style="rounded=1;whiteSpace=wrap;html=1;fontFamily=Times New Roman;" parent="1" vertex="1">
          <mxGeometry x="560" y="661.1" width="160" height="40" as="geometry" />
        </mxCell>
        <mxCell id="JPm__9_oqpG_Kmp_xgQA-16" value="" style="rounded=1;whiteSpace=wrap;html=1;fillColor=#FFEFE1;fontFamily=Times New Roman;" parent="1" vertex="1">
          <mxGeometry x="510" y="440" width="240" height="200" as="geometry" />
        </mxCell>
        <mxCell id="JPm__9_oqpG_Kmp_xgQA-17" value="" style="rounded=0;whiteSpace=wrap;html=1;fontFamily=Times New Roman;" parent="1" vertex="1">
          <mxGeometry x="520" y="470" width="90" height="150" as="geometry" />
        </mxCell>
        <mxCell id="JPm__9_oqpG_Kmp_xgQA-18" value="Anomaly Detection Application" style="text;html=1;align=center;verticalAlign=middle;whiteSpace=wrap;rounded=0;fontFamily=Times New Roman;" parent="1" vertex="1">
          <mxGeometry x="533.5" y="470" width="63" height="42.1" as="geometry" />
        </mxCell>
        <mxCell id="JPm__9_oqpG_Kmp_xgQA-19" value="" style="rounded=0;whiteSpace=wrap;html=1;fontFamily=Times New Roman;" parent="1" vertex="1">
          <mxGeometry x="650" y="470" width="90" height="150" as="geometry" />
        </mxCell>
        <mxCell id="JPm__9_oqpG_Kmp_xgQA-20" value="Sidecar&lt;div&gt;Proxy&lt;/div&gt;" style="text;html=1;align=center;verticalAlign=middle;whiteSpace=wrap;rounded=0;fontFamily=Times New Roman;" parent="1" vertex="1">
          <mxGeometry x="663.5" y="470.0000000000001" width="63" height="30" as="geometry" />
        </mxCell>
        <mxCell id="JPm__9_oqpG_Kmp_xgQA-21" value="&lt;font data-font-src=&quot;https://www.1001fonts.com/download/cmu.zip&quot;&gt;MLCOps Application A&lt;/font&gt;" style="text;html=1;align=center;verticalAlign=middle;whiteSpace=wrap;rounded=0;fontFamily=Times New Roman;" parent="1" vertex="1">
          <mxGeometry x="510" y="440.0000000000001" width="150" height="30" as="geometry" />
        </mxCell>
        <mxCell id="JPm__9_oqpG_Kmp_xgQA-22" value="" style="endArrow=blockThin;dashed=1;html=1;rounded=0;exitX=0.657;exitY=0.006;exitDx=0;exitDy=0;exitPerimeter=0;entryX=1;entryY=0;entryDx=0;entryDy=0;dashPattern=1 1;strokeColor=#97D077;strokeWidth=4;endFill=1;fontFamily=Times New Roman;" parent="1" source="JPm__9_oqpG_Kmp_xgQA-54" target="JPm__9_oqpG_Kmp_xgQA-25" edge="1">
          <mxGeometry width="50" height="50" relative="1" as="geometry">
            <mxPoint x="627" y="940" as="sourcePoint" />
            <mxPoint x="600.2799999999997" y="510.70000000000005" as="targetPoint" />
            <Array as="points">
              <mxPoint x="730" y="940" />
              <mxPoint x="730" y="580" />
            </Array>
          </mxGeometry>
        </mxCell>
        <mxCell id="JPm__9_oqpG_Kmp_xgQA-23" value="Filter" style="rounded=1;whiteSpace=wrap;html=1;fontFamily=Times New Roman;fillColor=#E6E6E6;" parent="1" vertex="1">
          <mxGeometry x="530" y="520" width="70" height="30" as="geometry" />
        </mxCell>
        <mxCell id="JPm__9_oqpG_Kmp_xgQA-24" value="Vectorization" style="rounded=1;whiteSpace=wrap;html=1;fontFamily=Times New Roman;fillColor=#E6E6E6;" parent="1" vertex="1">
          <mxGeometry x="530" y="550" width="70" height="30" as="geometry" />
        </mxCell>
        <mxCell id="JPm__9_oqpG_Kmp_xgQA-25" value="Anomaly Detection" style="rounded=1;whiteSpace=wrap;html=1;fontFamily=Times New Roman;fillColor=#E6FFCC;" parent="1" vertex="1">
          <mxGeometry x="530" y="580" width="70" height="30" as="geometry" />
        </mxCell>
        <mxCell id="JPm__9_oqpG_Kmp_xgQA-26" value="&lt;font data-font-src=&quot;https://www.1001fonts.com/download/cmu.zip&quot;&gt;Checkpoint&lt;/font&gt;" style="rounded=1;whiteSpace=wrap;html=1;rotation=90;fontFamily=Times New Roman;" parent="1" vertex="1">
          <mxGeometry x="650" y="550" width="90" height="30" as="geometry" />
        </mxCell>
        <mxCell id="JPm__9_oqpG_Kmp_xgQA-27" value="" style="endArrow=classic;startArrow=classic;html=1;rounded=0;exitX=1;exitY=0.25;exitDx=0;exitDy=0;entryX=0;entryY=0.25;entryDx=0;entryDy=0;fontFamily=Times New Roman;" parent="1" edge="1">
          <mxGeometry width="50" height="50" relative="1" as="geometry">
            <mxPoint x="610" y="860" as="sourcePoint" />
            <mxPoint x="650" y="860" as="targetPoint" />
          </mxGeometry>
        </mxCell>
        <mxCell id="JPm__9_oqpG_Kmp_xgQA-29" value="" style="endArrow=classic;startArrow=classic;html=1;rounded=0;exitX=1;exitY=0.25;exitDx=0;exitDy=0;entryX=0;entryY=0.25;entryDx=0;entryDy=0;fontFamily=Times New Roman;" parent="1" edge="1">
          <mxGeometry width="50" height="50" relative="1" as="geometry">
            <mxPoint x="610" y="500" as="sourcePoint" />
            <mxPoint x="650" y="500" as="targetPoint" />
          </mxGeometry>
        </mxCell>
        <mxCell id="JPm__9_oqpG_Kmp_xgQA-32" value="" style="endArrow=none;html=1;rounded=0;startArrow=oval;startFill=1;entryX=0.75;entryY=0;entryDx=0;entryDy=0;fontFamily=Times New Roman;" parent="1" edge="1">
          <mxGeometry width="50" height="50" relative="1" as="geometry">
            <mxPoint x="680" y="610" as="sourcePoint" />
            <mxPoint x="600" y="610" as="targetPoint" />
          </mxGeometry>
        </mxCell>
        <mxCell id="JPm__9_oqpG_Kmp_xgQA-33" value="" style="rounded=1;whiteSpace=wrap;html=1;fillColor=#F2E1FF;fontFamily=Times New Roman;" parent="1" vertex="1">
          <mxGeometry x="240" y="440" width="240" height="200" as="geometry" />
        </mxCell>
        <mxCell id="JPm__9_oqpG_Kmp_xgQA-34" value="" style="rounded=0;whiteSpace=wrap;html=1;fontFamily=Times New Roman;" parent="1" vertex="1">
          <mxGeometry x="250" y="470" width="90" height="150" as="geometry" />
        </mxCell>
        <mxCell id="JPm__9_oqpG_Kmp_xgQA-35" value="Anomaly Detection Application" style="text;html=1;align=center;verticalAlign=middle;whiteSpace=wrap;rounded=0;fontFamily=Times New Roman;" parent="1" vertex="1">
          <mxGeometry x="263.5" y="470" width="63" height="42.1" as="geometry" />
        </mxCell>
        <mxCell id="JPm__9_oqpG_Kmp_xgQA-36" value="" style="rounded=0;whiteSpace=wrap;html=1;fontFamily=Times New Roman;" parent="1" vertex="1">
          <mxGeometry x="380" y="470" width="90" height="150" as="geometry" />
        </mxCell>
        <mxCell id="JPm__9_oqpG_Kmp_xgQA-37" value="Sidecar&lt;div&gt;Proxy&lt;/div&gt;" style="text;html=1;align=center;verticalAlign=middle;whiteSpace=wrap;rounded=0;fontFamily=Times New Roman;" parent="1" vertex="1">
          <mxGeometry x="393.5" y="470.0000000000001" width="63" height="30" as="geometry" />
        </mxCell>
        <mxCell id="JPm__9_oqpG_Kmp_xgQA-38" value="&lt;font data-font-src=&quot;https://www.1001fonts.com/download/cmu.zip&quot;&gt;MLCOps Application B&lt;/font&gt;" style="text;html=1;align=center;verticalAlign=middle;whiteSpace=wrap;rounded=0;fontFamily=Times New Roman;" parent="1" vertex="1">
          <mxGeometry x="240" y="440.0000000000001" width="150" height="30" as="geometry" />
        </mxCell>
        <mxCell id="JPm__9_oqpG_Kmp_xgQA-39" value="Filter" style="rounded=1;whiteSpace=wrap;html=1;fontFamily=Times New Roman;fillColor=#E6E6E6;" parent="1" vertex="1">
          <mxGeometry x="260" y="520" width="70" height="30" as="geometry" />
        </mxCell>
        <mxCell id="JPm__9_oqpG_Kmp_xgQA-40" value="Vectorization" style="rounded=1;whiteSpace=wrap;html=1;fontFamily=Times New Roman;fillColor=#E6FFCC;" parent="1" vertex="1">
          <mxGeometry x="260" y="550" width="70" height="30" as="geometry" />
        </mxCell>
        <mxCell id="JPm__9_oqpG_Kmp_xgQA-41" value="Anomaly Detection" style="rounded=1;whiteSpace=wrap;html=1;fontFamily=Times New Roman;fillColor=#E6FFCC;" parent="1" vertex="1">
          <mxGeometry x="260" y="580" width="70" height="30" as="geometry" />
        </mxCell>
        <mxCell id="JPm__9_oqpG_Kmp_xgQA-42" value="" style="endArrow=classic;startArrow=classic;html=1;rounded=0;exitX=1;exitY=0.25;exitDx=0;exitDy=0;entryX=0;entryY=0.25;entryDx=0;entryDy=0;fontFamily=Times New Roman;" parent="1" edge="1">
          <mxGeometry width="50" height="50" relative="1" as="geometry">
            <mxPoint x="340" y="500" as="sourcePoint" />
            <mxPoint x="380" y="500" as="targetPoint" />
          </mxGeometry>
        </mxCell>
        <mxCell id="JPm__9_oqpG_Kmp_xgQA-43" value="" style="rounded=1;whiteSpace=wrap;html=1;fillColor=#F2E1FF;fontFamily=Times New Roman;" parent="1" vertex="1">
          <mxGeometry x="240" y="800" width="240" height="200" as="geometry" />
        </mxCell>
        <mxCell id="JPm__9_oqpG_Kmp_xgQA-44" value="" style="rounded=0;whiteSpace=wrap;html=1;fontFamily=Times New Roman;" parent="1" vertex="1">
          <mxGeometry x="250" y="830" width="90" height="150" as="geometry" />
        </mxCell>
        <mxCell id="JPm__9_oqpG_Kmp_xgQA-45" value="Anomaly Detection Application" style="text;html=1;align=center;verticalAlign=middle;whiteSpace=wrap;rounded=0;fontFamily=Times New Roman;" parent="1" vertex="1">
          <mxGeometry x="263.5" y="830" width="63" height="42.1" as="geometry" />
        </mxCell>
        <mxCell id="JPm__9_oqpG_Kmp_xgQA-46" value="" style="rounded=0;whiteSpace=wrap;html=1;fontFamily=Times New Roman;" parent="1" vertex="1">
          <mxGeometry x="380" y="830" width="90" height="150" as="geometry" />
        </mxCell>
        <mxCell id="JPm__9_oqpG_Kmp_xgQA-47" value="Sidecar&lt;div&gt;Proxy&lt;/div&gt;" style="text;html=1;align=center;verticalAlign=middle;whiteSpace=wrap;rounded=0;fontFamily=Times New Roman;" parent="1" vertex="1">
          <mxGeometry x="393.5" y="830" width="63" height="30" as="geometry" />
        </mxCell>
        <mxCell id="JPm__9_oqpG_Kmp_xgQA-48" value="&lt;font data-font-src=&quot;https://www.1001fonts.com/download/cmu.zip&quot;&gt;MLCOps Application B&lt;/font&gt;" style="text;html=1;align=center;verticalAlign=middle;whiteSpace=wrap;rounded=0;fontFamily=Times New Roman;" parent="1" vertex="1">
          <mxGeometry x="240" y="800" width="150" height="30" as="geometry" />
        </mxCell>
        <mxCell id="JPm__9_oqpG_Kmp_xgQA-49" value="Filter" style="rounded=1;whiteSpace=wrap;html=1;fontFamily=Times New Roman;fillColor=#E6FFCC;" parent="1" vertex="1">
          <mxGeometry x="260" y="880" width="70" height="30" as="geometry" />
        </mxCell>
        <mxCell id="JPm__9_oqpG_Kmp_xgQA-50" value="Vectorization" style="rounded=1;whiteSpace=wrap;html=1;fontFamily=Times New Roman;fillColor=#E6E6E6;" parent="1" vertex="1">
          <mxGeometry x="260" y="910" width="70" height="30" as="geometry" />
        </mxCell>
        <mxCell id="JPm__9_oqpG_Kmp_xgQA-51" value="Anomaly Detection" style="rounded=1;whiteSpace=wrap;html=1;fontFamily=Times New Roman;fillColor=#E6E6E6;" parent="1" vertex="1">
          <mxGeometry x="260" y="940" width="70" height="30" as="geometry" />
        </mxCell>
        <mxCell id="JPm__9_oqpG_Kmp_xgQA-52" value="" style="endArrow=classic;startArrow=classic;html=1;rounded=0;exitX=1;exitY=0.25;exitDx=0;exitDy=0;entryX=0;entryY=0.25;entryDx=0;entryDy=0;fontFamily=Times New Roman;" parent="1" edge="1">
          <mxGeometry width="50" height="50" relative="1" as="geometry">
            <mxPoint x="340" y="860" as="sourcePoint" />
            <mxPoint x="380" y="860" as="targetPoint" />
          </mxGeometry>
        </mxCell>
        <mxCell id="JPm__9_oqpG_Kmp_xgQA-53" value="" style="endArrow=classic;dashed=1;html=1;rounded=0;dashPattern=1 1;strokeColor=#97D077;strokeWidth=4;entryX=1;entryY=1;entryDx=0;entryDy=0;startArrow=none;startFill=0;endFill=1;fontFamily=Times New Roman;" parent="1" target="JPm__9_oqpG_Kmp_xgQA-39" edge="1">
          <mxGeometry width="50" height="50" relative="1" as="geometry">
            <mxPoint x="410" y="910" as="sourcePoint" />
            <mxPoint x="357" y="535" as="targetPoint" />
            <Array as="points">
              <mxPoint x="460" y="910" />
              <mxPoint x="460" y="550" />
            </Array>
          </mxGeometry>
        </mxCell>
        <mxCell id="JPm__9_oqpG_Kmp_xgQA-54" value="&lt;font data-font-src=&quot;https://www.1001fonts.com/download/cmu.zip&quot;&gt;Checkpoint&lt;/font&gt;" style="rounded=1;whiteSpace=wrap;html=1;rotation=90;fontFamily=Times New Roman;" parent="1" vertex="1">
          <mxGeometry x="650" y="910.9000000000001" width="90" height="30" as="geometry" />
        </mxCell>
        <mxCell id="JPm__9_oqpG_Kmp_xgQA-55" value="" style="endArrow=none;html=1;rounded=0;startArrow=oval;startFill=1;entryX=0.75;entryY=0;entryDx=0;entryDy=0;fontFamily=Times New Roman;" parent="1" edge="1">
          <mxGeometry width="50" height="50" relative="1" as="geometry">
            <mxPoint x="680" y="939.3100000000001" as="sourcePoint" />
            <mxPoint x="600" y="939.3100000000001" as="targetPoint" />
          </mxGeometry>
        </mxCell>
        <mxCell id="JPm__9_oqpG_Kmp_xgQA-57" value="" style="endArrow=none;html=1;rounded=0;startArrow=oval;startFill=1;entryX=1;entryY=0.649;entryDx=0;entryDy=0;entryPerimeter=0;fontFamily=Times New Roman;" parent="1" edge="1">
          <mxGeometry width="50" height="50" relative="1" as="geometry">
            <mxPoint x="680" y="910" as="sourcePoint" />
            <mxPoint x="599.9999999999999" y="910.0700000000002" as="targetPoint" />
          </mxGeometry>
        </mxCell>
        <mxCell id="JPm__9_oqpG_Kmp_xgQA-58" value="&lt;font data-font-src=&quot;https://www.1001fonts.com/download/cmu.zip&quot;&gt;Checkpoint&lt;/font&gt;" style="rounded=1;whiteSpace=wrap;html=1;rotation=90;fontFamily=Times New Roman;" parent="1" vertex="1">
          <mxGeometry x="380" y="910.9000000000001" width="90" height="30" as="geometry" />
        </mxCell>
        <mxCell id="JPm__9_oqpG_Kmp_xgQA-59" value="" style="endArrow=none;html=1;rounded=0;startArrow=oval;startFill=1;entryX=1;entryY=0.649;entryDx=0;entryDy=0;entryPerimeter=0;fontFamily=Times New Roman;" parent="1" edge="1">
          <mxGeometry width="50" height="50" relative="1" as="geometry">
            <mxPoint x="410" y="910" as="sourcePoint" />
            <mxPoint x="329.9999999999999" y="910.0700000000002" as="targetPoint" />
          </mxGeometry>
        </mxCell>
        <mxCell id="JPm__9_oqpG_Kmp_xgQA-62" value="&lt;font data-font-src=&quot;https://www.1001fonts.com/download/cmu.zip&quot;&gt;Checkpoint&lt;/font&gt;" style="rounded=1;whiteSpace=wrap;html=1;rotation=90;fontFamily=Times New Roman;" parent="1" vertex="1">
          <mxGeometry x="380" y="550" width="90" height="30" as="geometry" />
        </mxCell>
        <mxCell id="JPm__9_oqpG_Kmp_xgQA-63" value="" style="endArrow=none;html=1;rounded=0;startArrow=oval;startFill=1;entryX=0.75;entryY=0;entryDx=0;entryDy=0;fontFamily=Times New Roman;" parent="1" edge="1">
          <mxGeometry width="50" height="50" relative="1" as="geometry">
            <mxPoint x="410" y="581.4" as="sourcePoint" />
            <mxPoint x="330" y="581.4" as="targetPoint" />
          </mxGeometry>
        </mxCell>
        <mxCell id="JPm__9_oqpG_Kmp_xgQA-64" value="" style="endArrow=none;html=1;rounded=0;startArrow=oval;startFill=1;entryX=0.75;entryY=0;entryDx=0;entryDy=0;fontFamily=Times New Roman;" parent="1" edge="1">
          <mxGeometry width="50" height="50" relative="1" as="geometry">
            <mxPoint x="410" y="610" as="sourcePoint" />
            <mxPoint x="330" y="610" as="targetPoint" />
          </mxGeometry>
        </mxCell>
        <mxCell id="h_YqwAWkE9oZ5KqZlC1h-2" value="&lt;font data-font-src=&quot;https://www.1001fonts.com/download/cmu.zip&quot;&gt;1&lt;/font&gt;" style="ellipse;whiteSpace=wrap;html=1;fontFamily=Times New Roman;" parent="1" vertex="1">
          <mxGeometry x="326.5" y="884.45" width="20" height="20" as="geometry" />
        </mxCell>
        <mxCell id="h_YqwAWkE9oZ5KqZlC1h-4" value="&lt;font&gt;4&lt;/font&gt;" style="ellipse;whiteSpace=wrap;html=1;fontFamily=Times New Roman;" parent="1" vertex="1">
          <mxGeometry x="596.5" y="585" width="20" height="20" as="geometry" />
        </mxCell>
        <mxCell id="h_YqwAWkE9oZ5KqZlC1h-5" value="&lt;font&gt;3&lt;/font&gt;" style="ellipse;whiteSpace=wrap;html=1;fontFamily=Times New Roman;" parent="1" vertex="1">
          <mxGeometry x="720" y="718.9" width="20" height="20" as="geometry" />
        </mxCell>
        <mxCell id="h_YqwAWkE9oZ5KqZlC1h-6" value="&lt;font data-font-src=&quot;https://www.1001fonts.com/download/cmu.zip&quot;&gt;1&lt;/font&gt;" style="ellipse;whiteSpace=wrap;html=1;fontFamily=Times New Roman;" parent="1" vertex="1">
          <mxGeometry x="596.5" y="885" width="20" height="20" as="geometry" />
        </mxCell>
        <mxCell id="h_YqwAWkE9oZ5KqZlC1h-7" value="&lt;font&gt;2&lt;/font&gt;" style="ellipse;whiteSpace=wrap;html=1;fontFamily=Times New Roman;" parent="1" vertex="1">
          <mxGeometry x="596.5" y="915" width="20" height="20" as="geometry" />
        </mxCell>
        <mxCell id="h_YqwAWkE9oZ5KqZlC1h-8" value="&lt;font&gt;4&lt;/font&gt;" style="ellipse;whiteSpace=wrap;html=1;fontFamily=Times New Roman;" parent="1" vertex="1">
          <mxGeometry x="326.5" y="585" width="20" height="20" as="geometry" />
        </mxCell>
        <mxCell id="h_YqwAWkE9oZ5KqZlC1h-9" value="&lt;font data-font-src=&quot;https://www.1001fonts.com/download/cmu.zip&quot;&gt;3&lt;/font&gt;" style="ellipse;whiteSpace=wrap;html=1;fontFamily=Times New Roman;" parent="1" vertex="1">
          <mxGeometry x="326.5" y="555" width="20" height="20" as="geometry" />
        </mxCell>
        <mxCell id="h_YqwAWkE9oZ5KqZlC1h-10" value="&lt;font&gt;2&lt;/font&gt;" style="ellipse;whiteSpace=wrap;html=1;fontFamily=Times New Roman;" parent="1" vertex="1">
          <mxGeometry x="450" y="718.9" width="20" height="20" as="geometry" />
        </mxCell>
      </root>
    </mxGraphModel>
  </diagram>
</mxfile>
